solid IRB1400_-_M2000_REV1_01-6
   facet normal 5.000000e-001 0.000000e+000 -8.660254e-001
      outer loop
         vertex 8.842323e+000 1.100000e+001 -3.300000e+001
         vertex 2.415768e+001 1.100000e+001 -2.415768e+001
         vertex 8.842323e+000 -1.100000e+001 -3.300000e+001
      endloop
   endfacet
   facet normal 5.000000e-001 0.000000e+000 -8.660254e-001
      outer loop
         vertex 8.842323e+000 -1.100000e+001 -3.300000e+001
         vertex 2.415768e+001 1.100000e+001 -2.415768e+001
         vertex 2.415768e+001 -1.100000e+001 -2.415768e+001
      endloop
   endfacet
   facet normal 0.000000e+000 0.000000e+000 -1.000000e+000
      outer loop
         vertex -8.842323e+000 1.100000e+001 -3.300000e+001
         vertex 8.842323e+000 1.100000e+001 -3.300000e+001
         vertex -8.842323e+000 -1.100000e+001 -3.300000e+001
      endloop
   endfacet
   facet normal 0.000000e+000 0.000000e+000 -1.000000e+000
      outer loop
         vertex -8.842323e+000 -1.100000e+001 -3.300000e+001
         vertex 8.842323e+000 1.100000e+001 -3.300000e+001
         vertex 8.842323e+000 -1.100000e+001 -3.300000e+001
      endloop
   endfacet
   facet normal -5.000000e-001 0.000000e+000 -8.660254e-001
      outer loop
         vertex -2.415768e+001 1.100000e+001 -2.415768e+001
         vertex -8.842323e+000 1.100000e+001 -3.300000e+001
         vertex -2.415768e+001 -1.100000e+001 -2.415768e+001
      endloop
   endfacet
   facet normal -5.000000e-001 0.000000e+000 -8.660254e-001
      outer loop
         vertex -2.415768e+001 -1.100000e+001 -2.415768e+001
         vertex -8.842323e+000 1.100000e+001 -3.300000e+001
         vertex -8.842323e+000 -1.100000e+001 -3.300000e+001
      endloop
   endfacet
   facet normal -8.660254e-001 0.000000e+000 -5.000000e-001
      outer loop
         vertex -3.300000e+001 1.100000e+001 -8.842323e+000
         vertex -2.415768e+001 1.100000e+001 -2.415768e+001
         vertex -3.300000e+001 -1.100000e+001 -8.842323e+000
      endloop
   endfacet
   facet normal -8.660254e-001 0.000000e+000 -5.000000e-001
      outer loop
         vertex -3.300000e+001 -1.100000e+001 -8.842323e+000
         vertex -2.415768e+001 1.100000e+001 -2.415768e+001
         vertex -2.415768e+001 -1.100000e+001 -2.415768e+001
      endloop
   endfacet
   facet normal -1.000000e+000 0.000000e+000 3.923682e-016
      outer loop
         vertex -3.300000e+001 1.100000e+001 6.088423e+002
         vertex -3.300000e+001 1.100000e+001 -8.842323e+000
         vertex -3.300000e+001 -1.100000e+001 6.088423e+002
      endloop
   endfacet
   facet normal -1.000000e+000 0.000000e+000 3.923682e-016
      outer loop
         vertex -3.300000e+001 -1.100000e+001 6.088423e+002
         vertex -3.300000e+001 1.100000e+001 -8.842323e+000
         vertex -3.300000e+001 -1.100000e+001 -8.842323e+000
      endloop
   endfacet
   facet normal -8.660254e-001 0.000000e+000 5.000000e-001
      outer loop
         vertex -2.415768e+001 1.100000e+001 6.241577e+002
         vertex -3.300000e+001 1.100000e+001 6.088423e+002
         vertex -2.415768e+001 -1.100000e+001 6.241577e+002
      endloop
   endfacet
   facet normal -8.660254e-001 0.000000e+000 5.000000e-001
      outer loop
         vertex -2.415768e+001 -1.100000e+001 6.241577e+002
         vertex -3.300000e+001 1.100000e+001 6.088423e+002
         vertex -3.300000e+001 -1.100000e+001 6.088423e+002
      endloop
   endfacet
   facet normal -5.000000e-001 0.000000e+000 8.660254e-001
      outer loop
         vertex -8.842323e+000 1.100000e+001 6.330000e+002
         vertex -2.415768e+001 1.100000e+001 6.241577e+002
         vertex -8.842323e+000 -1.100000e+001 6.330000e+002
      endloop
   endfacet
   facet normal -5.000000e-001 0.000000e+000 8.660254e-001
      outer loop
         vertex -8.842323e+000 -1.100000e+001 6.330000e+002
         vertex -2.415768e+001 1.100000e+001 6.241577e+002
         vertex -2.415768e+001 -1.100000e+001 6.241577e+002
      endloop
   endfacet
   facet normal 0.000000e+000 0.000000e+000 1.000000e+000
      outer loop
         vertex 8.842323e+000 1.100000e+001 6.330000e+002
         vertex -8.842323e+000 1.100000e+001 6.330000e+002
         vertex 8.842323e+000 -1.100000e+001 6.330000e+002
      endloop
   endfacet
   facet normal 0.000000e+000 0.000000e+000 1.000000e+000
      outer loop
         vertex 8.842323e+000 -1.100000e+001 6.330000e+002
         vertex -8.842323e+000 1.100000e+001 6.330000e+002
         vertex -8.842323e+000 -1.100000e+001 6.330000e+002
      endloop
   endfacet
   facet normal 5.000000e-001 0.000000e+000 8.660254e-001
      outer loop
         vertex 2.415768e+001 1.100000e+001 6.241577e+002
         vertex 8.842323e+000 1.100000e+001 6.330000e+002
         vertex 2.415768e+001 -1.100000e+001 6.241577e+002
      endloop
   endfacet
   facet normal 5.000000e-001 0.000000e+000 8.660254e-001
      outer loop
         vertex 2.415768e+001 -1.100000e+001 6.241577e+002
         vertex 8.842323e+000 1.100000e+001 6.330000e+002
         vertex 8.842323e+000 -1.100000e+001 6.330000e+002
      endloop
   endfacet
   facet normal 8.660254e-001 0.000000e+000 5.000000e-001
      outer loop
         vertex 3.300000e+001 1.100000e+001 6.088423e+002
         vertex 2.415768e+001 1.100000e+001 6.241577e+002
         vertex 3.300000e+001 -1.100000e+001 6.088423e+002
      endloop
   endfacet
   facet normal 8.660254e-001 0.000000e+000 5.000000e-001
      outer loop
         vertex 3.300000e+001 -1.100000e+001 6.088423e+002
         vertex 2.415768e+001 1.100000e+001 6.241577e+002
         vertex 2.415768e+001 -1.100000e+001 6.241577e+002
      endloop
   endfacet
   facet normal 1.000000e+000 0.000000e+000 0.000000e+000
      outer loop
         vertex 3.300000e+001 1.100000e+001 5.911577e+002
         vertex 3.300000e+001 1.100000e+001 6.088423e+002
         vertex 3.300000e+001 -1.100000e+001 5.911577e+002
      endloop
   endfacet
   facet normal 1.000000e+000 0.000000e+000 0.000000e+000
      outer loop
         vertex 3.300000e+001 -1.100000e+001 5.911577e+002
         vertex 3.300000e+001 1.100000e+001 6.088423e+002
         vertex 3.300000e+001 -1.100000e+001 6.088423e+002
      endloop
   endfacet
   facet normal 8.660254e-001 0.000000e+000 -5.000000e-001
      outer loop
         vertex 2.415768e+001 1.100000e+001 5.758423e+002
         vertex 3.300000e+001 1.100000e+001 5.911577e+002
         vertex 2.415768e+001 -1.100000e+001 5.758423e+002
      endloop
   endfacet
   facet normal 8.660254e-001 0.000000e+000 -5.000000e-001
      outer loop
         vertex 2.415768e+001 -1.100000e+001 5.758423e+002
         vertex 3.300000e+001 1.100000e+001 5.911577e+002
         vertex 3.300000e+001 -1.100000e+001 5.911577e+002
      endloop
   endfacet
   facet normal 5.000000e-001 0.000000e+000 -8.660254e-001
      outer loop
         vertex 8.842323e+000 1.100000e+001 5.670000e+002
         vertex 2.415768e+001 1.100000e+001 5.758423e+002
         vertex 8.842323e+000 -1.100000e+001 5.670000e+002
      endloop
   endfacet
   facet normal 5.000000e-001 0.000000e+000 -8.660254e-001
      outer loop
         vertex 8.842323e+000 -1.100000e+001 5.670000e+002
         vertex 2.415768e+001 1.100000e+001 5.758423e+002
         vertex 2.415768e+001 -1.100000e+001 5.758423e+002
      endloop
   endfacet
   facet normal 0.000000e+000 0.000000e+000 -1.000000e+000
      outer loop
         vertex 7.000000e+000 1.100000e+001 5.670000e+002
         vertex 8.842323e+000 1.100000e+001 5.670000e+002
         vertex 7.000000e+000 -1.100000e+001 5.670000e+002
      endloop
   endfacet
   facet normal 0.000000e+000 0.000000e+000 -1.000000e+000
      outer loop
         vertex 7.000000e+000 -1.100000e+001 5.670000e+002
         vertex 8.842323e+000 1.100000e+001 5.670000e+002
         vertex 8.842323e+000 -1.100000e+001 5.670000e+002
      endloop
   endfacet
   facet normal 1.000000e+000 0.000000e+000 1.624273e-018
      outer loop
         vertex 7.000000e+000 1.100000e+001 3.300000e+001
         vertex 7.000000e+000 1.100000e+001 5.670000e+002
         vertex 7.000000e+000 -1.100000e+001 3.300000e+001
      endloop
   endfacet
   facet normal 1.000000e+000 0.000000e+000 1.624273e-018
      outer loop
         vertex 7.000000e+000 -1.100000e+001 3.300000e+001
         vertex 7.000000e+000 1.100000e+001 5.670000e+002
         vertex 7.000000e+000 -1.100000e+001 5.670000e+002
      endloop
   endfacet
   facet normal -3.766382e-015 0.000000e+000 1.000000e+000
      outer loop
         vertex 8.842323e+000 1.100000e+001 3.300000e+001
         vertex 7.000000e+000 1.100000e+001 3.300000e+001
         vertex 8.842323e+000 -1.100000e+001 3.300000e+001
      endloop
   endfacet
   facet normal -3.766382e-015 0.000000e+000 1.000000e+000
      outer loop
         vertex 8.842323e+000 -1.100000e+001 3.300000e+001
         vertex 7.000000e+000 1.100000e+001 3.300000e+001
         vertex 7.000000e+000 -1.100000e+001 3.300000e+001
      endloop
   endfacet
   facet normal 5.000000e-001 0.000000e+000 8.660254e-001
      outer loop
         vertex 2.415768e+001 1.100000e+001 2.415768e+001
         vertex 8.842323e+000 1.100000e+001 3.300000e+001
         vertex 2.415768e+001 -1.100000e+001 2.415768e+001
      endloop
   endfacet
   facet normal 5.000000e-001 0.000000e+000 8.660254e-001
      outer loop
         vertex 2.415768e+001 -1.100000e+001 2.415768e+001
         vertex 8.842323e+000 1.100000e+001 3.300000e+001
         vertex 8.842323e+000 -1.100000e+001 3.300000e+001
      endloop
   endfacet
   facet normal 8.660254e-001 0.000000e+000 5.000000e-001
      outer loop
         vertex 3.300000e+001 1.100000e+001 8.842323e+000
         vertex 2.415768e+001 1.100000e+001 2.415768e+001
         vertex 3.300000e+001 -1.100000e+001 8.842323e+000
      endloop
   endfacet
   facet normal 8.660254e-001 0.000000e+000 5.000000e-001
      outer loop
         vertex 3.300000e+001 -1.100000e+001 8.842323e+000
         vertex 2.415768e+001 1.100000e+001 2.415768e+001
         vertex 2.415768e+001 -1.100000e+001 2.415768e+001
      endloop
   endfacet
   facet normal 1.000000e+000 0.000000e+000 0.000000e+000
      outer loop
         vertex 3.300000e+001 1.100000e+001 -8.842323e+000
         vertex 3.300000e+001 1.100000e+001 8.842323e+000
         vertex 3.300000e+001 -1.100000e+001 -8.842323e+000
      endloop
   endfacet
   facet normal 1.000000e+000 0.000000e+000 0.000000e+000
      outer loop
         vertex 3.300000e+001 -1.100000e+001 -8.842323e+000
         vertex 3.300000e+001 1.100000e+001 8.842323e+000
         vertex 3.300000e+001 -1.100000e+001 8.842323e+000
      endloop
   endfacet
   facet normal 8.660254e-001 0.000000e+000 -5.000000e-001
      outer loop
         vertex 2.415768e+001 1.100000e+001 -2.415768e+001
         vertex 3.300000e+001 1.100000e+001 -8.842323e+000
         vertex 2.415768e+001 -1.100000e+001 -2.415768e+001
      endloop
   endfacet
   facet normal 8.660254e-001 0.000000e+000 -5.000000e-001
      outer loop
         vertex 2.415768e+001 -1.100000e+001 -2.415768e+001
         vertex 3.300000e+001 1.100000e+001 -8.842323e+000
         vertex 3.300000e+001 -1.100000e+001 -8.842323e+000
      endloop
   endfacet
   facet normal 0.000000e+000 1.000000e+000 0.000000e+000
      outer loop
         vertex -8.842323e+000 1.100000e+001 -3.300000e+001
         vertex -3.300000e+001 1.100000e+001 -8.842323e+000
         vertex 7.000000e+000 1.100000e+001 3.300000e+001
      endloop
   endfacet
   facet normal 0.000000e+000 1.000000e+000 0.000000e+000
      outer loop
         vertex 7.000000e+000 1.100000e+001 3.300000e+001
         vertex -3.300000e+001 1.100000e+001 -8.842323e+000
         vertex -3.000000e+000 1.100000e+001 3.300000e+001
      endloop
   endfacet
   facet normal 0.000000e+000 1.000000e+000 0.000000e+000
      outer loop
         vertex 7.000000e+000 1.100000e+001 3.300000e+001
         vertex -3.000000e+000 1.100000e+001 3.300000e+001
         vertex 7.000000e+000 1.100000e+001 5.670000e+002
      endloop
   endfacet
   facet normal 0.000000e+000 1.000000e+000 0.000000e+000
      outer loop
         vertex 7.000000e+000 1.100000e+001 5.670000e+002
         vertex -3.000000e+000 1.100000e+001 3.300000e+001
         vertex -3.000000e+000 1.100000e+001 5.670000e+002
      endloop
   endfacet
   facet normal 0.000000e+000 1.000000e+000 0.000000e+000
      outer loop
         vertex 7.000000e+000 1.100000e+001 5.670000e+002
         vertex -3.000000e+000 1.100000e+001 5.670000e+002
         vertex 3.300000e+001 1.100000e+001 6.088423e+002
      endloop
   endfacet
   facet normal 0.000000e+000 1.000000e+000 0.000000e+000
      outer loop
         vertex 3.300000e+001 1.100000e+001 6.088423e+002
         vertex -3.000000e+000 1.100000e+001 5.670000e+002
         vertex 8.842323e+000 1.100000e+001 6.330000e+002
      endloop
   endfacet
   facet normal 0.000000e+000 1.000000e+000 0.000000e+000
      outer loop
         vertex 3.300000e+001 1.100000e+001 6.088423e+002
         vertex 8.842323e+000 1.100000e+001 6.330000e+002
         vertex 2.415768e+001 1.100000e+001 6.241577e+002
      endloop
   endfacet
   facet normal 0.000000e+000 1.000000e+000 0.000000e+000
      outer loop
         vertex 2.415768e+001 1.100000e+001 -2.415768e+001
         vertex 8.842323e+000 1.100000e+001 -3.300000e+001
         vertex 3.300000e+001 1.100000e+001 -8.842323e+000
      endloop
   endfacet
   facet normal 0.000000e+000 1.000000e+000 0.000000e+000
      outer loop
         vertex 3.300000e+001 1.100000e+001 -8.842323e+000
         vertex 8.842323e+000 1.100000e+001 -3.300000e+001
         vertex 7.000000e+000 1.100000e+001 3.300000e+001
      endloop
   endfacet
   facet normal 0.000000e+000 1.000000e+000 0.000000e+000
      outer loop
         vertex 3.300000e+001 1.100000e+001 -8.842323e+000
         vertex 7.000000e+000 1.100000e+001 3.300000e+001
         vertex 2.415768e+001 1.100000e+001 2.415768e+001
      endloop
   endfacet
   facet normal 0.000000e+000 1.000000e+000 0.000000e+000
      outer loop
         vertex 2.415768e+001 1.100000e+001 2.415768e+001
         vertex 7.000000e+000 1.100000e+001 3.300000e+001
         vertex 8.842323e+000 1.100000e+001 3.300000e+001
      endloop
   endfacet
   facet normal 0.000000e+000 1.000000e+000 0.000000e+000
      outer loop
         vertex -3.300000e+001 1.100000e+001 6.088423e+002
         vertex -2.300000e+001 1.100000e+001 5.670000e+002
         vertex -3.300000e+001 1.100000e+001 -8.842323e+000
      endloop
   endfacet
   facet normal 0.000000e+000 1.000000e+000 0.000000e+000
      outer loop
         vertex -3.300000e+001 1.100000e+001 -8.842323e+000
         vertex -2.300000e+001 1.100000e+001 5.670000e+002
         vertex -2.300000e+001 1.100000e+001 3.300000e+001
      endloop
   endfacet
   facet normal 0.000000e+000 1.000000e+000 0.000000e+000
      outer loop
         vertex -3.300000e+001 1.100000e+001 -8.842323e+000
         vertex -2.300000e+001 1.100000e+001 3.300000e+001
         vertex -3.000000e+000 1.100000e+001 3.300000e+001
      endloop
   endfacet
   facet normal 0.000000e+000 1.000000e+000 0.000000e+000
      outer loop
         vertex -2.300000e+001 1.100000e+001 5.670000e+002
         vertex -2.415768e+001 1.100000e+001 6.241577e+002
         vertex -3.000000e+000 1.100000e+001 5.670000e+002
      endloop
   endfacet
   facet normal 0.000000e+000 1.000000e+000 0.000000e+000
      outer loop
         vertex -3.000000e+000 1.100000e+001 5.670000e+002
         vertex -2.415768e+001 1.100000e+001 6.241577e+002
         vertex -8.842323e+000 1.100000e+001 6.330000e+002
      endloop
   endfacet
   facet normal 0.000000e+000 1.000000e+000 0.000000e+000
      outer loop
         vertex -3.000000e+000 1.100000e+001 5.670000e+002
         vertex -8.842323e+000 1.100000e+001 6.330000e+002
         vertex 8.842323e+000 1.100000e+001 6.330000e+002
      endloop
   endfacet
   facet normal 0.000000e+000 1.000000e+000 0.000000e+000
      outer loop
         vertex 2.415768e+001 1.100000e+001 5.758423e+002
         vertex 8.842323e+000 1.100000e+001 5.670000e+002
         vertex 3.300000e+001 1.100000e+001 5.911577e+002
      endloop
   endfacet
   facet normal 0.000000e+000 1.000000e+000 0.000000e+000
      outer loop
         vertex 3.300000e+001 1.100000e+001 5.911577e+002
         vertex 8.842323e+000 1.100000e+001 5.670000e+002
         vertex 7.000000e+000 1.100000e+001 5.670000e+002
      endloop
   endfacet
   facet normal 0.000000e+000 1.000000e+000 0.000000e+000
      outer loop
         vertex 3.300000e+001 1.100000e+001 5.911577e+002
         vertex 7.000000e+000 1.100000e+001 5.670000e+002
         vertex 3.300000e+001 1.100000e+001 6.088423e+002
      endloop
   endfacet
   facet normal 0.000000e+000 1.000000e+000 0.000000e+000
      outer loop
         vertex -2.300000e+001 1.100000e+001 5.670000e+002
         vertex -3.300000e+001 1.100000e+001 6.088423e+002
         vertex -2.415768e+001 1.100000e+001 6.241577e+002
      endloop
   endfacet
   facet normal 0.000000e+000 1.000000e+000 0.000000e+000
      outer loop
         vertex 7.000000e+000 1.100000e+001 3.300000e+001
         vertex 8.842323e+000 1.100000e+001 -3.300000e+001
         vertex -8.842323e+000 1.100000e+001 -3.300000e+001
      endloop
   endfacet
   facet normal 0.000000e+000 1.000000e+000 0.000000e+000
      outer loop
         vertex 2.415768e+001 1.100000e+001 2.415768e+001
         vertex 3.300000e+001 1.100000e+001 8.842323e+000
         vertex 3.300000e+001 1.100000e+001 -8.842323e+000
      endloop
   endfacet
   facet normal 0.000000e+000 1.000000e+000 0.000000e+000
      outer loop
         vertex -8.842323e+000 1.100000e+001 -3.300000e+001
         vertex -2.415768e+001 1.100000e+001 -2.415768e+001
         vertex -3.300000e+001 1.100000e+001 -8.842323e+000
      endloop
   endfacet
   facet normal 0.000000e+000 -1.000000e+000 0.000000e+000
      outer loop
         vertex 8.842323e+000 -1.100000e+001 6.330000e+002
         vertex -8.842323e+000 -1.100000e+001 6.330000e+002
         vertex 3.300000e+001 -1.100000e+001 6.088423e+002
      endloop
   endfacet
   facet normal 0.000000e+000 -1.000000e+000 0.000000e+000
      outer loop
         vertex 3.300000e+001 -1.100000e+001 6.088423e+002
         vertex -8.842323e+000 -1.100000e+001 6.330000e+002
         vertex -3.300000e+001 -1.100000e+001 6.088423e+002
      endloop
   endfacet
   facet normal 0.000000e+000 -1.000000e+000 0.000000e+000
      outer loop
         vertex 3.300000e+001 -1.100000e+001 6.088423e+002
         vertex -3.300000e+001 -1.100000e+001 6.088423e+002
         vertex 3.300000e+001 -1.100000e+001 5.911577e+002
      endloop
   endfacet
   facet normal 0.000000e+000 -1.000000e+000 0.000000e+000
      outer loop
         vertex 3.300000e+001 -1.100000e+001 5.911577e+002
         vertex -3.300000e+001 -1.100000e+001 6.088423e+002
         vertex 8.842323e+000 -1.100000e+001 5.670000e+002
      endloop
   endfacet
   facet normal 0.000000e+000 -1.000000e+000 0.000000e+000
      outer loop
         vertex 3.300000e+001 -1.100000e+001 5.911577e+002
         vertex 8.842323e+000 -1.100000e+001 5.670000e+002
         vertex 2.415768e+001 -1.100000e+001 5.758423e+002
      endloop
   endfacet
   facet normal 0.000000e+000 -1.000000e+000 0.000000e+000
      outer loop
         vertex 8.842323e+000 -1.100000e+001 5.670000e+002
         vertex -3.300000e+001 -1.100000e+001 6.088423e+002
         vertex 7.000000e+000 -1.100000e+001 5.670000e+002
      endloop
   endfacet
   facet normal 0.000000e+000 -1.000000e+000 0.000000e+000
      outer loop
         vertex 7.000000e+000 -1.100000e+001 5.670000e+002
         vertex -3.300000e+001 -1.100000e+001 6.088423e+002
         vertex -3.000000e+000 -1.100000e+001 5.670000e+002
      endloop
   endfacet
   facet normal 0.000000e+000 -1.000000e+000 0.000000e+000
      outer loop
         vertex 7.000000e+000 -1.100000e+001 5.670000e+002
         vertex -3.000000e+000 -1.100000e+001 5.670000e+002
         vertex 7.000000e+000 -1.100000e+001 3.300000e+001
      endloop
   endfacet
   facet normal 0.000000e+000 -1.000000e+000 0.000000e+000
      outer loop
         vertex 7.000000e+000 -1.100000e+001 3.300000e+001
         vertex -3.000000e+000 -1.100000e+001 5.670000e+002
         vertex -3.000000e+000 -1.100000e+001 3.300000e+001
      endloop
   endfacet
   facet normal 0.000000e+000 -1.000000e+000 0.000000e+000
      outer loop
         vertex 7.000000e+000 -1.100000e+001 3.300000e+001
         vertex -3.000000e+000 -1.100000e+001 3.300000e+001
         vertex 3.300000e+001 -1.100000e+001 -8.842323e+000
      endloop
   endfacet
   facet normal 0.000000e+000 -1.000000e+000 0.000000e+000
      outer loop
         vertex 3.300000e+001 -1.100000e+001 -8.842323e+000
         vertex -3.000000e+000 -1.100000e+001 3.300000e+001
         vertex 8.842323e+000 -1.100000e+001 -3.300000e+001
      endloop
   endfacet
   facet normal 0.000000e+000 -1.000000e+000 0.000000e+000
      outer loop
         vertex 3.300000e+001 -1.100000e+001 -8.842323e+000
         vertex 8.842323e+000 -1.100000e+001 -3.300000e+001
         vertex 2.415768e+001 -1.100000e+001 -2.415768e+001
      endloop
   endfacet
   facet normal 0.000000e+000 -1.000000e+000 0.000000e+000
      outer loop
         vertex -8.842323e+000 -1.100000e+001 -3.300000e+001
         vertex 8.842323e+000 -1.100000e+001 -3.300000e+001
         vertex -2.415768e+001 -1.100000e+001 -2.415768e+001
      endloop
   endfacet
   facet normal 0.000000e+000 -1.000000e+000 0.000000e+000
      outer loop
         vertex -2.415768e+001 -1.100000e+001 -2.415768e+001
         vertex 8.842323e+000 -1.100000e+001 -3.300000e+001
         vertex -3.000000e+000 -1.100000e+001 3.300000e+001
      endloop
   endfacet
   facet normal 0.000000e+000 -1.000000e+000 0.000000e+000
      outer loop
         vertex -2.415768e+001 -1.100000e+001 -2.415768e+001
         vertex -3.000000e+000 -1.100000e+001 3.300000e+001
         vertex -3.300000e+001 -1.100000e+001 -8.842323e+000
      endloop
   endfacet
   facet normal 0.000000e+000 -1.000000e+000 0.000000e+000
      outer loop
         vertex -3.300000e+001 -1.100000e+001 -8.842323e+000
         vertex -3.000000e+000 -1.100000e+001 3.300000e+001
         vertex -2.300000e+001 -1.100000e+001 3.300000e+001
      endloop
   endfacet
   facet normal 0.000000e+000 -1.000000e+000 0.000000e+000
      outer loop
         vertex -3.300000e+001 -1.100000e+001 -8.842323e+000
         vertex -2.300000e+001 -1.100000e+001 3.300000e+001
         vertex -3.300000e+001 -1.100000e+001 6.088423e+002
      endloop
   endfacet
   facet normal 0.000000e+000 -1.000000e+000 0.000000e+000
      outer loop
         vertex -3.300000e+001 -1.100000e+001 6.088423e+002
         vertex -2.300000e+001 -1.100000e+001 3.300000e+001
         vertex -2.300000e+001 -1.100000e+001 5.670000e+002
      endloop
   endfacet
   facet normal 0.000000e+000 -1.000000e+000 0.000000e+000
      outer loop
         vertex -3.300000e+001 -1.100000e+001 6.088423e+002
         vertex -2.300000e+001 -1.100000e+001 5.670000e+002
         vertex -3.000000e+000 -1.100000e+001 5.670000e+002
      endloop
   endfacet
   facet normal 0.000000e+000 -1.000000e+000 0.000000e+000
      outer loop
         vertex 2.415768e+001 -1.100000e+001 2.415768e+001
         vertex 8.842323e+000 -1.100000e+001 3.300000e+001
         vertex 3.300000e+001 -1.100000e+001 8.842323e+000
      endloop
   endfacet
   facet normal 0.000000e+000 -1.000000e+000 0.000000e+000
      outer loop
         vertex 3.300000e+001 -1.100000e+001 8.842323e+000
         vertex 8.842323e+000 -1.100000e+001 3.300000e+001
         vertex 7.000000e+000 -1.100000e+001 3.300000e+001
      endloop
   endfacet
   facet normal 0.000000e+000 -1.000000e+000 0.000000e+000
      outer loop
         vertex 3.300000e+001 -1.100000e+001 8.842323e+000
         vertex 7.000000e+000 -1.100000e+001 3.300000e+001
         vertex 3.300000e+001 -1.100000e+001 -8.842323e+000
      endloop
   endfacet
   facet normal 0.000000e+000 -1.000000e+000 0.000000e+000
      outer loop
         vertex 3.300000e+001 -1.100000e+001 6.088423e+002
         vertex 2.415768e+001 -1.100000e+001 6.241577e+002
         vertex 8.842323e+000 -1.100000e+001 6.330000e+002
      endloop
   endfacet
   facet normal 0.000000e+000 -1.000000e+000 0.000000e+000
      outer loop
         vertex -8.842323e+000 -1.100000e+001 6.330000e+002
         vertex -2.415768e+001 -1.100000e+001 6.241577e+002
         vertex -3.300000e+001 -1.100000e+001 6.088423e+002
      endloop
   endfacet
   facet normal 1.000000e+000 0.000000e+000 1.364389e-016
      outer loop
         vertex -2.300000e+001 -4.500000e+000 3.300000e+001
         vertex -2.300000e+001 -4.500000e+000 5.670000e+002
         vertex -2.300000e+001 -1.100000e+001 3.300000e+001
      endloop
   endfacet
   facet normal 1.000000e+000 0.000000e+000 1.364389e-016
      outer loop
         vertex -2.300000e+001 -1.100000e+001 3.300000e+001
         vertex -2.300000e+001 -4.500000e+000 5.670000e+002
         vertex -2.300000e+001 -1.100000e+001 5.670000e+002
      endloop
   endfacet
   facet normal 0.000000e+000 0.000000e+000 -1.000000e+000
      outer loop
         vertex -2.300000e+001 -4.500000e+000 5.670000e+002
         vertex -3.000000e+000 -4.500000e+000 5.670000e+002
         vertex -2.300000e+001 -1.100000e+001 5.670000e+002
      endloop
   endfacet
   facet normal 0.000000e+000 0.000000e+000 -1.000000e+000
      outer loop
         vertex -2.300000e+001 -1.100000e+001 5.670000e+002
         vertex -3.000000e+000 -4.500000e+000 5.670000e+002
         vertex -3.000000e+000 -1.100000e+001 5.670000e+002
      endloop
   endfacet
   facet normal -1.000000e+000 0.000000e+000 -1.356268e-016
      outer loop
         vertex -3.000000e+000 -4.500000e+000 5.670000e+002
         vertex -3.000000e+000 -4.500000e+000 3.300000e+001
         vertex -3.000000e+000 -1.100000e+001 5.670000e+002
      endloop
   endfacet
   facet normal -1.000000e+000 0.000000e+000 -1.356268e-016
      outer loop
         vertex -3.000000e+000 -1.100000e+001 5.670000e+002
         vertex -3.000000e+000 -4.500000e+000 3.300000e+001
         vertex -3.000000e+000 -1.100000e+001 3.300000e+001
      endloop
   endfacet
   facet normal -1.387779e-015 0.000000e+000 1.000000e+000
      outer loop
         vertex -3.000000e+000 -4.500000e+000 3.300000e+001
         vertex -2.300000e+001 -4.500000e+000 3.300000e+001
         vertex -3.000000e+000 -1.100000e+001 3.300000e+001
      endloop
   endfacet
   facet normal -1.387779e-015 0.000000e+000 1.000000e+000
      outer loop
         vertex -3.000000e+000 -1.100000e+001 3.300000e+001
         vertex -2.300000e+001 -4.500000e+000 3.300000e+001
         vertex -2.300000e+001 -1.100000e+001 3.300000e+001
      endloop
   endfacet
   facet normal 0.000000e+000 -1.000000e+000 0.000000e+000
      outer loop
         vertex -3.000000e+000 -4.500000e+000 3.300000e+001
         vertex -3.000000e+000 -4.500000e+000 5.670000e+002
         vertex -2.300000e+001 -4.500000e+000 3.300000e+001
      endloop
   endfacet
   facet normal 0.000000e+000 -1.000000e+000 0.000000e+000
      outer loop
         vertex -2.300000e+001 -4.500000e+000 3.300000e+001
         vertex -3.000000e+000 -4.500000e+000 5.670000e+002
         vertex -2.300000e+001 -4.500000e+000 5.670000e+002
      endloop
   endfacet
   facet normal 1.000000e+000 0.000000e+000 1.364389e-016
      outer loop
         vertex -2.300000e+001 4.500000e+000 5.670000e+002
         vertex -2.300000e+001 4.500000e+000 3.300000e+001
         vertex -2.300000e+001 1.100000e+001 5.670000e+002
      endloop
   endfacet
   facet normal 1.000000e+000 0.000000e+000 1.364389e-016
      outer loop
         vertex -2.300000e+001 1.100000e+001 5.670000e+002
         vertex -2.300000e+001 4.500000e+000 3.300000e+001
         vertex -2.300000e+001 1.100000e+001 3.300000e+001
      endloop
   endfacet
   facet normal -1.387779e-015 0.000000e+000 1.000000e+000
      outer loop
         vertex -2.300000e+001 4.500000e+000 3.300000e+001
         vertex -3.000000e+000 4.500000e+000 3.300000e+001
         vertex -2.300000e+001 1.100000e+001 3.300000e+001
      endloop
   endfacet
   facet normal -1.387779e-015 0.000000e+000 1.000000e+000
      outer loop
         vertex -2.300000e+001 1.100000e+001 3.300000e+001
         vertex -3.000000e+000 4.500000e+000 3.300000e+001
         vertex -3.000000e+000 1.100000e+001 3.300000e+001
      endloop
   endfacet
   facet normal -1.000000e+000 0.000000e+000 -1.356268e-016
      outer loop
         vertex -3.000000e+000 4.500000e+000 3.300000e+001
         vertex -3.000000e+000 4.500000e+000 5.670000e+002
         vertex -3.000000e+000 1.100000e+001 3.300000e+001
      endloop
   endfacet
   facet normal -1.000000e+000 0.000000e+000 -1.356268e-016
      outer loop
         vertex -3.000000e+000 1.100000e+001 3.300000e+001
         vertex -3.000000e+000 4.500000e+000 5.670000e+002
         vertex -3.000000e+000 1.100000e+001 5.670000e+002
      endloop
   endfacet
   facet normal 0.000000e+000 0.000000e+000 -1.000000e+000
      outer loop
         vertex -3.000000e+000 4.500000e+000 5.670000e+002
         vertex -2.300000e+001 4.500000e+000 5.670000e+002
         vertex -3.000000e+000 1.100000e+001 5.670000e+002
      endloop
   endfacet
   facet normal 0.000000e+000 0.000000e+000 -1.000000e+000
      outer loop
         vertex -3.000000e+000 1.100000e+001 5.670000e+002
         vertex -2.300000e+001 4.500000e+000 5.670000e+002
         vertex -2.300000e+001 1.100000e+001 5.670000e+002
      endloop
   endfacet
   facet normal 0.000000e+000 1.000000e+000 0.000000e+000
      outer loop
         vertex -3.000000e+000 4.500000e+000 5.670000e+002
         vertex -3.000000e+000 4.500000e+000 3.300000e+001
         vertex -2.300000e+001 4.500000e+000 5.670000e+002
      endloop
   endfacet
   facet normal 0.000000e+000 1.000000e+000 0.000000e+000
      outer loop
         vertex -2.300000e+001 4.500000e+000 5.670000e+002
         vertex -3.000000e+000 4.500000e+000 3.300000e+001
         vertex -2.300000e+001 4.500000e+000 3.300000e+001
      endloop
   endfacet
endsolid