solid IRB1400_-_M2000_REV2_01-9
   facet normal -5.000000e-001 0.000000e+000 -8.660254e-001
      outer loop
         vertex -1.543942e+000 1.700000e+002 -3.727407e+000
         vertex -2.456058e+000 1.700000e+002 -3.200797e+000
         vertex -1.543942e+000 1.790257e+002 -3.727407e+000
      endloop
   endfacet
   facet normal -5.000000e-001 0.000000e+000 -8.660254e-001
      outer loop
         vertex -1.543942e+000 1.790257e+002 -3.727407e+000
         vertex -2.456058e+000 1.700000e+002 -3.200797e+000
         vertex -2.456058e+000 1.792701e+002 -3.200797e+000
      endloop
   endfacet
   facet normal -7.071068e-001 0.000000e+000 -7.071068e-001
      outer loop
         vertex -2.456058e+000 1.700000e+002 -3.200797e+000
         vertex -3.200797e+000 1.700000e+002 -2.456058e+000
         vertex -2.456058e+000 1.792701e+002 -3.200797e+000
      endloop
   endfacet
   facet normal -7.071068e-001 0.000000e+000 -7.071068e-001
      outer loop
         vertex -2.456058e+000 1.792701e+002 -3.200797e+000
         vertex -3.200797e+000 1.700000e+002 -2.456058e+000
         vertex -3.200797e+000 1.794696e+002 -2.456058e+000
      endloop
   endfacet
   facet normal -8.660254e-001 0.000000e+000 -5.000000e-001
      outer loop
         vertex -3.200797e+000 1.700000e+002 -2.456058e+000
         vertex -3.727407e+000 1.700000e+002 -1.543942e+000
         vertex -3.200797e+000 1.794696e+002 -2.456058e+000
      endloop
   endfacet
   facet normal -8.660254e-001 0.000000e+000 -5.000000e-001
      outer loop
         vertex -3.200797e+000 1.794696e+002 -2.456058e+000
         vertex -3.727407e+000 1.700000e+002 -1.543942e+000
         vertex -3.727407e+000 1.796107e+002 -1.543942e+000
      endloop
   endfacet
   facet normal -9.659258e-001 0.000000e+000 -2.588190e-001
      outer loop
         vertex -3.727407e+000 1.700000e+002 -1.543942e+000
         vertex -4.000000e+000 1.700000e+002 -5.266100e-001
         vertex -3.727407e+000 1.796107e+002 -1.543942e+000
      endloop
   endfacet
   facet normal -9.659258e-001 0.000000e+000 -2.588190e-001
      outer loop
         vertex -3.727407e+000 1.796107e+002 -1.543942e+000
         vertex -4.000000e+000 1.700000e+002 -5.266100e-001
         vertex -4.000000e+000 1.796838e+002 -5.266100e-001
      endloop
   endfacet
   facet normal -1.000000e+000 0.000000e+000 0.000000e+000
      outer loop
         vertex -4.000000e+000 1.700000e+002 -5.266100e-001
         vertex -4.000000e+000 1.700000e+002 5.266100e-001
         vertex -4.000000e+000 1.796838e+002 -5.266100e-001
      endloop
   endfacet
   facet normal -1.000000e+000 0.000000e+000 0.000000e+000
      outer loop
         vertex -4.000000e+000 1.796838e+002 -5.266100e-001
         vertex -4.000000e+000 1.700000e+002 5.266100e-001
         vertex -4.000000e+000 1.796838e+002 5.266100e-001
      endloop
   endfacet
   facet normal -9.659258e-001 0.000000e+000 2.588190e-001
      outer loop
         vertex -4.000000e+000 1.700000e+002 5.266100e-001
         vertex -3.727407e+000 1.700000e+002 1.543942e+000
         vertex -4.000000e+000 1.796838e+002 5.266100e-001
      endloop
   endfacet
   facet normal -9.659258e-001 0.000000e+000 2.588190e-001
      outer loop
         vertex -4.000000e+000 1.796838e+002 5.266100e-001
         vertex -3.727407e+000 1.700000e+002 1.543942e+000
         vertex -3.727407e+000 1.796107e+002 1.543942e+000
      endloop
   endfacet
   facet normal -8.660254e-001 0.000000e+000 5.000000e-001
      outer loop
         vertex -3.727407e+000 1.700000e+002 1.543942e+000
         vertex -3.200797e+000 1.700000e+002 2.456058e+000
         vertex -3.727407e+000 1.796107e+002 1.543942e+000
      endloop
   endfacet
   facet normal -8.660254e-001 0.000000e+000 5.000000e-001
      outer loop
         vertex -3.727407e+000 1.796107e+002 1.543942e+000
         vertex -3.200797e+000 1.700000e+002 2.456058e+000
         vertex -3.200797e+000 1.794696e+002 2.456058e+000
      endloop
   endfacet
   facet normal -7.071068e-001 0.000000e+000 7.071068e-001
      outer loop
         vertex -3.200797e+000 1.700000e+002 2.456058e+000
         vertex -2.456058e+000 1.700000e+002 3.200797e+000
         vertex -3.200797e+000 1.794696e+002 2.456058e+000
      endloop
   endfacet
   facet normal -7.071068e-001 0.000000e+000 7.071068e-001
      outer loop
         vertex -3.200797e+000 1.794696e+002 2.456058e+000
         vertex -2.456058e+000 1.700000e+002 3.200797e+000
         vertex -2.456058e+000 1.792701e+002 3.200797e+000
      endloop
   endfacet
   facet normal -5.000000e-001 0.000000e+000 8.660254e-001
      outer loop
         vertex -2.456058e+000 1.700000e+002 3.200797e+000
         vertex -1.543942e+000 1.700000e+002 3.727407e+000
         vertex -2.456058e+000 1.792701e+002 3.200797e+000
      endloop
   endfacet
   facet normal -5.000000e-001 0.000000e+000 8.660254e-001
      outer loop
         vertex -2.456058e+000 1.792701e+002 3.200797e+000
         vertex -1.543942e+000 1.700000e+002 3.727407e+000
         vertex -1.543942e+000 1.790257e+002 3.727407e+000
      endloop
   endfacet
   facet normal -2.588190e-001 0.000000e+000 9.659258e-001
      outer loop
         vertex -5.266100e-001 1.700000e+002 4.000000e+000
         vertex -5.266100e-001 1.790000e+002 4.000000e+000
         vertex -1.543942e+000 1.700000e+002 3.727407e+000
      endloop
   endfacet
   facet normal -2.588190e-001 0.000000e+000 9.659258e-001
      outer loop
         vertex -1.543942e+000 1.700000e+002 3.727407e+000
         vertex -5.266100e-001 1.790000e+002 4.000000e+000
         vertex -1.448177e+000 1.790000e+002 3.753067e+000
      endloop
   endfacet
   facet normal -2.588190e-001 0.000000e+000 9.659258e-001
      outer loop
         vertex -1.543942e+000 1.700000e+002 3.727407e+000
         vertex -1.448177e+000 1.790000e+002 3.753067e+000
         vertex -1.543942e+000 1.790257e+002 3.727407e+000
      endloop
   endfacet
   facet normal 0.000000e+000 0.000000e+000 1.000000e+000
      outer loop
         vertex -5.266100e-001 1.700000e+002 4.000000e+000
         vertex 5.266100e-001 1.700000e+002 4.000000e+000
         vertex -5.266100e-001 1.790000e+002 4.000000e+000
      endloop
   endfacet
   facet normal 0.000000e+000 0.000000e+000 1.000000e+000
      outer loop
         vertex -5.266100e-001 1.790000e+002 4.000000e+000
         vertex 5.266100e-001 1.700000e+002 4.000000e+000
         vertex 5.266100e-001 1.790000e+002 4.000000e+000
      endloop
   endfacet
   facet normal 2.588190e-001 0.000000e+000 9.659258e-001
      outer loop
         vertex 5.266100e-001 1.790000e+002 4.000000e+000
         vertex 5.266100e-001 1.700000e+002 4.000000e+000
         vertex 1.448177e+000 1.790000e+002 3.753067e+000
      endloop
   endfacet
   facet normal 2.588190e-001 0.000000e+000 9.659258e-001
      outer loop
         vertex 1.448177e+000 1.790000e+002 3.753067e+000
         vertex 5.266100e-001 1.700000e+002 4.000000e+000
         vertex 1.543942e+000 1.700000e+002 3.727407e+000
      endloop
   endfacet
   facet normal 2.588190e-001 0.000000e+000 9.659258e-001
      outer loop
         vertex 1.448177e+000 1.790000e+002 3.753067e+000
         vertex 1.543942e+000 1.700000e+002 3.727407e+000
         vertex 1.543942e+000 1.790257e+002 3.727407e+000
      endloop
   endfacet
   facet normal 5.000000e-001 0.000000e+000 8.660254e-001
      outer loop
         vertex 1.543942e+000 1.700000e+002 3.727407e+000
         vertex 2.456058e+000 1.700000e+002 3.200797e+000
         vertex 1.543942e+000 1.790257e+002 3.727407e+000
      endloop
   endfacet
   facet normal 5.000000e-001 0.000000e+000 8.660254e-001
      outer loop
         vertex 1.543942e+000 1.790257e+002 3.727407e+000
         vertex 2.456058e+000 1.700000e+002 3.200797e+000
         vertex 2.456058e+000 1.792701e+002 3.200797e+000
      endloop
   endfacet
   facet normal 7.071068e-001 0.000000e+000 7.071068e-001
      outer loop
         vertex 2.456058e+000 1.700000e+002 3.200797e+000
         vertex 3.200797e+000 1.700000e+002 2.456058e+000
         vertex 2.456058e+000 1.792701e+002 3.200797e+000
      endloop
   endfacet
   facet normal 7.071068e-001 0.000000e+000 7.071068e-001
      outer loop
         vertex 2.456058e+000 1.792701e+002 3.200797e+000
         vertex 3.200797e+000 1.700000e+002 2.456058e+000
         vertex 3.200797e+000 1.794696e+002 2.456058e+000
      endloop
   endfacet
   facet normal 8.660254e-001 0.000000e+000 5.000000e-001
      outer loop
         vertex 3.200797e+000 1.700000e+002 2.456058e+000
         vertex 3.727407e+000 1.700000e+002 1.543942e+000
         vertex 3.200797e+000 1.794696e+002 2.456058e+000
      endloop
   endfacet
   facet normal 8.660254e-001 0.000000e+000 5.000000e-001
      outer loop
         vertex 3.200797e+000 1.794696e+002 2.456058e+000
         vertex 3.727407e+000 1.700000e+002 1.543942e+000
         vertex 3.727407e+000 1.796107e+002 1.543942e+000
      endloop
   endfacet
   facet normal 9.659258e-001 0.000000e+000 2.588190e-001
      outer loop
         vertex 3.727407e+000 1.700000e+002 1.543942e+000
         vertex 4.000000e+000 1.700000e+002 5.266100e-001
         vertex 3.727407e+000 1.796107e+002 1.543942e+000
      endloop
   endfacet
   facet normal 9.659258e-001 0.000000e+000 2.588190e-001
      outer loop
         vertex 3.727407e+000 1.796107e+002 1.543942e+000
         vertex 4.000000e+000 1.700000e+002 5.266100e-001
         vertex 4.000000e+000 1.796838e+002 5.266100e-001
      endloop
   endfacet
   facet normal 1.000000e+000 0.000000e+000 0.000000e+000
      outer loop
         vertex 4.000000e+000 1.700000e+002 5.266100e-001
         vertex 4.000000e+000 1.700000e+002 -5.266100e-001
         vertex 4.000000e+000 1.796838e+002 5.266100e-001
      endloop
   endfacet
   facet normal 1.000000e+000 0.000000e+000 0.000000e+000
      outer loop
         vertex 4.000000e+000 1.796838e+002 5.266100e-001
         vertex 4.000000e+000 1.700000e+002 -5.266100e-001
         vertex 4.000000e+000 1.796838e+002 -5.266100e-001
      endloop
   endfacet
   facet normal 9.659258e-001 0.000000e+000 -2.588190e-001
      outer loop
         vertex 4.000000e+000 1.700000e+002 -5.266100e-001
         vertex 3.727407e+000 1.700000e+002 -1.543942e+000
         vertex 4.000000e+000 1.796838e+002 -5.266100e-001
      endloop
   endfacet
   facet normal 9.659258e-001 0.000000e+000 -2.588190e-001
      outer loop
         vertex 4.000000e+000 1.796838e+002 -5.266100e-001
         vertex 3.727407e+000 1.700000e+002 -1.543942e+000
         vertex 3.727407e+000 1.796107e+002 -1.543942e+000
      endloop
   endfacet
   facet normal 8.660254e-001 0.000000e+000 -5.000000e-001
      outer loop
         vertex 3.727407e+000 1.700000e+002 -1.543942e+000
         vertex 3.200797e+000 1.700000e+002 -2.456058e+000
         vertex 3.727407e+000 1.796107e+002 -1.543942e+000
      endloop
   endfacet
   facet normal 8.660254e-001 0.000000e+000 -5.000000e-001
      outer loop
         vertex 3.727407e+000 1.796107e+002 -1.543942e+000
         vertex 3.200797e+000 1.700000e+002 -2.456058e+000
         vertex 3.200797e+000 1.794696e+002 -2.456058e+000
      endloop
   endfacet
   facet normal 7.071068e-001 0.000000e+000 -7.071068e-001
      outer loop
         vertex 3.200797e+000 1.700000e+002 -2.456058e+000
         vertex 2.456058e+000 1.700000e+002 -3.200797e+000
         vertex 3.200797e+000 1.794696e+002 -2.456058e+000
      endloop
   endfacet
   facet normal 7.071068e-001 0.000000e+000 -7.071068e-001
      outer loop
         vertex 3.200797e+000 1.794696e+002 -2.456058e+000
         vertex 2.456058e+000 1.700000e+002 -3.200797e+000
         vertex 2.456058e+000 1.792701e+002 -3.200797e+000
      endloop
   endfacet
   facet normal 5.000000e-001 0.000000e+000 -8.660254e-001
      outer loop
         vertex 2.456058e+000 1.700000e+002 -3.200797e+000
         vertex 1.543942e+000 1.700000e+002 -3.727407e+000
         vertex 2.456058e+000 1.792701e+002 -3.200797e+000
      endloop
   endfacet
   facet normal 5.000000e-001 0.000000e+000 -8.660254e-001
      outer loop
         vertex 2.456058e+000 1.792701e+002 -3.200797e+000
         vertex 1.543942e+000 1.700000e+002 -3.727407e+000
         vertex 1.543942e+000 1.790257e+002 -3.727407e+000
      endloop
   endfacet
   facet normal 2.588190e-001 0.000000e+000 -9.659258e-001
      outer loop
         vertex 5.266100e-001 1.700000e+002 -4.000000e+000
         vertex 5.266100e-001 1.790000e+002 -4.000000e+000
         vertex 1.543942e+000 1.700000e+002 -3.727407e+000
      endloop
   endfacet
   facet normal 2.588190e-001 0.000000e+000 -9.659258e-001
      outer loop
         vertex 1.543942e+000 1.700000e+002 -3.727407e+000
         vertex 5.266100e-001 1.790000e+002 -4.000000e+000
         vertex 1.448177e+000 1.790000e+002 -3.753067e+000
      endloop
   endfacet
   facet normal 2.588190e-001 0.000000e+000 -9.659258e-001
      outer loop
         vertex 1.543942e+000 1.700000e+002 -3.727407e+000
         vertex 1.448177e+000 1.790000e+002 -3.753067e+000
         vertex 1.543942e+000 1.790257e+002 -3.727407e+000
      endloop
   endfacet
   facet normal 0.000000e+000 0.000000e+000 -1.000000e+000
      outer loop
         vertex 5.266100e-001 1.700000e+002 -4.000000e+000
         vertex -5.266100e-001 1.700000e+002 -4.000000e+000
         vertex 5.266100e-001 1.790000e+002 -4.000000e+000
      endloop
   endfacet
   facet normal 0.000000e+000 0.000000e+000 -1.000000e+000
      outer loop
         vertex 5.266100e-001 1.790000e+002 -4.000000e+000
         vertex -5.266100e-001 1.700000e+002 -4.000000e+000
         vertex -5.266100e-001 1.790000e+002 -4.000000e+000
      endloop
   endfacet
   facet normal -2.588190e-001 0.000000e+000 -9.659258e-001
      outer loop
         vertex -5.266100e-001 1.790000e+002 -4.000000e+000
         vertex -5.266100e-001 1.700000e+002 -4.000000e+000
         vertex -1.448177e+000 1.790000e+002 -3.753067e+000
      endloop
   endfacet
   facet normal -2.588190e-001 0.000000e+000 -9.659258e-001
      outer loop
         vertex -1.448177e+000 1.790000e+002 -3.753067e+000
         vertex -5.266100e-001 1.700000e+002 -4.000000e+000
         vertex -1.543942e+000 1.700000e+002 -3.727407e+000
      endloop
   endfacet
   facet normal -2.588190e-001 0.000000e+000 -9.659258e-001
      outer loop
         vertex -1.448177e+000 1.790000e+002 -3.753067e+000
         vertex -1.543942e+000 1.700000e+002 -3.727407e+000
         vertex -1.543942e+000 1.790257e+002 -3.727407e+000
      endloop
   endfacet
   facet normal 0.000000e+000 1.000000e+000 0.000000e+000
      outer loop
         vertex -4.000000e+000 1.700000e+002 -5.266100e-001
         vertex -5.000000e+000 1.700000e+002 -6.582625e-001
         vertex -4.000000e+000 1.700000e+002 5.266100e-001
      endloop
   endfacet
   facet normal 0.000000e+000 1.000000e+000 0.000000e+000
      outer loop
         vertex -4.000000e+000 1.700000e+002 5.266100e-001
         vertex -5.000000e+000 1.700000e+002 -6.582625e-001
         vertex -5.000000e+000 1.700000e+002 6.582625e-001
      endloop
   endfacet
   facet normal 0.000000e+000 1.000000e+000 0.000000e+000
      outer loop
         vertex -4.000000e+000 1.700000e+002 5.266100e-001
         vertex -5.000000e+000 1.700000e+002 6.582625e-001
         vertex -3.727407e+000 1.700000e+002 1.543942e+000
      endloop
   endfacet
   facet normal 0.000000e+000 1.000000e+000 0.000000e+000
      outer loop
         vertex -3.727407e+000 1.700000e+002 1.543942e+000
         vertex -5.000000e+000 1.700000e+002 6.582625e-001
         vertex -4.659258e+000 1.700000e+002 1.929928e+000
      endloop
   endfacet
   facet normal 0.000000e+000 1.000000e+000 0.000000e+000
      outer loop
         vertex -3.727407e+000 1.700000e+002 1.543942e+000
         vertex -4.659258e+000 1.700000e+002 1.929928e+000
         vertex -3.200797e+000 1.700000e+002 2.456058e+000
      endloop
   endfacet
   facet normal 0.000000e+000 1.000000e+000 0.000000e+000
      outer loop
         vertex -3.200797e+000 1.700000e+002 2.456058e+000
         vertex -4.659258e+000 1.700000e+002 1.929928e+000
         vertex -4.000996e+000 1.700000e+002 3.070072e+000
      endloop
   endfacet
   facet normal 0.000000e+000 1.000000e+000 0.000000e+000
      outer loop
         vertex -3.200797e+000 1.700000e+002 2.456058e+000
         vertex -4.000996e+000 1.700000e+002 3.070072e+000
         vertex -2.456058e+000 1.700000e+002 3.200797e+000
      endloop
   endfacet
   facet normal 0.000000e+000 1.000000e+000 0.000000e+000
      outer loop
         vertex -2.456058e+000 1.700000e+002 3.200797e+000
         vertex -4.000996e+000 1.700000e+002 3.070072e+000
         vertex -3.070072e+000 1.700000e+002 4.000996e+000
      endloop
   endfacet
   facet normal 0.000000e+000 1.000000e+000 0.000000e+000
      outer loop
         vertex -2.456058e+000 1.700000e+002 3.200797e+000
         vertex -3.070072e+000 1.700000e+002 4.000996e+000
         vertex -1.543942e+000 1.700000e+002 3.727407e+000
      endloop
   endfacet
   facet normal 0.000000e+000 1.000000e+000 0.000000e+000
      outer loop
         vertex -1.543942e+000 1.700000e+002 3.727407e+000
         vertex -3.070072e+000 1.700000e+002 4.000996e+000
         vertex -1.929928e+000 1.700000e+002 4.659258e+000
      endloop
   endfacet
   facet normal 0.000000e+000 1.000000e+000 0.000000e+000
      outer loop
         vertex -1.543942e+000 1.700000e+002 3.727407e+000
         vertex -1.929928e+000 1.700000e+002 4.659258e+000
         vertex -5.266100e-001 1.700000e+002 4.000000e+000
      endloop
   endfacet
   facet normal 0.000000e+000 1.000000e+000 0.000000e+000
      outer loop
         vertex -5.266100e-001 1.700000e+002 4.000000e+000
         vertex -1.929928e+000 1.700000e+002 4.659258e+000
         vertex -6.582625e-001 1.700000e+002 5.000000e+000
      endloop
   endfacet
   facet normal 0.000000e+000 1.000000e+000 0.000000e+000
      outer loop
         vertex -5.266100e-001 1.700000e+002 4.000000e+000
         vertex -6.582625e-001 1.700000e+002 5.000000e+000
         vertex 5.266100e-001 1.700000e+002 4.000000e+000
      endloop
   endfacet
   facet normal 0.000000e+000 1.000000e+000 0.000000e+000
      outer loop
         vertex 5.266100e-001 1.700000e+002 4.000000e+000
         vertex -6.582625e-001 1.700000e+002 5.000000e+000
         vertex 6.582625e-001 1.700000e+002 5.000000e+000
      endloop
   endfacet
   facet normal 0.000000e+000 1.000000e+000 0.000000e+000
      outer loop
         vertex 5.266100e-001 1.700000e+002 4.000000e+000
         vertex 6.582625e-001 1.700000e+002 5.000000e+000
         vertex 1.543942e+000 1.700000e+002 3.727407e+000
      endloop
   endfacet
   facet normal 0.000000e+000 1.000000e+000 0.000000e+000
      outer loop
         vertex 1.543942e+000 1.700000e+002 3.727407e+000
         vertex 6.582625e-001 1.700000e+002 5.000000e+000
         vertex 1.929928e+000 1.700000e+002 4.659258e+000
      endloop
   endfacet
   facet normal 0.000000e+000 1.000000e+000 0.000000e+000
      outer loop
         vertex 1.543942e+000 1.700000e+002 3.727407e+000
         vertex 1.929928e+000 1.700000e+002 4.659258e+000
         vertex 2.456058e+000 1.700000e+002 3.200797e+000
      endloop
   endfacet
   facet normal 0.000000e+000 1.000000e+000 0.000000e+000
      outer loop
         vertex 2.456058e+000 1.700000e+002 3.200797e+000
         vertex 1.929928e+000 1.700000e+002 4.659258e+000
         vertex 3.070072e+000 1.700000e+002 4.000996e+000
      endloop
   endfacet
   facet normal 0.000000e+000 1.000000e+000 0.000000e+000
      outer loop
         vertex 2.456058e+000 1.700000e+002 3.200797e+000
         vertex 3.070072e+000 1.700000e+002 4.000996e+000
         vertex 3.200797e+000 1.700000e+002 2.456058e+000
      endloop
   endfacet
   facet normal 0.000000e+000 1.000000e+000 0.000000e+000
      outer loop
         vertex 3.200797e+000 1.700000e+002 2.456058e+000
         vertex 3.070072e+000 1.700000e+002 4.000996e+000
         vertex 4.000996e+000 1.700000e+002 3.070072e+000
      endloop
   endfacet
   facet normal 0.000000e+000 1.000000e+000 0.000000e+000
      outer loop
         vertex 3.200797e+000 1.700000e+002 2.456058e+000
         vertex 4.000996e+000 1.700000e+002 3.070072e+000
         vertex 3.727407e+000 1.700000e+002 1.543942e+000
      endloop
   endfacet
   facet normal 0.000000e+000 1.000000e+000 0.000000e+000
      outer loop
         vertex 3.727407e+000 1.700000e+002 1.543942e+000
         vertex 4.000996e+000 1.700000e+002 3.070072e+000
         vertex 4.659258e+000 1.700000e+002 1.929928e+000
      endloop
   endfacet
   facet normal 0.000000e+000 1.000000e+000 0.000000e+000
      outer loop
         vertex 3.727407e+000 1.700000e+002 1.543942e+000
         vertex 4.659258e+000 1.700000e+002 1.929928e+000
         vertex 4.000000e+000 1.700000e+002 5.266100e-001
      endloop
   endfacet
   facet normal 0.000000e+000 1.000000e+000 0.000000e+000
      outer loop
         vertex 4.000000e+000 1.700000e+002 5.266100e-001
         vertex 4.659258e+000 1.700000e+002 1.929928e+000
         vertex 5.000000e+000 1.700000e+002 6.582625e-001
      endloop
   endfacet
   facet normal 0.000000e+000 1.000000e+000 0.000000e+000
      outer loop
         vertex 4.000000e+000 1.700000e+002 5.266100e-001
         vertex 5.000000e+000 1.700000e+002 6.582625e-001
         vertex 4.000000e+000 1.700000e+002 -5.266100e-001
      endloop
   endfacet
   facet normal 0.000000e+000 1.000000e+000 0.000000e+000
      outer loop
         vertex 4.000000e+000 1.700000e+002 -5.266100e-001
         vertex 5.000000e+000 1.700000e+002 6.582625e-001
         vertex 5.000000e+000 1.700000e+002 -6.582625e-001
      endloop
   endfacet
   facet normal 0.000000e+000 1.000000e+000 0.000000e+000
      outer loop
         vertex 4.000000e+000 1.700000e+002 -5.266100e-001
         vertex 5.000000e+000 1.700000e+002 -6.582625e-001
         vertex 3.727407e+000 1.700000e+002 -1.543942e+000
      endloop
   endfacet
   facet normal 0.000000e+000 1.000000e+000 0.000000e+000
      outer loop
         vertex 3.727407e+000 1.700000e+002 -1.543942e+000
         vertex 5.000000e+000 1.700000e+002 -6.582625e-001
         vertex 4.659258e+000 1.700000e+002 -1.929928e+000
      endloop
   endfacet
   facet normal 0.000000e+000 1.000000e+000 0.000000e+000
      outer loop
         vertex 3.727407e+000 1.700000e+002 -1.543942e+000
         vertex 4.659258e+000 1.700000e+002 -1.929928e+000
         vertex 3.200797e+000 1.700000e+002 -2.456058e+000
      endloop
   endfacet
   facet normal 0.000000e+000 1.000000e+000 0.000000e+000
      outer loop
         vertex 3.200797e+000 1.700000e+002 -2.456058e+000
         vertex 4.659258e+000 1.700000e+002 -1.929928e+000
         vertex 4.000996e+000 1.700000e+002 -3.070072e+000
      endloop
   endfacet
   facet normal 0.000000e+000 1.000000e+000 0.000000e+000
      outer loop
         vertex 3.200797e+000 1.700000e+002 -2.456058e+000
         vertex 4.000996e+000 1.700000e+002 -3.070072e+000
         vertex 2.456058e+000 1.700000e+002 -3.200797e+000
      endloop
   endfacet
   facet normal 0.000000e+000 1.000000e+000 0.000000e+000
      outer loop
         vertex 2.456058e+000 1.700000e+002 -3.200797e+000
         vertex 4.000996e+000 1.700000e+002 -3.070072e+000
         vertex 3.070072e+000 1.700000e+002 -4.000996e+000
      endloop
   endfacet
   facet normal 0.000000e+000 1.000000e+000 0.000000e+000
      outer loop
         vertex 2.456058e+000 1.700000e+002 -3.200797e+000
         vertex 3.070072e+000 1.700000e+002 -4.000996e+000
         vertex 1.543942e+000 1.700000e+002 -3.727407e+000
      endloop
   endfacet
   facet normal 0.000000e+000 1.000000e+000 0.000000e+000
      outer loop
         vertex 1.543942e+000 1.700000e+002 -3.727407e+000
         vertex 3.070072e+000 1.700000e+002 -4.000996e+000
         vertex 1.929928e+000 1.700000e+002 -4.659258e+000
      endloop
   endfacet
   facet normal 0.000000e+000 1.000000e+000 0.000000e+000
      outer loop
         vertex 1.543942e+000 1.700000e+002 -3.727407e+000
         vertex 1.929928e+000 1.700000e+002 -4.659258e+000
         vertex 5.266100e-001 1.700000e+002 -4.000000e+000
      endloop
   endfacet
   facet normal 0.000000e+000 1.000000e+000 0.000000e+000
      outer loop
         vertex 5.266100e-001 1.700000e+002 -4.000000e+000
         vertex 1.929928e+000 1.700000e+002 -4.659258e+000
         vertex 6.582625e-001 1.700000e+002 -5.000000e+000
      endloop
   endfacet
   facet normal 0.000000e+000 1.000000e+000 0.000000e+000
      outer loop
         vertex 5.266100e-001 1.700000e+002 -4.000000e+000
         vertex 6.582625e-001 1.700000e+002 -5.000000e+000
         vertex -5.266100e-001 1.700000e+002 -4.000000e+000
      endloop
   endfacet
   facet normal 0.000000e+000 1.000000e+000 0.000000e+000
      outer loop
         vertex -5.266100e-001 1.700000e+002 -4.000000e+000
         vertex 6.582625e-001 1.700000e+002 -5.000000e+000
         vertex -6.582625e-001 1.700000e+002 -5.000000e+000
      endloop
   endfacet
   facet normal 0.000000e+000 1.000000e+000 0.000000e+000
      outer loop
         vertex -5.266100e-001 1.700000e+002 -4.000000e+000
         vertex -6.582625e-001 1.700000e+002 -5.000000e+000
         vertex -1.543942e+000 1.700000e+002 -3.727407e+000
      endloop
   endfacet
   facet normal 0.000000e+000 1.000000e+000 0.000000e+000
      outer loop
         vertex -1.543942e+000 1.700000e+002 -3.727407e+000
         vertex -6.582625e-001 1.700000e+002 -5.000000e+000
         vertex -1.929928e+000 1.700000e+002 -4.659258e+000
      endloop
   endfacet
   facet normal 0.000000e+000 1.000000e+000 0.000000e+000
      outer loop
         vertex -1.543942e+000 1.700000e+002 -3.727407e+000
         vertex -1.929928e+000 1.700000e+002 -4.659258e+000
         vertex -2.456058e+000 1.700000e+002 -3.200797e+000
      endloop
   endfacet
   facet normal 0.000000e+000 1.000000e+000 0.000000e+000
      outer loop
         vertex -2.456058e+000 1.700000e+002 -3.200797e+000
         vertex -1.929928e+000 1.700000e+002 -4.659258e+000
         vertex -3.070072e+000 1.700000e+002 -4.000996e+000
      endloop
   endfacet
   facet normal 0.000000e+000 1.000000e+000 0.000000e+000
      outer loop
         vertex -2.456058e+000 1.700000e+002 -3.200797e+000
         vertex -3.070072e+000 1.700000e+002 -4.000996e+000
         vertex -3.200797e+000 1.700000e+002 -2.456058e+000
      endloop
   endfacet
   facet normal 0.000000e+000 1.000000e+000 0.000000e+000
      outer loop
         vertex -3.200797e+000 1.700000e+002 -2.456058e+000
         vertex -3.070072e+000 1.700000e+002 -4.000996e+000
         vertex -4.000996e+000 1.700000e+002 -3.070072e+000
      endloop
   endfacet
   facet normal 0.000000e+000 1.000000e+000 0.000000e+000
      outer loop
         vertex -3.200797e+000 1.700000e+002 -2.456058e+000
         vertex -4.000996e+000 1.700000e+002 -3.070072e+000
         vertex -3.727407e+000 1.700000e+002 -1.543942e+000
      endloop
   endfacet
   facet normal 0.000000e+000 1.000000e+000 0.000000e+000
      outer loop
         vertex -3.727407e+000 1.700000e+002 -1.543942e+000
         vertex -4.000996e+000 1.700000e+002 -3.070072e+000
         vertex -4.659258e+000 1.700000e+002 -1.929928e+000
      endloop
   endfacet
   facet normal 0.000000e+000 1.000000e+000 0.000000e+000
      outer loop
         vertex -3.727407e+000 1.700000e+002 -1.543942e+000
         vertex -4.659258e+000 1.700000e+002 -1.929928e+000
         vertex -4.000000e+000 1.700000e+002 -5.266100e-001
      endloop
   endfacet
   facet normal 0.000000e+000 1.000000e+000 0.000000e+000
      outer loop
         vertex -4.000000e+000 1.700000e+002 -5.266100e-001
         vertex -4.659258e+000 1.700000e+002 -1.929928e+000
         vertex -5.000000e+000 1.700000e+002 -6.582625e-001
      endloop
   endfacet
   facet normal 5.000000e-001 0.000000e+000 -8.660254e-001
      outer loop
         vertex 7.719712e+000 1.500000e+002 -1.863703e+001
         vertex 1.228029e+001 1.500000e+002 -1.600398e+001
         vertex 7.719712e+000 -1.500000e+002 -1.863703e+001
      endloop
   endfacet
   facet normal 5.000000e-001 0.000000e+000 -8.660254e-001
      outer loop
         vertex 7.719712e+000 -1.500000e+002 -1.863703e+001
         vertex 1.228029e+001 1.500000e+002 -1.600398e+001
         vertex 1.228029e+001 -1.500000e+002 -1.600398e+001
      endloop
   endfacet
   facet normal 2.588190e-001 0.000000e+000 -9.659258e-001
      outer loop
         vertex 2.633050e+000 1.500000e+002 -2.000000e+001
         vertex 7.719712e+000 1.500000e+002 -1.863703e+001
         vertex 2.633050e+000 -1.500000e+002 -2.000000e+001
      endloop
   endfacet
   facet normal 2.588190e-001 0.000000e+000 -9.659258e-001
      outer loop
         vertex 2.633050e+000 -1.500000e+002 -2.000000e+001
         vertex 7.719712e+000 1.500000e+002 -1.863703e+001
         vertex 7.719712e+000 -1.500000e+002 -1.863703e+001
      endloop
   endfacet
   facet normal 0.000000e+000 0.000000e+000 -1.000000e+000
      outer loop
         vertex -2.633050e+000 1.500000e+002 -2.000000e+001
         vertex 2.633050e+000 1.500000e+002 -2.000000e+001
         vertex -2.633050e+000 -1.500000e+002 -2.000000e+001
      endloop
   endfacet
   facet normal 0.000000e+000 0.000000e+000 -1.000000e+000
      outer loop
         vertex -2.633050e+000 -1.500000e+002 -2.000000e+001
         vertex 2.633050e+000 1.500000e+002 -2.000000e+001
         vertex 2.633050e+000 -1.500000e+002 -2.000000e+001
      endloop
   endfacet
   facet normal -2.588190e-001 0.000000e+000 -9.659258e-001
      outer loop
         vertex -7.719712e+000 1.500000e+002 -1.863703e+001
         vertex -2.633050e+000 1.500000e+002 -2.000000e+001
         vertex -7.719712e+000 -1.500000e+002 -1.863703e+001
      endloop
   endfacet
   facet normal -2.588190e-001 0.000000e+000 -9.659258e-001
      outer loop
         vertex -7.719712e+000 -1.500000e+002 -1.863703e+001
         vertex -2.633050e+000 1.500000e+002 -2.000000e+001
         vertex -2.633050e+000 -1.500000e+002 -2.000000e+001
      endloop
   endfacet
   facet normal -5.000000e-001 0.000000e+000 -8.660254e-001
      outer loop
         vertex -1.228029e+001 1.500000e+002 -1.600398e+001
         vertex -7.719712e+000 1.500000e+002 -1.863703e+001
         vertex -1.228029e+001 -1.500000e+002 -1.600398e+001
      endloop
   endfacet
   facet normal -5.000000e-001 0.000000e+000 -8.660254e-001
      outer loop
         vertex -1.228029e+001 -1.500000e+002 -1.600398e+001
         vertex -7.719712e+000 1.500000e+002 -1.863703e+001
         vertex -7.719712e+000 -1.500000e+002 -1.863703e+001
      endloop
   endfacet
   facet normal -7.071068e-001 0.000000e+000 -7.071068e-001
      outer loop
         vertex -1.600398e+001 1.500000e+002 -1.228029e+001
         vertex -1.228029e+001 1.500000e+002 -1.600398e+001
         vertex -1.600398e+001 -1.500000e+002 -1.228029e+001
      endloop
   endfacet
   facet normal -7.071068e-001 0.000000e+000 -7.071068e-001
      outer loop
         vertex -1.600398e+001 -1.500000e+002 -1.228029e+001
         vertex -1.228029e+001 1.500000e+002 -1.600398e+001
         vertex -1.228029e+001 -1.500000e+002 -1.600398e+001
      endloop
   endfacet
   facet normal -8.660254e-001 0.000000e+000 -5.000000e-001
      outer loop
         vertex -1.863703e+001 1.500000e+002 -7.719712e+000
         vertex -1.600398e+001 1.500000e+002 -1.228029e+001
         vertex -1.863703e+001 -1.500000e+002 -7.719712e+000
      endloop
   endfacet
   facet normal -8.660254e-001 0.000000e+000 -5.000000e-001
      outer loop
         vertex -1.863703e+001 -1.500000e+002 -7.719712e+000
         vertex -1.600398e+001 1.500000e+002 -1.228029e+001
         vertex -1.600398e+001 -1.500000e+002 -1.228029e+001
      endloop
   endfacet
   facet normal -9.659258e-001 0.000000e+000 -2.588190e-001
      outer loop
         vertex -2.000000e+001 1.500000e+002 -2.633050e+000
         vertex -1.863703e+001 1.500000e+002 -7.719712e+000
         vertex -2.000000e+001 -1.500000e+002 -2.633050e+000
      endloop
   endfacet
   facet normal -9.659258e-001 0.000000e+000 -2.588190e-001
      outer loop
         vertex -2.000000e+001 -1.500000e+002 -2.633050e+000
         vertex -1.863703e+001 1.500000e+002 -7.719712e+000
         vertex -1.863703e+001 -1.500000e+002 -7.719712e+000
      endloop
   endfacet
   facet normal -1.000000e+000 0.000000e+000 0.000000e+000
      outer loop
         vertex -2.000000e+001 1.500000e+002 2.633050e+000
         vertex -2.000000e+001 1.500000e+002 -2.633050e+000
         vertex -2.000000e+001 -1.500000e+002 2.633050e+000
      endloop
   endfacet
   facet normal -1.000000e+000 0.000000e+000 0.000000e+000
      outer loop
         vertex -2.000000e+001 -1.500000e+002 2.633050e+000
         vertex -2.000000e+001 1.500000e+002 -2.633050e+000
         vertex -2.000000e+001 -1.500000e+002 -2.633050e+000
      endloop
   endfacet
   facet normal -9.659258e-001 0.000000e+000 2.588190e-001
      outer loop
         vertex -1.863703e+001 1.500000e+002 7.719712e+000
         vertex -2.000000e+001 1.500000e+002 2.633050e+000
         vertex -1.863703e+001 -1.500000e+002 7.719712e+000
      endloop
   endfacet
   facet normal -9.659258e-001 0.000000e+000 2.588190e-001
      outer loop
         vertex -1.863703e+001 -1.500000e+002 7.719712e+000
         vertex -2.000000e+001 1.500000e+002 2.633050e+000
         vertex -2.000000e+001 -1.500000e+002 2.633050e+000
      endloop
   endfacet
   facet normal -8.660254e-001 0.000000e+000 5.000000e-001
      outer loop
         vertex -1.600398e+001 1.500000e+002 1.228029e+001
         vertex -1.863703e+001 1.500000e+002 7.719712e+000
         vertex -1.600398e+001 -1.500000e+002 1.228029e+001
      endloop
   endfacet
   facet normal -8.660254e-001 0.000000e+000 5.000000e-001
      outer loop
         vertex -1.600398e+001 -1.500000e+002 1.228029e+001
         vertex -1.863703e+001 1.500000e+002 7.719712e+000
         vertex -1.863703e+001 -1.500000e+002 7.719712e+000
      endloop
   endfacet
   facet normal -7.071068e-001 0.000000e+000 7.071068e-001
      outer loop
         vertex -1.228029e+001 1.500000e+002 1.600398e+001
         vertex -1.600398e+001 1.500000e+002 1.228029e+001
         vertex -1.228029e+001 -1.500000e+002 1.600398e+001
      endloop
   endfacet
   facet normal -7.071068e-001 0.000000e+000 7.071068e-001
      outer loop
         vertex -1.228029e+001 -1.500000e+002 1.600398e+001
         vertex -1.600398e+001 1.500000e+002 1.228029e+001
         vertex -1.600398e+001 -1.500000e+002 1.228029e+001
      endloop
   endfacet
   facet normal -5.000000e-001 0.000000e+000 8.660254e-001
      outer loop
         vertex -7.719712e+000 1.500000e+002 1.863703e+001
         vertex -1.228029e+001 1.500000e+002 1.600398e+001
         vertex -7.719712e+000 -1.500000e+002 1.863703e+001
      endloop
   endfacet
   facet normal -5.000000e-001 0.000000e+000 8.660254e-001
      outer loop
         vertex -7.719712e+000 -1.500000e+002 1.863703e+001
         vertex -1.228029e+001 1.500000e+002 1.600398e+001
         vertex -1.228029e+001 -1.500000e+002 1.600398e+001
      endloop
   endfacet
   facet normal -2.588190e-001 0.000000e+000 9.659258e-001
      outer loop
         vertex -2.633050e+000 1.500000e+002 2.000000e+001
         vertex -7.719712e+000 1.500000e+002 1.863703e+001
         vertex -2.633050e+000 -1.500000e+002 2.000000e+001
      endloop
   endfacet
   facet normal -2.588190e-001 0.000000e+000 9.659258e-001
      outer loop
         vertex -2.633050e+000 -1.500000e+002 2.000000e+001
         vertex -7.719712e+000 1.500000e+002 1.863703e+001
         vertex -7.719712e+000 -1.500000e+002 1.863703e+001
      endloop
   endfacet
   facet normal 0.000000e+000 0.000000e+000 1.000000e+000
      outer loop
         vertex 2.633050e+000 1.500000e+002 2.000000e+001
         vertex -2.633050e+000 1.500000e+002 2.000000e+001
         vertex 2.633050e+000 -1.500000e+002 2.000000e+001
      endloop
   endfacet
   facet normal 0.000000e+000 0.000000e+000 1.000000e+000
      outer loop
         vertex 2.633050e+000 -1.500000e+002 2.000000e+001
         vertex -2.633050e+000 1.500000e+002 2.000000e+001
         vertex -2.633050e+000 -1.500000e+002 2.000000e+001
      endloop
   endfacet
   facet normal 2.588190e-001 0.000000e+000 9.659258e-001
      outer loop
         vertex 7.719712e+000 1.500000e+002 1.863703e+001
         vertex 2.633050e+000 1.500000e+002 2.000000e+001
         vertex 7.719712e+000 -1.500000e+002 1.863703e+001
      endloop
   endfacet
   facet normal 2.588190e-001 0.000000e+000 9.659258e-001
      outer loop
         vertex 7.719712e+000 -1.500000e+002 1.863703e+001
         vertex 2.633050e+000 1.500000e+002 2.000000e+001
         vertex 2.633050e+000 -1.500000e+002 2.000000e+001
      endloop
   endfacet
   facet normal 5.000000e-001 0.000000e+000 8.660254e-001
      outer loop
         vertex 1.228029e+001 1.500000e+002 1.600398e+001
         vertex 7.719712e+000 1.500000e+002 1.863703e+001
         vertex 1.228029e+001 -1.500000e+002 1.600398e+001
      endloop
   endfacet
   facet normal 5.000000e-001 0.000000e+000 8.660254e-001
      outer loop
         vertex 1.228029e+001 -1.500000e+002 1.600398e+001
         vertex 7.719712e+000 1.500000e+002 1.863703e+001
         vertex 7.719712e+000 -1.500000e+002 1.863703e+001
      endloop
   endfacet
   facet normal 7.071068e-001 0.000000e+000 7.071068e-001
      outer loop
         vertex 1.600398e+001 1.500000e+002 1.228029e+001
         vertex 1.228029e+001 1.500000e+002 1.600398e+001
         vertex 1.600398e+001 -1.500000e+002 1.228029e+001
      endloop
   endfacet
   facet normal 7.071068e-001 0.000000e+000 7.071068e-001
      outer loop
         vertex 1.600398e+001 -1.500000e+002 1.228029e+001
         vertex 1.228029e+001 1.500000e+002 1.600398e+001
         vertex 1.228029e+001 -1.500000e+002 1.600398e+001
      endloop
   endfacet
   facet normal 8.660254e-001 0.000000e+000 5.000000e-001
      outer loop
         vertex 1.863703e+001 1.500000e+002 7.719712e+000
         vertex 1.600398e+001 1.500000e+002 1.228029e+001
         vertex 1.863703e+001 -1.500000e+002 7.719712e+000
      endloop
   endfacet
   facet normal 8.660254e-001 0.000000e+000 5.000000e-001
      outer loop
         vertex 1.863703e+001 -1.500000e+002 7.719712e+000
         vertex 1.600398e+001 1.500000e+002 1.228029e+001
         vertex 1.600398e+001 -1.500000e+002 1.228029e+001
      endloop
   endfacet
   facet normal 9.659258e-001 0.000000e+000 2.588190e-001
      outer loop
         vertex 2.000000e+001 1.500000e+002 2.633050e+000
         vertex 1.863703e+001 1.500000e+002 7.719712e+000
         vertex 2.000000e+001 -1.500000e+002 2.633050e+000
      endloop
   endfacet
   facet normal 9.659258e-001 0.000000e+000 2.588190e-001
      outer loop
         vertex 2.000000e+001 -1.500000e+002 2.633050e+000
         vertex 1.863703e+001 1.500000e+002 7.719712e+000
         vertex 1.863703e+001 -1.500000e+002 7.719712e+000
      endloop
   endfacet
   facet normal 1.000000e+000 0.000000e+000 0.000000e+000
      outer loop
         vertex 2.000000e+001 1.500000e+002 -2.633050e+000
         vertex 2.000000e+001 1.500000e+002 2.633050e+000
         vertex 2.000000e+001 -1.500000e+002 -2.633050e+000
      endloop
   endfacet
   facet normal 1.000000e+000 0.000000e+000 0.000000e+000
      outer loop
         vertex 2.000000e+001 -1.500000e+002 -2.633050e+000
         vertex 2.000000e+001 1.500000e+002 2.633050e+000
         vertex 2.000000e+001 -1.500000e+002 2.633050e+000
      endloop
   endfacet
   facet normal 9.659258e-001 0.000000e+000 -2.588190e-001
      outer loop
         vertex 1.863703e+001 1.500000e+002 -7.719712e+000
         vertex 2.000000e+001 1.500000e+002 -2.633050e+000
         vertex 1.863703e+001 -1.500000e+002 -7.719712e+000
      endloop
   endfacet
   facet normal 9.659258e-001 0.000000e+000 -2.588190e-001
      outer loop
         vertex 1.863703e+001 -1.500000e+002 -7.719712e+000
         vertex 2.000000e+001 1.500000e+002 -2.633050e+000
         vertex 2.000000e+001 -1.500000e+002 -2.633050e+000
      endloop
   endfacet
   facet normal 8.660254e-001 0.000000e+000 -5.000000e-001
      outer loop
         vertex 1.600398e+001 1.500000e+002 -1.228029e+001
         vertex 1.863703e+001 1.500000e+002 -7.719712e+000
         vertex 1.600398e+001 -1.500000e+002 -1.228029e+001
      endloop
   endfacet
   facet normal 8.660254e-001 0.000000e+000 -5.000000e-001
      outer loop
         vertex 1.600398e+001 -1.500000e+002 -1.228029e+001
         vertex 1.863703e+001 1.500000e+002 -7.719712e+000
         vertex 1.863703e+001 -1.500000e+002 -7.719712e+000
      endloop
   endfacet
   facet normal 7.071068e-001 0.000000e+000 -7.071068e-001
      outer loop
         vertex 1.228029e+001 1.500000e+002 -1.600398e+001
         vertex 1.600398e+001 1.500000e+002 -1.228029e+001
         vertex 1.228029e+001 -1.500000e+002 -1.600398e+001
      endloop
   endfacet
   facet normal 7.071068e-001 0.000000e+000 -7.071068e-001
      outer loop
         vertex 1.228029e+001 -1.500000e+002 -1.600398e+001
         vertex 1.600398e+001 1.500000e+002 -1.228029e+001
         vertex 1.600398e+001 -1.500000e+002 -1.228029e+001
      endloop
   endfacet
   facet normal 0.000000e+000 -1.000000e+000 0.000000e+000
      outer loop
         vertex -7.719712e+000 -1.500000e+002 -1.863703e+001
         vertex -2.633050e+000 -1.500000e+002 -2.000000e+001
         vertex -1.600398e+001 -1.500000e+002 -1.228029e+001
      endloop
   endfacet
   facet normal 0.000000e+000 -1.000000e+000 0.000000e+000
      outer loop
         vertex -1.600398e+001 -1.500000e+002 -1.228029e+001
         vertex -2.633050e+000 -1.500000e+002 -2.000000e+001
         vertex 7.719712e+000 -1.500000e+002 -1.863703e+001
      endloop
   endfacet
   facet normal 0.000000e+000 -1.000000e+000 0.000000e+000
      outer loop
         vertex -1.600398e+001 -1.500000e+002 -1.228029e+001
         vertex 7.719712e+000 -1.500000e+002 -1.863703e+001
         vertex -1.863703e+001 -1.500000e+002 -7.719712e+000
      endloop
   endfacet
   facet normal 0.000000e+000 -1.000000e+000 0.000000e+000
      outer loop
         vertex -1.863703e+001 -1.500000e+002 -7.719712e+000
         vertex 7.719712e+000 -1.500000e+002 -1.863703e+001
         vertex -2.000000e+001 -1.500000e+002 2.633050e+000
      endloop
   endfacet
   facet normal 0.000000e+000 -1.000000e+000 0.000000e+000
      outer loop
         vertex -1.863703e+001 -1.500000e+002 -7.719712e+000
         vertex -2.000000e+001 -1.500000e+002 2.633050e+000
         vertex -2.000000e+001 -1.500000e+002 -2.633050e+000
      endloop
   endfacet
   facet normal 0.000000e+000 -1.000000e+000 0.000000e+000
      outer loop
         vertex 2.633050e+000 -1.500000e+002 2.000000e+001
         vertex -2.633050e+000 -1.500000e+002 2.000000e+001
         vertex 7.719712e+000 -1.500000e+002 1.863703e+001
      endloop
   endfacet
   facet normal 0.000000e+000 -1.000000e+000 0.000000e+000
      outer loop
         vertex 7.719712e+000 -1.500000e+002 1.863703e+001
         vertex -2.633050e+000 -1.500000e+002 2.000000e+001
         vertex -7.719712e+000 -1.500000e+002 1.863703e+001
      endloop
   endfacet
   facet normal 0.000000e+000 -1.000000e+000 0.000000e+000
      outer loop
         vertex 7.719712e+000 -1.500000e+002 1.863703e+001
         vertex -7.719712e+000 -1.500000e+002 1.863703e+001
         vertex 1.228029e+001 -1.500000e+002 1.600398e+001
      endloop
   endfacet
   facet normal 0.000000e+000 -1.000000e+000 0.000000e+000
      outer loop
         vertex 1.228029e+001 -1.500000e+002 1.600398e+001
         vertex -7.719712e+000 -1.500000e+002 1.863703e+001
         vertex 1.863703e+001 -1.500000e+002 7.719712e+000
      endloop
   endfacet
   facet normal 0.000000e+000 -1.000000e+000 0.000000e+000
      outer loop
         vertex 1.228029e+001 -1.500000e+002 1.600398e+001
         vertex 1.863703e+001 -1.500000e+002 7.719712e+000
         vertex 1.600398e+001 -1.500000e+002 1.228029e+001
      endloop
   endfacet
   facet normal 0.000000e+000 -1.000000e+000 0.000000e+000
      outer loop
         vertex 2.000000e+001 -1.500000e+002 2.633050e+000
         vertex 1.863703e+001 -1.500000e+002 7.719712e+000
         vertex 2.000000e+001 -1.500000e+002 -2.633050e+000
      endloop
   endfacet
   facet normal 0.000000e+000 -1.000000e+000 0.000000e+000
      outer loop
         vertex 2.000000e+001 -1.500000e+002 -2.633050e+000
         vertex 1.863703e+001 -1.500000e+002 7.719712e+000
         vertex -1.600398e+001 -1.500000e+002 1.228029e+001
      endloop
   endfacet
   facet normal 0.000000e+000 -1.000000e+000 0.000000e+000
      outer loop
         vertex 2.000000e+001 -1.500000e+002 -2.633050e+000
         vertex -1.600398e+001 -1.500000e+002 1.228029e+001
         vertex 1.863703e+001 -1.500000e+002 -7.719712e+000
      endloop
   endfacet
   facet normal 0.000000e+000 -1.000000e+000 0.000000e+000
      outer loop
         vertex 1.863703e+001 -1.500000e+002 -7.719712e+000
         vertex -1.600398e+001 -1.500000e+002 1.228029e+001
         vertex 1.600398e+001 -1.500000e+002 -1.228029e+001
      endloop
   endfacet
   facet normal 0.000000e+000 -1.000000e+000 0.000000e+000
      outer loop
         vertex 1.600398e+001 -1.500000e+002 -1.228029e+001
         vertex -1.600398e+001 -1.500000e+002 1.228029e+001
         vertex 7.719712e+000 -1.500000e+002 -1.863703e+001
      endloop
   endfacet
   facet normal 0.000000e+000 -1.000000e+000 0.000000e+000
      outer loop
         vertex 7.719712e+000 -1.500000e+002 -1.863703e+001
         vertex -1.600398e+001 -1.500000e+002 1.228029e+001
         vertex -1.863703e+001 -1.500000e+002 7.719712e+000
      endloop
   endfacet
   facet normal 0.000000e+000 -1.000000e+000 0.000000e+000
      outer loop
         vertex 7.719712e+000 -1.500000e+002 -1.863703e+001
         vertex -1.863703e+001 -1.500000e+002 7.719712e+000
         vertex -2.000000e+001 -1.500000e+002 2.633050e+000
      endloop
   endfacet
   facet normal 0.000000e+000 -1.000000e+000 0.000000e+000
      outer loop
         vertex -1.228029e+001 -1.500000e+002 1.600398e+001
         vertex -1.600398e+001 -1.500000e+002 1.228029e+001
         vertex -7.719712e+000 -1.500000e+002 1.863703e+001
      endloop
   endfacet
   facet normal 0.000000e+000 -1.000000e+000 0.000000e+000
      outer loop
         vertex -7.719712e+000 -1.500000e+002 1.863703e+001
         vertex -1.600398e+001 -1.500000e+002 1.228029e+001
         vertex 1.863703e+001 -1.500000e+002 7.719712e+000
      endloop
   endfacet
   facet normal 0.000000e+000 -1.000000e+000 0.000000e+000
      outer loop
         vertex -1.600398e+001 -1.500000e+002 -1.228029e+001
         vertex -1.228029e+001 -1.500000e+002 -1.600398e+001
         vertex -7.719712e+000 -1.500000e+002 -1.863703e+001
      endloop
   endfacet
   facet normal 0.000000e+000 -1.000000e+000 0.000000e+000
      outer loop
         vertex -2.633050e+000 -1.500000e+002 -2.000000e+001
         vertex 2.633050e+000 -1.500000e+002 -2.000000e+001
         vertex 7.719712e+000 -1.500000e+002 -1.863703e+001
      endloop
   endfacet
   facet normal 0.000000e+000 -1.000000e+000 0.000000e+000
      outer loop
         vertex 7.719712e+000 -1.500000e+002 -1.863703e+001
         vertex 1.228029e+001 -1.500000e+002 -1.600398e+001
         vertex 1.600398e+001 -1.500000e+002 -1.228029e+001
      endloop
   endfacet
   facet normal -5.270613e-016 6.000000e-001 -8.000000e-001
      outer loop
         vertex 6.582625e-001 1.700000e+002 -5.000000e+000
         vertex 2.633050e+000 1.500000e+002 -2.000000e+001
         vertex -6.582625e-001 1.700000e+002 -5.000000e+000
      endloop
   endfacet
   facet normal -5.270613e-016 6.000000e-001 -8.000000e-001
      outer loop
         vertex -6.582625e-001 1.700000e+002 -5.000000e+000
         vertex 2.633050e+000 1.500000e+002 -2.000000e+001
         vertex -2.633050e+000 1.500000e+002 -2.000000e+001
      endloop
   endfacet
   facet normal 2.070552e-001 6.000000e-001 -7.727406e-001
      outer loop
         vertex 1.929928e+000 1.700000e+002 -4.659258e+000
         vertex 7.719712e+000 1.500000e+002 -1.863703e+001
         vertex 6.582625e-001 1.700000e+002 -5.000000e+000
      endloop
   endfacet
   facet normal 2.070552e-001 6.000000e-001 -7.727406e-001
      outer loop
         vertex 6.582625e-001 1.700000e+002 -5.000000e+000
         vertex 7.719712e+000 1.500000e+002 -1.863703e+001
         vertex 2.633050e+000 1.500000e+002 -2.000000e+001
      endloop
   endfacet
   facet normal -2.070552e-001 6.000000e-001 -7.727406e-001
      outer loop
         vertex -6.582625e-001 1.700000e+002 -5.000000e+000
         vertex -2.633050e+000 1.500000e+002 -2.000000e+001
         vertex -1.929928e+000 1.700000e+002 -4.659258e+000
      endloop
   endfacet
   facet normal -2.070552e-001 6.000000e-001 -7.727406e-001
      outer loop
         vertex -1.929928e+000 1.700000e+002 -4.659258e+000
         vertex -2.633050e+000 1.500000e+002 -2.000000e+001
         vertex -7.719712e+000 1.500000e+002 -1.863703e+001
      endloop
   endfacet
   facet normal 4.000000e-001 6.000000e-001 -6.928203e-001
      outer loop
         vertex 3.070072e+000 1.700000e+002 -4.000996e+000
         vertex 1.228029e+001 1.500000e+002 -1.600398e+001
         vertex 1.929928e+000 1.700000e+002 -4.659258e+000
      endloop
   endfacet
   facet normal 4.000000e-001 6.000000e-001 -6.928203e-001
      outer loop
         vertex 1.929928e+000 1.700000e+002 -4.659258e+000
         vertex 1.228029e+001 1.500000e+002 -1.600398e+001
         vertex 7.719712e+000 1.500000e+002 -1.863703e+001
      endloop
   endfacet
   facet normal -4.000000e-001 6.000000e-001 -6.928203e-001
      outer loop
         vertex -1.929928e+000 1.700000e+002 -4.659258e+000
         vertex -7.719712e+000 1.500000e+002 -1.863703e+001
         vertex -3.070072e+000 1.700000e+002 -4.000996e+000
      endloop
   endfacet
   facet normal -4.000000e-001 6.000000e-001 -6.928203e-001
      outer loop
         vertex -3.070072e+000 1.700000e+002 -4.000996e+000
         vertex -7.719712e+000 1.500000e+002 -1.863703e+001
         vertex -1.228029e+001 1.500000e+002 -1.600398e+001
      endloop
   endfacet
   facet normal 5.656855e-001 6.000000e-001 -5.656854e-001
      outer loop
         vertex 4.000996e+000 1.700000e+002 -3.070072e+000
         vertex 1.600398e+001 1.500000e+002 -1.228029e+001
         vertex 3.070072e+000 1.700000e+002 -4.000996e+000
      endloop
   endfacet
   facet normal 5.656855e-001 6.000000e-001 -5.656854e-001
      outer loop
         vertex 3.070072e+000 1.700000e+002 -4.000996e+000
         vertex 1.600398e+001 1.500000e+002 -1.228029e+001
         vertex 1.228029e+001 1.500000e+002 -1.600398e+001
      endloop
   endfacet
   facet normal -5.656855e-001 6.000000e-001 -5.656854e-001
      outer loop
         vertex -3.070072e+000 1.700000e+002 -4.000996e+000
         vertex -1.228029e+001 1.500000e+002 -1.600398e+001
         vertex -4.000996e+000 1.700000e+002 -3.070072e+000
      endloop
   endfacet
   facet normal -5.656855e-001 6.000000e-001 -5.656854e-001
      outer loop
         vertex -4.000996e+000 1.700000e+002 -3.070072e+000
         vertex -1.228029e+001 1.500000e+002 -1.600398e+001
         vertex -1.600398e+001 1.500000e+002 -1.228029e+001
      endloop
   endfacet
   facet normal 6.928203e-001 6.000000e-001 -4.000000e-001
      outer loop
         vertex 4.659258e+000 1.700000e+002 -1.929928e+000
         vertex 1.863703e+001 1.500000e+002 -7.719712e+000
         vertex 4.000996e+000 1.700000e+002 -3.070072e+000
      endloop
   endfacet
   facet normal 6.928203e-001 6.000000e-001 -4.000000e-001
      outer loop
         vertex 4.000996e+000 1.700000e+002 -3.070072e+000
         vertex 1.863703e+001 1.500000e+002 -7.719712e+000
         vertex 1.600398e+001 1.500000e+002 -1.228029e+001
      endloop
   endfacet
   facet normal -6.928203e-001 6.000000e-001 -4.000000e-001
      outer loop
         vertex -4.000996e+000 1.700000e+002 -3.070072e+000
         vertex -1.600398e+001 1.500000e+002 -1.228029e+001
         vertex -4.659258e+000 1.700000e+002 -1.929928e+000
      endloop
   endfacet
   facet normal -6.928203e-001 6.000000e-001 -4.000000e-001
      outer loop
         vertex -4.659258e+000 1.700000e+002 -1.929928e+000
         vertex -1.600398e+001 1.500000e+002 -1.228029e+001
         vertex -1.863703e+001 1.500000e+002 -7.719712e+000
      endloop
   endfacet
   facet normal 7.727407e-001 6.000000e-001 -2.070552e-001
      outer loop
         vertex 5.000000e+000 1.700000e+002 -6.582625e-001
         vertex 2.000000e+001 1.500000e+002 -2.633050e+000
         vertex 4.659258e+000 1.700000e+002 -1.929928e+000
      endloop
   endfacet
   facet normal 7.727407e-001 6.000000e-001 -2.070552e-001
      outer loop
         vertex 4.659258e+000 1.700000e+002 -1.929928e+000
         vertex 2.000000e+001 1.500000e+002 -2.633050e+000
         vertex 1.863703e+001 1.500000e+002 -7.719712e+000
      endloop
   endfacet
   facet normal -7.727407e-001 6.000000e-001 -2.070552e-001
      outer loop
         vertex -4.659258e+000 1.700000e+002 -1.929928e+000
         vertex -1.863703e+001 1.500000e+002 -7.719712e+000
         vertex -5.000000e+000 1.700000e+002 -6.582625e-001
      endloop
   endfacet
   facet normal -7.727407e-001 6.000000e-001 -2.070552e-001
      outer loop
         vertex -5.000000e+000 1.700000e+002 -6.582625e-001
         vertex -1.863703e+001 1.500000e+002 -7.719712e+000
         vertex -2.000000e+001 1.500000e+002 -2.633050e+000
      endloop
   endfacet
   facet normal 8.000000e-001 6.000000e-001 -5.270613e-016
      outer loop
         vertex 5.000000e+000 1.700000e+002 6.582625e-001
         vertex 2.000000e+001 1.500000e+002 2.633050e+000
         vertex 5.000000e+000 1.700000e+002 -6.582625e-001
      endloop
   endfacet
   facet normal 8.000000e-001 6.000000e-001 -5.270613e-016
      outer loop
         vertex 5.000000e+000 1.700000e+002 -6.582625e-001
         vertex 2.000000e+001 1.500000e+002 2.633050e+000
         vertex 2.000000e+001 1.500000e+002 -2.633050e+000
      endloop
   endfacet
   facet normal -8.000000e-001 6.000000e-001 0.000000e+000
      outer loop
         vertex -5.000000e+000 1.700000e+002 -6.582625e-001
         vertex -2.000000e+001 1.500000e+002 -2.633050e+000
         vertex -5.000000e+000 1.700000e+002 6.582625e-001
      endloop
   endfacet
   facet normal -8.000000e-001 6.000000e-001 0.000000e+000
      outer loop
         vertex -5.000000e+000 1.700000e+002 6.582625e-001
         vertex -2.000000e+001 1.500000e+002 -2.633050e+000
         vertex -2.000000e+001 1.500000e+002 2.633050e+000
      endloop
   endfacet
   facet normal 7.727407e-001 6.000000e-001 2.070552e-001
      outer loop
         vertex 4.659258e+000 1.700000e+002 1.929928e+000
         vertex 1.863703e+001 1.500000e+002 7.719712e+000
         vertex 5.000000e+000 1.700000e+002 6.582625e-001
      endloop
   endfacet
   facet normal 7.727407e-001 6.000000e-001 2.070552e-001
      outer loop
         vertex 5.000000e+000 1.700000e+002 6.582625e-001
         vertex 1.863703e+001 1.500000e+002 7.719712e+000
         vertex 2.000000e+001 1.500000e+002 2.633050e+000
      endloop
   endfacet
   facet normal -7.727407e-001 6.000000e-001 2.070552e-001
      outer loop
         vertex -5.000000e+000 1.700000e+002 6.582625e-001
         vertex -2.000000e+001 1.500000e+002 2.633050e+000
         vertex -4.659258e+000 1.700000e+002 1.929928e+000
      endloop
   endfacet
   facet normal -7.727407e-001 6.000000e-001 2.070552e-001
      outer loop
         vertex -4.659258e+000 1.700000e+002 1.929928e+000
         vertex -2.000000e+001 1.500000e+002 2.633050e+000
         vertex -1.863703e+001 1.500000e+002 7.719712e+000
      endloop
   endfacet
   facet normal 6.928203e-001 6.000000e-001 4.000000e-001
      outer loop
         vertex 4.000996e+000 1.700000e+002 3.070072e+000
         vertex 1.600398e+001 1.500000e+002 1.228029e+001
         vertex 4.659258e+000 1.700000e+002 1.929928e+000
      endloop
   endfacet
   facet normal 6.928203e-001 6.000000e-001 4.000000e-001
      outer loop
         vertex 4.659258e+000 1.700000e+002 1.929928e+000
         vertex 1.600398e+001 1.500000e+002 1.228029e+001
         vertex 1.863703e+001 1.500000e+002 7.719712e+000
      endloop
   endfacet
   facet normal -6.928203e-001 6.000000e-001 4.000000e-001
      outer loop
         vertex -4.659258e+000 1.700000e+002 1.929928e+000
         vertex -1.863703e+001 1.500000e+002 7.719712e+000
         vertex -4.000996e+000 1.700000e+002 3.070072e+000
      endloop
   endfacet
   facet normal -6.928203e-001 6.000000e-001 4.000000e-001
      outer loop
         vertex -4.000996e+000 1.700000e+002 3.070072e+000
         vertex -1.863703e+001 1.500000e+002 7.719712e+000
         vertex -1.600398e+001 1.500000e+002 1.228029e+001
      endloop
   endfacet
   facet normal 5.656855e-001 6.000000e-001 5.656854e-001
      outer loop
         vertex 3.070072e+000 1.700000e+002 4.000996e+000
         vertex 1.228029e+001 1.500000e+002 1.600398e+001
         vertex 4.000996e+000 1.700000e+002 3.070072e+000
      endloop
   endfacet
   facet normal 5.656855e-001 6.000000e-001 5.656854e-001
      outer loop
         vertex 4.000996e+000 1.700000e+002 3.070072e+000
         vertex 1.228029e+001 1.500000e+002 1.600398e+001
         vertex 1.600398e+001 1.500000e+002 1.228029e+001
      endloop
   endfacet
   facet normal -5.656855e-001 6.000000e-001 5.656854e-001
      outer loop
         vertex -4.000996e+000 1.700000e+002 3.070072e+000
         vertex -1.600398e+001 1.500000e+002 1.228029e+001
         vertex -3.070072e+000 1.700000e+002 4.000996e+000
      endloop
   endfacet
   facet normal -5.656855e-001 6.000000e-001 5.656854e-001
      outer loop
         vertex -3.070072e+000 1.700000e+002 4.000996e+000
         vertex -1.600398e+001 1.500000e+002 1.228029e+001
         vertex -1.228029e+001 1.500000e+002 1.600398e+001
      endloop
   endfacet
   facet normal 4.000000e-001 6.000000e-001 6.928203e-001
      outer loop
         vertex 1.929928e+000 1.700000e+002 4.659258e+000
         vertex 7.719712e+000 1.500000e+002 1.863703e+001
         vertex 3.070072e+000 1.700000e+002 4.000996e+000
      endloop
   endfacet
   facet normal 4.000000e-001 6.000000e-001 6.928203e-001
      outer loop
         vertex 3.070072e+000 1.700000e+002 4.000996e+000
         vertex 7.719712e+000 1.500000e+002 1.863703e+001
         vertex 1.228029e+001 1.500000e+002 1.600398e+001
      endloop
   endfacet
   facet normal -4.000000e-001 6.000000e-001 6.928203e-001
      outer loop
         vertex -3.070072e+000 1.700000e+002 4.000996e+000
         vertex -1.228029e+001 1.500000e+002 1.600398e+001
         vertex -1.929928e+000 1.700000e+002 4.659258e+000
      endloop
   endfacet
   facet normal -4.000000e-001 6.000000e-001 6.928203e-001
      outer loop
         vertex -1.929928e+000 1.700000e+002 4.659258e+000
         vertex -1.228029e+001 1.500000e+002 1.600398e+001
         vertex -7.719712e+000 1.500000e+002 1.863703e+001
      endloop
   endfacet
   facet normal 2.070552e-001 6.000000e-001 7.727406e-001
      outer loop
         vertex 6.582625e-001 1.700000e+002 5.000000e+000
         vertex 2.633050e+000 1.500000e+002 2.000000e+001
         vertex 1.929928e+000 1.700000e+002 4.659258e+000
      endloop
   endfacet
   facet normal 2.070552e-001 6.000000e-001 7.727406e-001
      outer loop
         vertex 1.929928e+000 1.700000e+002 4.659258e+000
         vertex 2.633050e+000 1.500000e+002 2.000000e+001
         vertex 7.719712e+000 1.500000e+002 1.863703e+001
      endloop
   endfacet
   facet normal -2.070552e-001 6.000000e-001 7.727406e-001
      outer loop
         vertex -1.929928e+000 1.700000e+002 4.659258e+000
         vertex -7.719712e+000 1.500000e+002 1.863703e+001
         vertex -6.582625e-001 1.700000e+002 5.000000e+000
      endloop
   endfacet
   facet normal -2.070552e-001 6.000000e-001 7.727406e-001
      outer loop
         vertex -6.582625e-001 1.700000e+002 5.000000e+000
         vertex -7.719712e+000 1.500000e+002 1.863703e+001
         vertex -2.633050e+000 1.500000e+002 2.000000e+001
      endloop
   endfacet
   facet normal 0.000000e+000 6.000000e-001 8.000000e-001
      outer loop
         vertex -6.582625e-001 1.700000e+002 5.000000e+000
         vertex -2.633050e+000 1.500000e+002 2.000000e+001
         vertex 6.582625e-001 1.700000e+002 5.000000e+000
      endloop
   endfacet
   facet normal 0.000000e+000 6.000000e-001 8.000000e-001
      outer loop
         vertex 6.582625e-001 1.700000e+002 5.000000e+000
         vertex -2.633050e+000 1.500000e+002 2.000000e+001
         vertex 2.633050e+000 1.500000e+002 2.000000e+001
      endloop
   endfacet
   facet normal 2.588190e-001 -9.659258e-001 0.000000e+000
      outer loop
         vertex 2.456058e+000 1.792701e+002 3.200797e+000
         vertex 4.245842e+000 1.797496e+002 6.000000e+000
         vertex 1.543942e+000 1.790257e+002 3.727407e+000
      endloop
   endfacet
   facet normal 2.588190e-001 -9.659258e-001 0.000000e+000
      outer loop
         vertex 1.543942e+000 1.790257e+002 3.727407e+000
         vertex 4.245842e+000 1.797496e+002 6.000000e+000
         vertex 1.448177e+000 1.790000e+002 6.000000e+000
      endloop
   endfacet
   facet normal 2.588190e-001 -9.659258e-001 0.000000e+000
      outer loop
         vertex 1.543942e+000 1.790257e+002 3.727407e+000
         vertex 1.448177e+000 1.790000e+002 6.000000e+000
         vertex 1.448177e+000 1.790000e+002 3.753067e+000
      endloop
   endfacet
   facet normal 2.588190e-001 -9.659258e-001 0.000000e+000
      outer loop
         vertex 3.727407e+000 1.796107e+002 -1.543942e+000
         vertex 3.200797e+000 1.794696e+002 -2.456058e+000
         vertex 4.245842e+000 1.797496e+002 -6.000000e+000
      endloop
   endfacet
   facet normal 2.588190e-001 -9.659258e-001 0.000000e+000
      outer loop
         vertex 4.245842e+000 1.797496e+002 -6.000000e+000
         vertex 3.200797e+000 1.794696e+002 -2.456058e+000
         vertex 2.456058e+000 1.792701e+002 -3.200797e+000
      endloop
   endfacet
   facet normal 2.588190e-001 -9.659258e-001 0.000000e+000
      outer loop
         vertex 4.245842e+000 1.797496e+002 -6.000000e+000
         vertex 2.456058e+000 1.792701e+002 -3.200797e+000
         vertex 1.448177e+000 1.790000e+002 -6.000000e+000
      endloop
   endfacet
   facet normal 2.588190e-001 -9.659258e-001 0.000000e+000
      outer loop
         vertex 1.448177e+000 1.790000e+002 -6.000000e+000
         vertex 2.456058e+000 1.792701e+002 -3.200797e+000
         vertex 1.543942e+000 1.790257e+002 -3.727407e+000
      endloop
   endfacet
   facet normal 2.588190e-001 -9.659258e-001 0.000000e+000
      outer loop
         vertex 1.448177e+000 1.790000e+002 -6.000000e+000
         vertex 1.543942e+000 1.790257e+002 -3.727407e+000
         vertex 1.448177e+000 1.790000e+002 -3.753067e+000
      endloop
   endfacet
   facet normal 2.588190e-001 -9.659258e-001 0.000000e+000
      outer loop
         vertex 2.456058e+000 1.792701e+002 3.200797e+000
         vertex 3.200797e+000 1.794696e+002 2.456058e+000
         vertex 4.245842e+000 1.797496e+002 6.000000e+000
      endloop
   endfacet
   facet normal 2.588190e-001 -9.659258e-001 0.000000e+000
      outer loop
         vertex 4.245842e+000 1.797496e+002 6.000000e+000
         vertex 3.200797e+000 1.794696e+002 2.456058e+000
         vertex 3.727407e+000 1.796107e+002 1.543942e+000
      endloop
   endfacet
   facet normal 2.588190e-001 -9.659258e-001 0.000000e+000
      outer loop
         vertex 4.245842e+000 1.797496e+002 6.000000e+000
         vertex 3.727407e+000 1.796107e+002 1.543942e+000
         vertex 4.000000e+000 1.796838e+002 5.266100e-001
      endloop
   endfacet
   facet normal 2.588190e-001 -9.659258e-001 0.000000e+000
      outer loop
         vertex 4.245842e+000 1.797496e+002 6.000000e+000
         vertex 4.000000e+000 1.796838e+002 5.266100e-001
         vertex 4.245842e+000 1.797496e+002 -6.000000e+000
      endloop
   endfacet
   facet normal 2.588190e-001 -9.659258e-001 0.000000e+000
      outer loop
         vertex 4.245842e+000 1.797496e+002 -6.000000e+000
         vertex 4.000000e+000 1.796838e+002 5.266100e-001
         vertex 4.000000e+000 1.796838e+002 -5.266100e-001
      endloop
   endfacet
   facet normal 2.588190e-001 -9.659258e-001 0.000000e+000
      outer loop
         vertex 4.245842e+000 1.797496e+002 -6.000000e+000
         vertex 4.000000e+000 1.796838e+002 -5.266100e-001
         vertex 3.727407e+000 1.796107e+002 -1.543942e+000
      endloop
   endfacet
   facet normal -2.588190e-001 -9.659258e-001 0.000000e+000
      outer loop
         vertex -2.456058e+000 1.792701e+002 -3.200797e+000
         vertex -4.245842e+000 1.797496e+002 -6.000000e+000
         vertex -1.543942e+000 1.790257e+002 -3.727407e+000
      endloop
   endfacet
   facet normal -2.588190e-001 -9.659258e-001 0.000000e+000
      outer loop
         vertex -1.543942e+000 1.790257e+002 -3.727407e+000
         vertex -4.245842e+000 1.797496e+002 -6.000000e+000
         vertex -1.448177e+000 1.790000e+002 -6.000000e+000
      endloop
   endfacet
   facet normal -2.588190e-001 -9.659258e-001 0.000000e+000
      outer loop
         vertex -1.543942e+000 1.790257e+002 -3.727407e+000
         vertex -1.448177e+000 1.790000e+002 -6.000000e+000
         vertex -1.448177e+000 1.790000e+002 -3.753067e+000
      endloop
   endfacet
   facet normal -2.588190e-001 -9.659258e-001 0.000000e+000
      outer loop
         vertex -3.727407e+000 1.796107e+002 1.543942e+000
         vertex -3.200797e+000 1.794696e+002 2.456058e+000
         vertex -4.245842e+000 1.797496e+002 6.000000e+000
      endloop
   endfacet
   facet normal -2.588190e-001 -9.659258e-001 0.000000e+000
      outer loop
         vertex -4.245842e+000 1.797496e+002 6.000000e+000
         vertex -3.200797e+000 1.794696e+002 2.456058e+000
         vertex -2.456058e+000 1.792701e+002 3.200797e+000
      endloop
   endfacet
   facet normal -2.588190e-001 -9.659258e-001 0.000000e+000
      outer loop
         vertex -4.245842e+000 1.797496e+002 6.000000e+000
         vertex -2.456058e+000 1.792701e+002 3.200797e+000
         vertex -1.448177e+000 1.790000e+002 6.000000e+000
      endloop
   endfacet
   facet normal -2.588190e-001 -9.659258e-001 0.000000e+000
      outer loop
         vertex -1.448177e+000 1.790000e+002 6.000000e+000
         vertex -2.456058e+000 1.792701e+002 3.200797e+000
         vertex -1.543942e+000 1.790257e+002 3.727407e+000
      endloop
   endfacet
   facet normal -2.588190e-001 -9.659258e-001 0.000000e+000
      outer loop
         vertex -1.448177e+000 1.790000e+002 6.000000e+000
         vertex -1.543942e+000 1.790257e+002 3.727407e+000
         vertex -1.448177e+000 1.790000e+002 3.753067e+000
      endloop
   endfacet
   facet normal -2.588190e-001 -9.659258e-001 0.000000e+000
      outer loop
         vertex -2.456058e+000 1.792701e+002 -3.200797e+000
         vertex -3.200797e+000 1.794696e+002 -2.456058e+000
         vertex -4.245842e+000 1.797496e+002 -6.000000e+000
      endloop
   endfacet
   facet normal -2.588190e-001 -9.659258e-001 0.000000e+000
      outer loop
         vertex -4.245842e+000 1.797496e+002 -6.000000e+000
         vertex -3.200797e+000 1.794696e+002 -2.456058e+000
         vertex -3.727407e+000 1.796107e+002 -1.543942e+000
      endloop
   endfacet
   facet normal -2.588190e-001 -9.659258e-001 0.000000e+000
      outer loop
         vertex -4.245842e+000 1.797496e+002 -6.000000e+000
         vertex -3.727407e+000 1.796107e+002 -1.543942e+000
         vertex -4.000000e+000 1.796838e+002 -5.266100e-001
      endloop
   endfacet
   facet normal -2.588190e-001 -9.659258e-001 0.000000e+000
      outer loop
         vertex -4.245842e+000 1.797496e+002 -6.000000e+000
         vertex -4.000000e+000 1.796838e+002 -5.266100e-001
         vertex -4.245842e+000 1.797496e+002 6.000000e+000
      endloop
   endfacet
   facet normal -2.588190e-001 -9.659258e-001 0.000000e+000
      outer loop
         vertex -4.245842e+000 1.797496e+002 6.000000e+000
         vertex -4.000000e+000 1.796838e+002 -5.266100e-001
         vertex -4.000000e+000 1.796838e+002 5.266100e-001
      endloop
   endfacet
   facet normal -2.588190e-001 -9.659258e-001 0.000000e+000
      outer loop
         vertex -4.245842e+000 1.797496e+002 6.000000e+000
         vertex -4.000000e+000 1.796838e+002 5.266100e-001
         vertex -3.727407e+000 1.796107e+002 1.543942e+000
      endloop
   endfacet
   facet normal 9.582933e-015 -1.000000e+000 0.000000e+000
      outer loop
         vertex 5.266100e-001 1.790000e+002 4.000000e+000
         vertex 1.448177e+000 1.790000e+002 6.000000e+000
         vertex -5.266100e-001 1.790000e+002 4.000000e+000
      endloop
   endfacet
   facet normal 9.582933e-015 -1.000000e+000 0.000000e+000
      outer loop
         vertex -5.266100e-001 1.790000e+002 4.000000e+000
         vertex 1.448177e+000 1.790000e+002 6.000000e+000
         vertex -1.448177e+000 1.790000e+002 6.000000e+000
      endloop
   endfacet
   facet normal 9.582933e-015 -1.000000e+000 0.000000e+000
      outer loop
         vertex -5.266100e-001 1.790000e+002 4.000000e+000
         vertex -1.448177e+000 1.790000e+002 6.000000e+000
         vertex -1.448177e+000 1.790000e+002 3.753067e+000
      endloop
   endfacet
   facet normal 9.582933e-015 -1.000000e+000 0.000000e+000
      outer loop
         vertex 5.266100e-001 1.790000e+002 4.000000e+000
         vertex 1.448177e+000 1.790000e+002 3.753067e+000
         vertex 1.448177e+000 1.790000e+002 6.000000e+000
      endloop
   endfacet
   facet normal 9.582933e-015 -1.000000e+000 0.000000e+000
      outer loop
         vertex -5.266100e-001 1.790000e+002 -4.000000e+000
         vertex -1.448177e+000 1.790000e+002 -6.000000e+000
         vertex 5.266100e-001 1.790000e+002 -4.000000e+000
      endloop
   endfacet
   facet normal 9.582933e-015 -1.000000e+000 0.000000e+000
      outer loop
         vertex 5.266100e-001 1.790000e+002 -4.000000e+000
         vertex -1.448177e+000 1.790000e+002 -6.000000e+000
         vertex 1.448177e+000 1.790000e+002 -6.000000e+000
      endloop
   endfacet
   facet normal 9.582933e-015 -1.000000e+000 0.000000e+000
      outer loop
         vertex 5.266100e-001 1.790000e+002 -4.000000e+000
         vertex 1.448177e+000 1.790000e+002 -6.000000e+000
         vertex 1.448177e+000 1.790000e+002 -3.753067e+000
      endloop
   endfacet
   facet normal 9.582933e-015 -1.000000e+000 0.000000e+000
      outer loop
         vertex -5.266100e-001 1.790000e+002 -4.000000e+000
         vertex -1.448177e+000 1.790000e+002 -3.753067e+000
         vertex -1.448177e+000 1.790000e+002 -6.000000e+000
      endloop
   endfacet
   facet normal 7.071068e-001 -7.071068e-001 0.000000e+000
      outer loop
         vertex 8.802191e+000 1.832458e+002 6.000000e+000
         vertex 6.754158e+000 1.811978e+002 6.000000e+000
         vertex 8.802191e+000 1.832458e+002 -6.000000e+000
      endloop
   endfacet
   facet normal 7.071068e-001 -7.071068e-001 0.000000e+000
      outer loop
         vertex 8.802191e+000 1.832458e+002 -6.000000e+000
         vertex 6.754158e+000 1.811978e+002 6.000000e+000
         vertex 6.754158e+000 1.811978e+002 -6.000000e+000
      endloop
   endfacet
   facet normal 8.660254e-001 -5.000000e-001 0.000000e+000
      outer loop
         vertex 1.025037e+001 1.857542e+002 6.000000e+000
         vertex 8.802191e+000 1.832458e+002 6.000000e+000
         vertex 1.025037e+001 1.857542e+002 -6.000000e+000
      endloop
   endfacet
   facet normal 8.660254e-001 -5.000000e-001 0.000000e+000
      outer loop
         vertex 1.025037e+001 1.857542e+002 -6.000000e+000
         vertex 8.802191e+000 1.832458e+002 6.000000e+000
         vertex 8.802191e+000 1.832458e+002 -6.000000e+000
      endloop
   endfacet
   facet normal 9.659258e-001 -2.588190e-001 0.000000e+000
      outer loop
         vertex 1.100000e+001 1.885518e+002 6.000000e+000
         vertex 1.025037e+001 1.857542e+002 6.000000e+000
         vertex 1.100000e+001 1.885518e+002 -6.000000e+000
      endloop
   endfacet
   facet normal 9.659258e-001 -2.588190e-001 0.000000e+000
      outer loop
         vertex 1.100000e+001 1.885518e+002 -6.000000e+000
         vertex 1.025037e+001 1.857542e+002 6.000000e+000
         vertex 1.025037e+001 1.857542e+002 -6.000000e+000
      endloop
   endfacet
   facet normal 1.000000e+000 0.000000e+000 0.000000e+000
      outer loop
         vertex 1.100000e+001 1.914482e+002 6.000000e+000
         vertex 1.100000e+001 1.885518e+002 6.000000e+000
         vertex 1.100000e+001 1.914482e+002 -6.000000e+000
      endloop
   endfacet
   facet normal 1.000000e+000 0.000000e+000 0.000000e+000
      outer loop
         vertex 1.100000e+001 1.914482e+002 -6.000000e+000
         vertex 1.100000e+001 1.885518e+002 6.000000e+000
         vertex 1.100000e+001 1.885518e+002 -6.000000e+000
      endloop
   endfacet
   facet normal 9.659258e-001 2.588190e-001 0.000000e+000
      outer loop
         vertex 1.025037e+001 1.942458e+002 6.000000e+000
         vertex 1.100000e+001 1.914482e+002 6.000000e+000
         vertex 1.025037e+001 1.942458e+002 -6.000000e+000
      endloop
   endfacet
   facet normal 9.659258e-001 2.588190e-001 0.000000e+000
      outer loop
         vertex 1.025037e+001 1.942458e+002 -6.000000e+000
         vertex 1.100000e+001 1.914482e+002 6.000000e+000
         vertex 1.100000e+001 1.914482e+002 -6.000000e+000
      endloop
   endfacet
   facet normal 8.660254e-001 5.000000e-001 0.000000e+000
      outer loop
         vertex 8.802191e+000 1.967542e+002 6.000000e+000
         vertex 1.025037e+001 1.942458e+002 6.000000e+000
         vertex 8.802191e+000 1.967542e+002 -6.000000e+000
      endloop
   endfacet
   facet normal 8.660254e-001 5.000000e-001 0.000000e+000
      outer loop
         vertex 8.802191e+000 1.967542e+002 -6.000000e+000
         vertex 1.025037e+001 1.942458e+002 6.000000e+000
         vertex 1.025037e+001 1.942458e+002 -6.000000e+000
      endloop
   endfacet
   facet normal 7.071068e-001 7.071068e-001 0.000000e+000
      outer loop
         vertex 6.754158e+000 1.988022e+002 6.000000e+000
         vertex 8.802191e+000 1.967542e+002 6.000000e+000
         vertex 6.754158e+000 1.988022e+002 -6.000000e+000
      endloop
   endfacet
   facet normal 7.071068e-001 7.071068e-001 0.000000e+000
      outer loop
         vertex 6.754158e+000 1.988022e+002 -6.000000e+000
         vertex 8.802191e+000 1.967542e+002 6.000000e+000
         vertex 8.802191e+000 1.967542e+002 -6.000000e+000
      endloop
   endfacet
   facet normal 5.000000e-001 8.660254e-001 0.000000e+000
      outer loop
         vertex 4.245842e+000 2.002504e+002 6.000000e+000
         vertex 6.754158e+000 1.988022e+002 6.000000e+000
         vertex 4.245842e+000 2.002504e+002 -6.000000e+000
      endloop
   endfacet
   facet normal 5.000000e-001 8.660254e-001 0.000000e+000
      outer loop
         vertex 4.245842e+000 2.002504e+002 -6.000000e+000
         vertex 6.754158e+000 1.988022e+002 6.000000e+000
         vertex 6.754158e+000 1.988022e+002 -6.000000e+000
      endloop
   endfacet
   facet normal 2.588190e-001 9.659258e-001 0.000000e+000
      outer loop
         vertex 1.448177e+000 2.010000e+002 6.000000e+000
         vertex 4.245842e+000 2.002504e+002 6.000000e+000
         vertex 1.448177e+000 2.010000e+002 -6.000000e+000
      endloop
   endfacet
   facet normal 2.588190e-001 9.659258e-001 0.000000e+000
      outer loop
         vertex 1.448177e+000 2.010000e+002 -6.000000e+000
         vertex 4.245842e+000 2.002504e+002 6.000000e+000
         vertex 4.245842e+000 2.002504e+002 -6.000000e+000
      endloop
   endfacet
   facet normal 0.000000e+000 1.000000e+000 0.000000e+000
      outer loop
         vertex -1.448177e+000 2.010000e+002 6.000000e+000
         vertex 1.448177e+000 2.010000e+002 6.000000e+000
         vertex -1.448177e+000 2.010000e+002 -6.000000e+000
      endloop
   endfacet
   facet normal 0.000000e+000 1.000000e+000 0.000000e+000
      outer loop
         vertex -1.448177e+000 2.010000e+002 -6.000000e+000
         vertex 1.448177e+000 2.010000e+002 6.000000e+000
         vertex 1.448177e+000 2.010000e+002 -6.000000e+000
      endloop
   endfacet
   facet normal -2.588190e-001 9.659258e-001 0.000000e+000
      outer loop
         vertex -4.245842e+000 2.002504e+002 6.000000e+000
         vertex -1.448177e+000 2.010000e+002 6.000000e+000
         vertex -4.245842e+000 2.002504e+002 -6.000000e+000
      endloop
   endfacet
   facet normal -2.588190e-001 9.659258e-001 0.000000e+000
      outer loop
         vertex -4.245842e+000 2.002504e+002 -6.000000e+000
         vertex -1.448177e+000 2.010000e+002 6.000000e+000
         vertex -1.448177e+000 2.010000e+002 -6.000000e+000
      endloop
   endfacet
   facet normal -5.000000e-001 8.660254e-001 0.000000e+000
      outer loop
         vertex -6.754158e+000 1.988022e+002 6.000000e+000
         vertex -4.245842e+000 2.002504e+002 6.000000e+000
         vertex -6.754158e+000 1.988022e+002 -6.000000e+000
      endloop
   endfacet
   facet normal -5.000000e-001 8.660254e-001 0.000000e+000
      outer loop
         vertex -6.754158e+000 1.988022e+002 -6.000000e+000
         vertex -4.245842e+000 2.002504e+002 6.000000e+000
         vertex -4.245842e+000 2.002504e+002 -6.000000e+000
      endloop
   endfacet
   facet normal -7.071068e-001 7.071068e-001 0.000000e+000
      outer loop
         vertex -8.802191e+000 1.967542e+002 6.000000e+000
         vertex -6.754158e+000 1.988022e+002 6.000000e+000
         vertex -8.802191e+000 1.967542e+002 -6.000000e+000
      endloop
   endfacet
   facet normal -7.071068e-001 7.071068e-001 0.000000e+000
      outer loop
         vertex -8.802191e+000 1.967542e+002 -6.000000e+000
         vertex -6.754158e+000 1.988022e+002 6.000000e+000
         vertex -6.754158e+000 1.988022e+002 -6.000000e+000
      endloop
   endfacet
   facet normal -8.660254e-001 5.000000e-001 0.000000e+000
      outer loop
         vertex -1.025037e+001 1.942458e+002 6.000000e+000
         vertex -8.802191e+000 1.967542e+002 6.000000e+000
         vertex -1.025037e+001 1.942458e+002 -6.000000e+000
      endloop
   endfacet
   facet normal -8.660254e-001 5.000000e-001 0.000000e+000
      outer loop
         vertex -1.025037e+001 1.942458e+002 -6.000000e+000
         vertex -8.802191e+000 1.967542e+002 6.000000e+000
         vertex -8.802191e+000 1.967542e+002 -6.000000e+000
      endloop
   endfacet
   facet normal -9.659258e-001 2.588190e-001 0.000000e+000
      outer loop
         vertex -1.100000e+001 1.914482e+002 6.000000e+000
         vertex -1.025037e+001 1.942458e+002 6.000000e+000
         vertex -1.100000e+001 1.914482e+002 -6.000000e+000
      endloop
   endfacet
   facet normal -9.659258e-001 2.588190e-001 0.000000e+000
      outer loop
         vertex -1.100000e+001 1.914482e+002 -6.000000e+000
         vertex -1.025037e+001 1.942458e+002 6.000000e+000
         vertex -1.025037e+001 1.942458e+002 -6.000000e+000
      endloop
   endfacet
   facet normal -1.000000e+000 0.000000e+000 0.000000e+000
      outer loop
         vertex -1.100000e+001 1.885518e+002 6.000000e+000
         vertex -1.100000e+001 1.914482e+002 6.000000e+000
         vertex -1.100000e+001 1.885518e+002 -6.000000e+000
      endloop
   endfacet
   facet normal -1.000000e+000 0.000000e+000 0.000000e+000
      outer loop
         vertex -1.100000e+001 1.885518e+002 -6.000000e+000
         vertex -1.100000e+001 1.914482e+002 6.000000e+000
         vertex -1.100000e+001 1.914482e+002 -6.000000e+000
      endloop
   endfacet
   facet normal -9.659258e-001 -2.588190e-001 0.000000e+000
      outer loop
         vertex -1.025037e+001 1.857542e+002 6.000000e+000
         vertex -1.100000e+001 1.885518e+002 6.000000e+000
         vertex -1.025037e+001 1.857542e+002 -6.000000e+000
      endloop
   endfacet
   facet normal -9.659258e-001 -2.588190e-001 0.000000e+000
      outer loop
         vertex -1.025037e+001 1.857542e+002 -6.000000e+000
         vertex -1.100000e+001 1.885518e+002 6.000000e+000
         vertex -1.100000e+001 1.885518e+002 -6.000000e+000
      endloop
   endfacet
   facet normal -8.660254e-001 -5.000000e-001 0.000000e+000
      outer loop
         vertex -8.802191e+000 1.832458e+002 6.000000e+000
         vertex -1.025037e+001 1.857542e+002 6.000000e+000
         vertex -8.802191e+000 1.832458e+002 -6.000000e+000
      endloop
   endfacet
   facet normal -8.660254e-001 -5.000000e-001 0.000000e+000
      outer loop
         vertex -8.802191e+000 1.832458e+002 -6.000000e+000
         vertex -1.025037e+001 1.857542e+002 6.000000e+000
         vertex -1.025037e+001 1.857542e+002 -6.000000e+000
      endloop
   endfacet
   facet normal -7.071068e-001 -7.071068e-001 0.000000e+000
      outer loop
         vertex -6.754158e+000 1.811978e+002 6.000000e+000
         vertex -8.802191e+000 1.832458e+002 6.000000e+000
         vertex -6.754158e+000 1.811978e+002 -6.000000e+000
      endloop
   endfacet
   facet normal -7.071068e-001 -7.071068e-001 0.000000e+000
      outer loop
         vertex -6.754158e+000 1.811978e+002 -6.000000e+000
         vertex -8.802191e+000 1.832458e+002 6.000000e+000
         vertex -8.802191e+000 1.832458e+002 -6.000000e+000
      endloop
   endfacet
   facet normal -5.000000e-001 -8.660254e-001 0.000000e+000
      outer loop
         vertex -4.245842e+000 1.797496e+002 6.000000e+000
         vertex -6.754158e+000 1.811978e+002 6.000000e+000
         vertex -4.245842e+000 1.797496e+002 -6.000000e+000
      endloop
   endfacet
   facet normal -5.000000e-001 -8.660254e-001 0.000000e+000
      outer loop
         vertex -4.245842e+000 1.797496e+002 -6.000000e+000
         vertex -6.754158e+000 1.811978e+002 6.000000e+000
         vertex -6.754158e+000 1.811978e+002 -6.000000e+000
      endloop
   endfacet
   facet normal 5.000000e-001 -8.660254e-001 0.000000e+000
      outer loop
         vertex 6.754158e+000 1.811978e+002 6.000000e+000
         vertex 4.245842e+000 1.797496e+002 6.000000e+000
         vertex 6.754158e+000 1.811978e+002 -6.000000e+000
      endloop
   endfacet
   facet normal 5.000000e-001 -8.660254e-001 0.000000e+000
      outer loop
         vertex 6.754158e+000 1.811978e+002 -6.000000e+000
         vertex 4.245842e+000 1.797496e+002 6.000000e+000
         vertex 4.245842e+000 1.797496e+002 -6.000000e+000
      endloop
   endfacet
   facet normal 0.000000e+000 0.000000e+000 1.000000e+000
      outer loop
         vertex -4.245842e+000 2.002504e+002 6.000000e+000
         vertex -6.754158e+000 1.988022e+002 6.000000e+000
         vertex -1.448177e+000 2.010000e+002 6.000000e+000
      endloop
   endfacet
   facet normal 0.000000e+000 0.000000e+000 1.000000e+000
      outer loop
         vertex -1.448177e+000 2.010000e+002 6.000000e+000
         vertex -6.754158e+000 1.988022e+002 6.000000e+000
         vertex 6.754158e+000 1.811978e+002 6.000000e+000
      endloop
   endfacet
   facet normal 0.000000e+000 0.000000e+000 1.000000e+000
      outer loop
         vertex -1.448177e+000 2.010000e+002 6.000000e+000
         vertex 6.754158e+000 1.811978e+002 6.000000e+000
         vertex 1.448177e+000 2.010000e+002 6.000000e+000
      endloop
   endfacet
   facet normal 0.000000e+000 0.000000e+000 1.000000e+000
      outer loop
         vertex 1.448177e+000 2.010000e+002 6.000000e+000
         vertex 6.754158e+000 1.811978e+002 6.000000e+000
         vertex 4.245842e+000 2.002504e+002 6.000000e+000
      endloop
   endfacet
   facet normal 0.000000e+000 0.000000e+000 1.000000e+000
      outer loop
         vertex 1.100000e+001 1.885518e+002 6.000000e+000
         vertex 1.100000e+001 1.914482e+002 6.000000e+000
         vertex 1.025037e+001 1.857542e+002 6.000000e+000
      endloop
   endfacet
   facet normal 0.000000e+000 0.000000e+000 1.000000e+000
      outer loop
         vertex 1.025037e+001 1.857542e+002 6.000000e+000
         vertex 1.100000e+001 1.914482e+002 6.000000e+000
         vertex 1.025037e+001 1.942458e+002 6.000000e+000
      endloop
   endfacet
   facet normal 0.000000e+000 0.000000e+000 1.000000e+000
      outer loop
         vertex 1.025037e+001 1.857542e+002 6.000000e+000
         vertex 1.025037e+001 1.942458e+002 6.000000e+000
         vertex 8.802191e+000 1.832458e+002 6.000000e+000
      endloop
   endfacet
   facet normal 0.000000e+000 0.000000e+000 1.000000e+000
      outer loop
         vertex 8.802191e+000 1.832458e+002 6.000000e+000
         vertex 1.025037e+001 1.942458e+002 6.000000e+000
         vertex 6.754158e+000 1.811978e+002 6.000000e+000
      endloop
   endfacet
   facet normal 0.000000e+000 0.000000e+000 1.000000e+000
      outer loop
         vertex -6.754158e+000 1.811978e+002 6.000000e+000
         vertex -4.245842e+000 1.797496e+002 6.000000e+000
         vertex -8.802191e+000 1.832458e+002 6.000000e+000
      endloop
   endfacet
   facet normal 0.000000e+000 0.000000e+000 1.000000e+000
      outer loop
         vertex -8.802191e+000 1.832458e+002 6.000000e+000
         vertex -4.245842e+000 1.797496e+002 6.000000e+000
         vertex -6.754158e+000 1.988022e+002 6.000000e+000
      endloop
   endfacet
   facet normal 0.000000e+000 0.000000e+000 1.000000e+000
      outer loop
         vertex -8.802191e+000 1.832458e+002 6.000000e+000
         vertex -6.754158e+000 1.988022e+002 6.000000e+000
         vertex -1.025037e+001 1.857542e+002 6.000000e+000
      endloop
   endfacet
   facet normal 0.000000e+000 0.000000e+000 1.000000e+000
      outer loop
         vertex -1.025037e+001 1.857542e+002 6.000000e+000
         vertex -6.754158e+000 1.988022e+002 6.000000e+000
         vertex -8.802191e+000 1.967542e+002 6.000000e+000
      endloop
   endfacet
   facet normal 0.000000e+000 0.000000e+000 1.000000e+000
      outer loop
         vertex -1.025037e+001 1.857542e+002 6.000000e+000
         vertex -8.802191e+000 1.967542e+002 6.000000e+000
         vertex -1.025037e+001 1.942458e+002 6.000000e+000
      endloop
   endfacet
   facet normal 0.000000e+000 0.000000e+000 1.000000e+000
      outer loop
         vertex -1.100000e+001 1.914482e+002 6.000000e+000
         vertex -1.100000e+001 1.885518e+002 6.000000e+000
         vertex -1.025037e+001 1.942458e+002 6.000000e+000
      endloop
   endfacet
   facet normal 0.000000e+000 0.000000e+000 1.000000e+000
      outer loop
         vertex -1.025037e+001 1.942458e+002 6.000000e+000
         vertex -1.100000e+001 1.885518e+002 6.000000e+000
         vertex -1.025037e+001 1.857542e+002 6.000000e+000
      endloop
   endfacet
   facet normal 0.000000e+000 0.000000e+000 1.000000e+000
      outer loop
         vertex 4.245842e+000 2.002504e+002 6.000000e+000
         vertex 6.754158e+000 1.811978e+002 6.000000e+000
         vertex 6.754158e+000 1.988022e+002 6.000000e+000
      endloop
   endfacet
   facet normal 0.000000e+000 0.000000e+000 1.000000e+000
      outer loop
         vertex 6.754158e+000 1.988022e+002 6.000000e+000
         vertex 6.754158e+000 1.811978e+002 6.000000e+000
         vertex 1.025037e+001 1.942458e+002 6.000000e+000
      endloop
   endfacet
   facet normal 0.000000e+000 0.000000e+000 1.000000e+000
      outer loop
         vertex 6.754158e+000 1.988022e+002 6.000000e+000
         vertex 1.025037e+001 1.942458e+002 6.000000e+000
         vertex 8.802191e+000 1.967542e+002 6.000000e+000
      endloop
   endfacet
   facet normal 0.000000e+000 0.000000e+000 1.000000e+000
      outer loop
         vertex 4.245842e+000 1.797496e+002 6.000000e+000
         vertex 6.754158e+000 1.811978e+002 6.000000e+000
         vertex 1.448177e+000 1.790000e+002 6.000000e+000
      endloop
   endfacet
   facet normal 0.000000e+000 0.000000e+000 1.000000e+000
      outer loop
         vertex 1.448177e+000 1.790000e+002 6.000000e+000
         vertex 6.754158e+000 1.811978e+002 6.000000e+000
         vertex -6.754158e+000 1.988022e+002 6.000000e+000
      endloop
   endfacet
   facet normal 0.000000e+000 0.000000e+000 1.000000e+000
      outer loop
         vertex 1.448177e+000 1.790000e+002 6.000000e+000
         vertex -6.754158e+000 1.988022e+002 6.000000e+000
         vertex -1.448177e+000 1.790000e+002 6.000000e+000
      endloop
   endfacet
   facet normal 0.000000e+000 0.000000e+000 1.000000e+000
      outer loop
         vertex -1.448177e+000 1.790000e+002 6.000000e+000
         vertex -6.754158e+000 1.988022e+002 6.000000e+000
         vertex -4.245842e+000 1.797496e+002 6.000000e+000
      endloop
   endfacet
   facet normal 0.000000e+000 0.000000e+000 -1.000000e+000
      outer loop
         vertex -1.100000e+001 1.914482e+002 -6.000000e+000
         vertex -1.025037e+001 1.942458e+002 -6.000000e+000
         vertex -1.025037e+001 1.857542e+002 -6.000000e+000
      endloop
   endfacet
   facet normal 0.000000e+000 0.000000e+000 -1.000000e+000
      outer loop
         vertex -1.025037e+001 1.857542e+002 -6.000000e+000
         vertex -1.025037e+001 1.942458e+002 -6.000000e+000
         vertex -6.754158e+000 1.988022e+002 -6.000000e+000
      endloop
   endfacet
   facet normal 0.000000e+000 0.000000e+000 -1.000000e+000
      outer loop
         vertex -1.025037e+001 1.857542e+002 -6.000000e+000
         vertex -6.754158e+000 1.988022e+002 -6.000000e+000
         vertex -8.802191e+000 1.832458e+002 -6.000000e+000
      endloop
   endfacet
   facet normal 0.000000e+000 0.000000e+000 -1.000000e+000
      outer loop
         vertex -8.802191e+000 1.832458e+002 -6.000000e+000
         vertex -6.754158e+000 1.988022e+002 -6.000000e+000
         vertex -4.245842e+000 1.797496e+002 -6.000000e+000
      endloop
   endfacet
   facet normal 0.000000e+000 0.000000e+000 -1.000000e+000
      outer loop
         vertex -8.802191e+000 1.832458e+002 -6.000000e+000
         vertex -4.245842e+000 1.797496e+002 -6.000000e+000
         vertex -6.754158e+000 1.811978e+002 -6.000000e+000
      endloop
   endfacet
   facet normal 0.000000e+000 0.000000e+000 -1.000000e+000
      outer loop
         vertex 8.802191e+000 1.832458e+002 -6.000000e+000
         vertex 6.754158e+000 1.811978e+002 -6.000000e+000
         vertex 1.025037e+001 1.857542e+002 -6.000000e+000
      endloop
   endfacet
   facet normal 0.000000e+000 0.000000e+000 -1.000000e+000
      outer loop
         vertex 1.025037e+001 1.857542e+002 -6.000000e+000
         vertex 6.754158e+000 1.811978e+002 -6.000000e+000
         vertex 1.025037e+001 1.942458e+002 -6.000000e+000
      endloop
   endfacet
   facet normal 0.000000e+000 0.000000e+000 -1.000000e+000
      outer loop
         vertex 1.025037e+001 1.857542e+002 -6.000000e+000
         vertex 1.025037e+001 1.942458e+002 -6.000000e+000
         vertex 1.100000e+001 1.885518e+002 -6.000000e+000
      endloop
   endfacet
   facet normal 0.000000e+000 0.000000e+000 -1.000000e+000
      outer loop
         vertex 1.100000e+001 1.885518e+002 -6.000000e+000
         vertex 1.025037e+001 1.942458e+002 -6.000000e+000
         vertex 1.100000e+001 1.914482e+002 -6.000000e+000
      endloop
   endfacet
   facet normal 0.000000e+000 0.000000e+000 -1.000000e+000
      outer loop
         vertex -1.448177e+000 1.790000e+002 -6.000000e+000
         vertex -4.245842e+000 1.797496e+002 -6.000000e+000
         vertex 1.448177e+000 1.790000e+002 -6.000000e+000
      endloop
   endfacet
   facet normal 0.000000e+000 0.000000e+000 -1.000000e+000
      outer loop
         vertex 1.448177e+000 1.790000e+002 -6.000000e+000
         vertex -4.245842e+000 1.797496e+002 -6.000000e+000
         vertex -6.754158e+000 1.988022e+002 -6.000000e+000
      endloop
   endfacet
   facet normal 0.000000e+000 0.000000e+000 -1.000000e+000
      outer loop
         vertex 1.448177e+000 1.790000e+002 -6.000000e+000
         vertex -6.754158e+000 1.988022e+002 -6.000000e+000
         vertex 4.245842e+000 1.797496e+002 -6.000000e+000
      endloop
   endfacet
   facet normal 0.000000e+000 0.000000e+000 -1.000000e+000
      outer loop
         vertex 4.245842e+000 1.797496e+002 -6.000000e+000
         vertex -6.754158e+000 1.988022e+002 -6.000000e+000
         vertex 6.754158e+000 1.811978e+002 -6.000000e+000
      endloop
   endfacet
   facet normal 0.000000e+000 0.000000e+000 -1.000000e+000
      outer loop
         vertex 1.448177e+000 2.010000e+002 -6.000000e+000
         vertex 6.754158e+000 1.988022e+002 -6.000000e+000
         vertex 6.754158e+000 1.811978e+002 -6.000000e+000
      endloop
   endfacet
   facet normal 0.000000e+000 0.000000e+000 -1.000000e+000
      outer loop
         vertex 6.754158e+000 1.811978e+002 -6.000000e+000
         vertex 6.754158e+000 1.988022e+002 -6.000000e+000
         vertex 8.802191e+000 1.967542e+002 -6.000000e+000
      endloop
   endfacet
   facet normal 0.000000e+000 0.000000e+000 -1.000000e+000
      outer loop
         vertex 6.754158e+000 1.811978e+002 -6.000000e+000
         vertex 8.802191e+000 1.967542e+002 -6.000000e+000
         vertex 1.025037e+001 1.942458e+002 -6.000000e+000
      endloop
   endfacet
   facet normal 0.000000e+000 0.000000e+000 -1.000000e+000
      outer loop
         vertex 1.448177e+000 2.010000e+002 -6.000000e+000
         vertex 6.754158e+000 1.811978e+002 -6.000000e+000
         vertex -1.448177e+000 2.010000e+002 -6.000000e+000
      endloop
   endfacet
   facet normal 0.000000e+000 0.000000e+000 -1.000000e+000
      outer loop
         vertex -1.448177e+000 2.010000e+002 -6.000000e+000
         vertex 6.754158e+000 1.811978e+002 -6.000000e+000
         vertex -6.754158e+000 1.988022e+002 -6.000000e+000
      endloop
   endfacet
   facet normal 0.000000e+000 0.000000e+000 -1.000000e+000
      outer loop
         vertex -1.448177e+000 2.010000e+002 -6.000000e+000
         vertex -6.754158e+000 1.988022e+002 -6.000000e+000
         vertex -4.245842e+000 2.002504e+002 -6.000000e+000
      endloop
   endfacet
   facet normal 0.000000e+000 0.000000e+000 -1.000000e+000
      outer loop
         vertex -1.025037e+001 1.857542e+002 -6.000000e+000
         vertex -1.100000e+001 1.885518e+002 -6.000000e+000
         vertex -1.100000e+001 1.914482e+002 -6.000000e+000
      endloop
   endfacet
   facet normal 0.000000e+000 0.000000e+000 -1.000000e+000
      outer loop
         vertex 1.448177e+000 2.010000e+002 -6.000000e+000
         vertex 4.245842e+000 2.002504e+002 -6.000000e+000
         vertex 6.754158e+000 1.988022e+002 -6.000000e+000
      endloop
   endfacet
   facet normal 0.000000e+000 0.000000e+000 -1.000000e+000
      outer loop
         vertex -1.025037e+001 1.942458e+002 -6.000000e+000
         vertex -8.802191e+000 1.967542e+002 -6.000000e+000
         vertex -6.754158e+000 1.988022e+002 -6.000000e+000
      endloop
   endfacet
endsolid