solid IRB1400_-_M2000_REV2_01-5
   facet normal 1.000000e+000 0.000000e+000 -6.936510e-016
      outer loop
         vertex 5.600000e+001 -8.750000e+000 1.500515e+001
         vertex 5.600000e+001 -8.750000e+000 -1.500515e+001
         vertex 5.600000e+001 2.250000e+000 1.500515e+001
      endloop
   endfacet
   facet normal 1.000000e+000 0.000000e+000 -6.936510e-016
      outer loop
         vertex 5.600000e+001 2.250000e+000 1.500515e+001
         vertex 5.600000e+001 -8.750000e+000 -1.500515e+001
         vertex 5.600000e+001 2.875000e+001 -1.500515e+001
      endloop
   endfacet
   facet normal 1.000000e+000 0.000000e+000 -6.936510e-016
      outer loop
         vertex 5.600000e+001 2.250000e+000 1.500515e+001
         vertex 5.600000e+001 2.875000e+001 -1.500515e+001
         vertex 5.600000e+001 2.250000e+000 7.816970e+001
      endloop
   endfacet
   facet normal 1.000000e+000 0.000000e+000 -6.936510e-016
      outer loop
         vertex 5.600000e+001 2.250000e+000 7.816970e+001
         vertex 5.600000e+001 2.875000e+001 -1.500515e+001
         vertex 5.600000e+001 2.875000e+001 8.598030e+001
      endloop
   endfacet
   facet normal 1.000000e+000 0.000000e+000 -6.936510e-016
      outer loop
         vertex 5.600000e+001 2.250000e+000 7.816970e+001
         vertex 5.600000e+001 2.875000e+001 8.598030e+001
         vertex 5.600000e+001 -2.875000e+001 9.313518e+001
      endloop
   endfacet
   facet normal 1.000000e+000 0.000000e+000 -6.936510e-016
      outer loop
         vertex 5.600000e+001 -2.875000e+001 9.313518e+001
         vertex 5.600000e+001 2.875000e+001 8.598030e+001
         vertex 5.600000e+001 -2.250000e+000 1.009458e+002
      endloop
   endfacet
   facet normal 1.000000e+000 0.000000e+000 -6.936510e-016
      outer loop
         vertex 5.600000e+001 -2.875000e+001 9.313518e+001
         vertex 5.600000e+001 -2.250000e+000 1.009458e+002
         vertex 5.600000e+001 -2.875000e+001 1.230051e+002
      endloop
   endfacet
   facet normal 1.000000e+000 0.000000e+000 -6.936510e-016
      outer loop
         vertex 5.600000e+001 -2.875000e+001 1.230051e+002
         vertex 5.600000e+001 -2.250000e+000 1.009458e+002
         vertex 5.600000e+001 -2.250000e+000 1.230051e+002
      endloop
   endfacet
   facet normal 8.660254e-001 0.000000e+000 -5.000000e-001
      outer loop
         vertex 4.099485e+001 -8.750000e+000 -4.099485e+001
         vertex 4.099485e+001 2.875000e+001 -4.099485e+001
         vertex 5.600000e+001 -8.750000e+000 -1.500515e+001
      endloop
   endfacet
   facet normal 8.660254e-001 0.000000e+000 -5.000000e-001
      outer loop
         vertex 5.600000e+001 -8.750000e+000 -1.500515e+001
         vertex 4.099485e+001 2.875000e+001 -4.099485e+001
         vertex 5.600000e+001 2.875000e+001 -1.500515e+001
      endloop
   endfacet
   facet normal -5.000000e-001 0.000000e+000 8.660254e-001
      outer loop
         vertex -1.500515e+001 2.875000e+001 5.600000e+001
         vertex -4.099485e+001 2.875000e+001 4.099485e+001
         vertex -1.500515e+001 2.250000e+000 5.600000e+001
      endloop
   endfacet
   facet normal -5.000000e-001 0.000000e+000 8.660254e-001
      outer loop
         vertex -1.500515e+001 2.250000e+000 5.600000e+001
         vertex -4.099485e+001 2.875000e+001 4.099485e+001
         vertex -4.099485e+001 -8.750000e+000 4.099485e+001
      endloop
   endfacet
   facet normal -5.000000e-001 0.000000e+000 8.660254e-001
      outer loop
         vertex -1.500515e+001 2.250000e+000 5.600000e+001
         vertex -4.099485e+001 -8.750000e+000 4.099485e+001
         vertex -1.500515e+001 -8.750000e+000 5.600000e+001
      endloop
   endfacet
   facet normal -8.660254e-001 0.000000e+000 5.000000e-001
      outer loop
         vertex -4.099485e+001 -8.750000e+000 4.099485e+001
         vertex -4.099485e+001 2.875000e+001 4.099485e+001
         vertex -5.600000e+001 -8.750000e+000 1.500515e+001
      endloop
   endfacet
   facet normal -8.660254e-001 0.000000e+000 5.000000e-001
      outer loop
         vertex -5.600000e+001 -8.750000e+000 1.500515e+001
         vertex -4.099485e+001 2.875000e+001 4.099485e+001
         vertex -5.600000e+001 2.875000e+001 1.500515e+001
      endloop
   endfacet
   facet normal -1.000000e+000 0.000000e+000 0.000000e+000
      outer loop
         vertex -5.600000e+001 -8.750000e+000 1.500515e+001
         vertex -5.600000e+001 2.875000e+001 1.500515e+001
         vertex -5.600000e+001 -8.750000e+000 -1.500515e+001
      endloop
   endfacet
   facet normal -1.000000e+000 0.000000e+000 0.000000e+000
      outer loop
         vertex -5.600000e+001 -8.750000e+000 -1.500515e+001
         vertex -5.600000e+001 2.875000e+001 1.500515e+001
         vertex -5.600000e+001 2.875000e+001 -1.500515e+001
      endloop
   endfacet
   facet normal -8.660254e-001 0.000000e+000 -5.000000e-001
      outer loop
         vertex -5.600000e+001 -8.750000e+000 -1.500515e+001
         vertex -5.600000e+001 2.875000e+001 -1.500515e+001
         vertex -4.099485e+001 -8.750000e+000 -4.099485e+001
      endloop
   endfacet
   facet normal -8.660254e-001 0.000000e+000 -5.000000e-001
      outer loop
         vertex -4.099485e+001 -8.750000e+000 -4.099485e+001
         vertex -5.600000e+001 2.875000e+001 -1.500515e+001
         vertex -4.099485e+001 2.875000e+001 -4.099485e+001
      endloop
   endfacet
   facet normal -5.000000e-001 0.000000e+000 -8.660254e-001
      outer loop
         vertex -4.099485e+001 -8.750000e+000 -4.099485e+001
         vertex -4.099485e+001 2.875000e+001 -4.099485e+001
         vertex -1.500515e+001 -8.750000e+000 -5.600000e+001
      endloop
   endfacet
   facet normal -5.000000e-001 0.000000e+000 -8.660254e-001
      outer loop
         vertex -1.500515e+001 -8.750000e+000 -5.600000e+001
         vertex -4.099485e+001 2.875000e+001 -4.099485e+001
         vertex -1.500515e+001 2.875000e+001 -5.600000e+001
      endloop
   endfacet
   facet normal 0.000000e+000 0.000000e+000 -1.000000e+000
      outer loop
         vertex -1.500515e+001 -8.750000e+000 -5.600000e+001
         vertex -1.500515e+001 2.875000e+001 -5.600000e+001
         vertex 1.500515e+001 -8.750000e+000 -5.600000e+001
      endloop
   endfacet
   facet normal 0.000000e+000 0.000000e+000 -1.000000e+000
      outer loop
         vertex 1.500515e+001 -8.750000e+000 -5.600000e+001
         vertex -1.500515e+001 2.875000e+001 -5.600000e+001
         vertex 1.500515e+001 2.875000e+001 -5.600000e+001
      endloop
   endfacet
   facet normal 5.000000e-001 0.000000e+000 -8.660254e-001
      outer loop
         vertex 1.500515e+001 -8.750000e+000 -5.600000e+001
         vertex 1.500515e+001 2.875000e+001 -5.600000e+001
         vertex 4.099485e+001 -8.750000e+000 -4.099485e+001
      endloop
   endfacet
   facet normal 5.000000e-001 0.000000e+000 -8.660254e-001
      outer loop
         vertex 4.099485e+001 -8.750000e+000 -4.099485e+001
         vertex 1.500515e+001 2.875000e+001 -5.600000e+001
         vertex 4.099485e+001 2.875000e+001 -4.099485e+001
      endloop
   endfacet
   facet normal 8.660254e-001 0.000000e+000 5.000000e-001
      outer loop
         vertex 5.600000e+001 2.250000e+000 1.500515e+001
         vertex 4.099485e+001 2.250000e+000 4.099485e+001
         vertex 5.600000e+001 -8.750000e+000 1.500515e+001
      endloop
   endfacet
   facet normal 8.660254e-001 0.000000e+000 5.000000e-001
      outer loop
         vertex 5.600000e+001 -8.750000e+000 1.500515e+001
         vertex 4.099485e+001 2.250000e+000 4.099485e+001
         vertex 4.099485e+001 -8.750000e+000 4.099485e+001
      endloop
   endfacet
   facet normal 5.000000e-001 0.000000e+000 8.660254e-001
      outer loop
         vertex 4.099485e+001 2.250000e+000 4.099485e+001
         vertex 1.500515e+001 2.250000e+000 5.600000e+001
         vertex 4.099485e+001 -8.750000e+000 4.099485e+001
      endloop
   endfacet
   facet normal 5.000000e-001 0.000000e+000 8.660254e-001
      outer loop
         vertex 4.099485e+001 -8.750000e+000 4.099485e+001
         vertex 1.500515e+001 2.250000e+000 5.600000e+001
         vertex 1.500515e+001 -8.750000e+000 5.600000e+001
      endloop
   endfacet
   facet normal -9.248680e-016 0.000000e+000 1.000000e+000
      outer loop
         vertex 1.500515e+001 2.250000e+000 5.600000e+001
         vertex -1.500515e+001 2.250000e+000 5.600000e+001
         vertex 1.500515e+001 -8.750000e+000 5.600000e+001
      endloop
   endfacet
   facet normal -9.248680e-016 0.000000e+000 1.000000e+000
      outer loop
         vertex 1.500515e+001 -8.750000e+000 5.600000e+001
         vertex -1.500515e+001 2.250000e+000 5.600000e+001
         vertex -1.500515e+001 -8.750000e+000 5.600000e+001
      endloop
   endfacet
   facet normal 8.660254e-001 0.000000e+000 5.000000e-001
      outer loop
         vertex 2.579563e+001 -2.500000e-001 1.753206e+002
         vertex 1.830127e+001 -2.500000e-001 1.883013e+002
         vertex 2.579563e+001 -2.250000e+000 1.753206e+002
      endloop
   endfacet
   facet normal 8.660254e-001 0.000000e+000 5.000000e-001
      outer loop
         vertex 2.579563e+001 -2.250000e+000 1.753206e+002
         vertex 1.830127e+001 -2.500000e-001 1.883013e+002
         vertex 1.830127e+001 -2.875000e+001 1.883013e+002
      endloop
   endfacet
   facet normal 8.660254e-001 0.000000e+000 5.000000e-001
      outer loop
         vertex 2.579563e+001 -2.250000e+000 1.753206e+002
         vertex 1.830127e+001 -2.875000e+001 1.883013e+002
         vertex 5.600000e+001 -2.250000e+000 1.230051e+002
      endloop
   endfacet
   facet normal 8.660254e-001 0.000000e+000 5.000000e-001
      outer loop
         vertex 5.600000e+001 -2.250000e+000 1.230051e+002
         vertex 1.830127e+001 -2.875000e+001 1.883013e+002
         vertex 5.600000e+001 -2.875000e+001 1.230051e+002
      endloop
   endfacet
   facet normal 5.000000e-001 0.000000e+000 8.660254e-001
      outer loop
         vertex 6.698730e+000 -2.875000e+001 1.950000e+002
         vertex 1.830127e+001 -2.875000e+001 1.883013e+002
         vertex 6.698730e+000 -2.500000e-001 1.950000e+002
      endloop
   endfacet
   facet normal 5.000000e-001 0.000000e+000 8.660254e-001
      outer loop
         vertex 6.698730e+000 -2.500000e-001 1.950000e+002
         vertex 1.830127e+001 -2.875000e+001 1.883013e+002
         vertex 1.830127e+001 -2.500000e-001 1.883013e+002
      endloop
   endfacet
   facet normal 0.000000e+000 0.000000e+000 1.000000e+000
      outer loop
         vertex -6.698730e+000 -2.875000e+001 1.950000e+002
         vertex 6.698730e+000 -2.875000e+001 1.950000e+002
         vertex -6.698730e+000 -2.500000e-001 1.950000e+002
      endloop
   endfacet
   facet normal 0.000000e+000 0.000000e+000 1.000000e+000
      outer loop
         vertex -6.698730e+000 -2.500000e-001 1.950000e+002
         vertex 6.698730e+000 -2.875000e+001 1.950000e+002
         vertex 6.698730e+000 -2.500000e-001 1.950000e+002
      endloop
   endfacet
   facet normal -5.000000e-001 0.000000e+000 8.660254e-001
      outer loop
         vertex -1.830127e+001 -2.875000e+001 1.883013e+002
         vertex -6.698730e+000 -2.875000e+001 1.950000e+002
         vertex -1.830127e+001 -2.500000e-001 1.883013e+002
      endloop
   endfacet
   facet normal -5.000000e-001 0.000000e+000 8.660254e-001
      outer loop
         vertex -1.830127e+001 -2.500000e-001 1.883013e+002
         vertex -6.698730e+000 -2.875000e+001 1.950000e+002
         vertex -6.698730e+000 -2.500000e-001 1.950000e+002
      endloop
   endfacet
   facet normal -8.660254e-001 0.000000e+000 5.000000e-001
      outer loop
         vertex -2.500000e+001 -2.875000e+001 1.766987e+002
         vertex -1.830127e+001 -2.875000e+001 1.883013e+002
         vertex -2.500000e+001 -2.500000e-001 1.766987e+002
      endloop
   endfacet
   facet normal -8.660254e-001 0.000000e+000 5.000000e-001
      outer loop
         vertex -2.500000e+001 -2.500000e-001 1.766987e+002
         vertex -1.830127e+001 -2.875000e+001 1.883013e+002
         vertex -1.830127e+001 -2.500000e-001 1.883013e+002
      endloop
   endfacet
   facet normal -1.000000e+000 0.000000e+000 5.179260e-016
      outer loop
         vertex -2.500000e+001 -2.875000e+001 1.633013e+002
         vertex -2.500000e+001 -2.875000e+001 1.766987e+002
         vertex -2.500000e+001 -2.500000e-001 1.633013e+002
      endloop
   endfacet
   facet normal -1.000000e+000 0.000000e+000 5.179260e-016
      outer loop
         vertex -2.500000e+001 -2.500000e-001 1.633013e+002
         vertex -2.500000e+001 -2.875000e+001 1.766987e+002
         vertex -2.500000e+001 -2.500000e-001 1.766987e+002
      endloop
   endfacet
   facet normal -8.660254e-001 0.000000e+000 -5.000000e-001
      outer loop
         vertex -2.000000e+000 -2.250000e+000 1.234641e+002
         vertex -2.000000e+000 -2.875000e+001 1.234641e+002
         vertex -1.750564e+001 -2.250000e+000 1.503207e+002
      endloop
   endfacet
   facet normal -8.660254e-001 0.000000e+000 -5.000000e-001
      outer loop
         vertex -1.750564e+001 -2.250000e+000 1.503207e+002
         vertex -2.000000e+000 -2.875000e+001 1.234641e+002
         vertex -2.500000e+001 -2.875000e+001 1.633013e+002
      endloop
   endfacet
   facet normal -8.660254e-001 0.000000e+000 -5.000000e-001
      outer loop
         vertex -1.750564e+001 -2.250000e+000 1.503207e+002
         vertex -2.500000e+001 -2.875000e+001 1.633013e+002
         vertex -1.750564e+001 -2.500000e-001 1.503207e+002
      endloop
   endfacet
   facet normal -8.660254e-001 0.000000e+000 -5.000000e-001
      outer loop
         vertex -1.750564e+001 -2.500000e-001 1.503207e+002
         vertex -2.500000e+001 -2.875000e+001 1.633013e+002
         vertex -2.500000e+001 -2.500000e-001 1.633013e+002
      endloop
   endfacet
   facet normal -1.000000e+000 0.000000e+000 -3.860215e-017
      outer loop
         vertex -2.000000e+000 2.875000e+001 7.852559e+001
         vertex -2.000000e+000 2.250000e+000 7.852559e+001
         vertex -2.000000e+000 2.875000e+001 1.015214e+002
      endloop
   endfacet
   facet normal -1.000000e+000 0.000000e+000 -3.860215e-017
      outer loop
         vertex -2.000000e+000 2.875000e+001 1.015214e+002
         vertex -2.000000e+000 2.250000e+000 7.852559e+001
         vertex -2.000000e+000 2.250000e+000 9.371075e+001
      endloop
   endfacet
   facet normal -1.000000e+000 0.000000e+000 -3.860215e-017
      outer loop
         vertex -2.000000e+000 2.875000e+001 1.015214e+002
         vertex -2.000000e+000 2.250000e+000 9.371075e+001
         vertex -2.000000e+000 -2.250000e+000 1.164868e+002
      endloop
   endfacet
   facet normal -1.000000e+000 0.000000e+000 -3.860215e-017
      outer loop
         vertex -2.000000e+000 -2.250000e+000 1.164868e+002
         vertex -2.000000e+000 2.250000e+000 9.371075e+001
         vertex -2.000000e+000 -2.875000e+001 1.086762e+002
      endloop
   endfacet
   facet normal -1.000000e+000 0.000000e+000 -3.860215e-017
      outer loop
         vertex -2.000000e+000 -2.250000e+000 1.164868e+002
         vertex -2.000000e+000 -2.875000e+001 1.086762e+002
         vertex -2.000000e+000 -2.250000e+000 1.234641e+002
      endloop
   endfacet
   facet normal -1.000000e+000 0.000000e+000 -3.860215e-017
      outer loop
         vertex -2.000000e+000 -2.250000e+000 1.234641e+002
         vertex -2.000000e+000 -2.875000e+001 1.086762e+002
         vertex -2.000000e+000 -2.875000e+001 1.234641e+002
      endloop
   endfacet
   facet normal -8.660254e-001 0.000000e+000 5.000000e-001
      outer loop
         vertex -2.000000e+000 2.875000e+001 7.852559e+001
         vertex -1.500515e+001 2.875000e+001 5.600000e+001
         vertex -2.000000e+000 2.250000e+000 7.852559e+001
      endloop
   endfacet
   facet normal -8.660254e-001 0.000000e+000 5.000000e-001
      outer loop
         vertex -2.000000e+000 2.250000e+000 7.852559e+001
         vertex -1.500515e+001 2.875000e+001 5.600000e+001
         vertex -1.500515e+001 2.250000e+000 5.600000e+001
      endloop
   endfacet
   facet normal 0.000000e+000 -1.000000e+000 0.000000e+000
      outer loop
         vertex -1.830127e+001 -2.875000e+001 1.883013e+002
         vertex -2.500000e+001 -2.875000e+001 1.766987e+002
         vertex -6.698730e+000 -2.875000e+001 1.950000e+002
      endloop
   endfacet
   facet normal 0.000000e+000 -1.000000e+000 0.000000e+000
      outer loop
         vertex -6.698730e+000 -2.875000e+001 1.950000e+002
         vertex -2.500000e+001 -2.875000e+001 1.766987e+002
         vertex -2.000000e+000 -2.875000e+001 1.234641e+002
      endloop
   endfacet
   facet normal 0.000000e+000 -1.000000e+000 0.000000e+000
      outer loop
         vertex -6.698730e+000 -2.875000e+001 1.950000e+002
         vertex -2.000000e+000 -2.875000e+001 1.234641e+002
         vertex 6.698730e+000 -2.875000e+001 1.950000e+002
      endloop
   endfacet
   facet normal 0.000000e+000 -1.000000e+000 0.000000e+000
      outer loop
         vertex 6.698730e+000 -2.875000e+001 1.950000e+002
         vertex -2.000000e+000 -2.875000e+001 1.234641e+002
         vertex 5.600000e+001 -2.875000e+001 1.230051e+002
      endloop
   endfacet
   facet normal 0.000000e+000 -1.000000e+000 0.000000e+000
      outer loop
         vertex 6.698730e+000 -2.875000e+001 1.950000e+002
         vertex 5.600000e+001 -2.875000e+001 1.230051e+002
         vertex 1.830127e+001 -2.875000e+001 1.883013e+002
      endloop
   endfacet
   facet normal 0.000000e+000 -1.000000e+000 0.000000e+000
      outer loop
         vertex -2.000000e+000 -2.875000e+001 1.086762e+002
         vertex 5.600000e+001 -2.875000e+001 9.313518e+001
         vertex -2.000000e+000 -2.875000e+001 1.234641e+002
      endloop
   endfacet
   facet normal 0.000000e+000 -1.000000e+000 0.000000e+000
      outer loop
         vertex -2.000000e+000 -2.875000e+001 1.234641e+002
         vertex 5.600000e+001 -2.875000e+001 9.313518e+001
         vertex 5.600000e+001 -2.875000e+001 1.230051e+002
      endloop
   endfacet
   facet normal 0.000000e+000 -1.000000e+000 0.000000e+000
      outer loop
         vertex -2.500000e+001 -2.875000e+001 1.766987e+002
         vertex -2.500000e+001 -2.875000e+001 1.633013e+002
         vertex -2.000000e+000 -2.875000e+001 1.234641e+002
      endloop
   endfacet
   facet normal 0.000000e+000 1.000000e+000 0.000000e+000
      outer loop
         vertex -5.600000e+001 2.875000e+001 -1.500515e+001
         vertex -5.600000e+001 2.875000e+001 1.500515e+001
         vertex -4.099485e+001 2.875000e+001 -4.099485e+001
      endloop
   endfacet
   facet normal 0.000000e+000 1.000000e+000 0.000000e+000
      outer loop
         vertex -4.099485e+001 2.875000e+001 -4.099485e+001
         vertex -5.600000e+001 2.875000e+001 1.500515e+001
         vertex -4.099485e+001 2.875000e+001 4.099485e+001
      endloop
   endfacet
   facet normal 0.000000e+000 1.000000e+000 0.000000e+000
      outer loop
         vertex -4.099485e+001 2.875000e+001 -4.099485e+001
         vertex -4.099485e+001 2.875000e+001 4.099485e+001
         vertex -1.500515e+001 2.875000e+001 -5.600000e+001
      endloop
   endfacet
   facet normal 0.000000e+000 1.000000e+000 0.000000e+000
      outer loop
         vertex -1.500515e+001 2.875000e+001 -5.600000e+001
         vertex -4.099485e+001 2.875000e+001 4.099485e+001
         vertex 1.500515e+001 2.875000e+001 -5.600000e+001
      endloop
   endfacet
   facet normal 0.000000e+000 1.000000e+000 0.000000e+000
      outer loop
         vertex -2.000000e+000 2.875000e+001 7.852559e+001
         vertex 5.600000e+001 2.875000e+001 8.598030e+001
         vertex -1.500515e+001 2.875000e+001 5.600000e+001
      endloop
   endfacet
   facet normal 0.000000e+000 1.000000e+000 0.000000e+000
      outer loop
         vertex -1.500515e+001 2.875000e+001 5.600000e+001
         vertex 5.600000e+001 2.875000e+001 8.598030e+001
         vertex 5.600000e+001 2.875000e+001 -1.500515e+001
      endloop
   endfacet
   facet normal 0.000000e+000 1.000000e+000 0.000000e+000
      outer loop
         vertex -1.500515e+001 2.875000e+001 5.600000e+001
         vertex 5.600000e+001 2.875000e+001 -1.500515e+001
         vertex -4.099485e+001 2.875000e+001 4.099485e+001
      endloop
   endfacet
   facet normal 0.000000e+000 1.000000e+000 0.000000e+000
      outer loop
         vertex -4.099485e+001 2.875000e+001 4.099485e+001
         vertex 5.600000e+001 2.875000e+001 -1.500515e+001
         vertex 4.099485e+001 2.875000e+001 -4.099485e+001
      endloop
   endfacet
   facet normal 0.000000e+000 1.000000e+000 0.000000e+000
      outer loop
         vertex -4.099485e+001 2.875000e+001 4.099485e+001
         vertex 4.099485e+001 2.875000e+001 -4.099485e+001
         vertex 1.500515e+001 2.875000e+001 -5.600000e+001
      endloop
   endfacet
   facet normal 0.000000e+000 1.000000e+000 0.000000e+000
      outer loop
         vertex -2.000000e+000 2.875000e+001 7.852559e+001
         vertex -2.000000e+000 2.875000e+001 1.015214e+002
         vertex 5.600000e+001 2.875000e+001 8.598030e+001
      endloop
   endfacet
   facet normal -2.345697e-001 -4.226183e-001 -8.754261e-001
      outer loop
         vertex -2.000000e+000 -2.875000e+001 1.086762e+002
         vertex -2.000000e+000 2.250000e+000 9.371075e+001
         vertex 5.600000e+001 -2.875000e+001 9.313518e+001
      endloop
   endfacet
   facet normal -2.345697e-001 -4.226183e-001 -8.754261e-001
      outer loop
         vertex 5.600000e+001 -2.875000e+001 9.313518e+001
         vertex -2.000000e+000 2.250000e+000 9.371075e+001
         vertex 5.600000e+001 2.250000e+000 7.816970e+001
      endloop
   endfacet
   facet normal 0.000000e+000 -1.000000e+000 0.000000e+000
      outer loop
         vertex -1.500515e+001 2.250000e+000 5.600000e+001
         vertex 1.500515e+001 2.250000e+000 5.600000e+001
         vertex 5.600000e+001 2.250000e+000 7.816970e+001
      endloop
   endfacet
   facet normal 0.000000e+000 -1.000000e+000 0.000000e+000
      outer loop
         vertex 5.600000e+001 2.250000e+000 7.816970e+001
         vertex 1.500515e+001 2.250000e+000 5.600000e+001
         vertex 4.099485e+001 2.250000e+000 4.099485e+001
      endloop
   endfacet
   facet normal 0.000000e+000 -1.000000e+000 0.000000e+000
      outer loop
         vertex 5.600000e+001 2.250000e+000 7.816970e+001
         vertex 4.099485e+001 2.250000e+000 4.099485e+001
         vertex 5.600000e+001 2.250000e+000 1.500515e+001
      endloop
   endfacet
   facet normal 0.000000e+000 -1.000000e+000 0.000000e+000
      outer loop
         vertex -2.000000e+000 2.250000e+000 9.371075e+001
         vertex -2.000000e+000 2.250000e+000 7.852559e+001
         vertex 5.600000e+001 2.250000e+000 7.816970e+001
      endloop
   endfacet
   facet normal 0.000000e+000 -1.000000e+000 0.000000e+000
      outer loop
         vertex 5.600000e+001 2.250000e+000 7.816970e+001
         vertex -2.000000e+000 2.250000e+000 7.852559e+001
         vertex -1.500515e+001 2.250000e+000 5.600000e+001
      endloop
   endfacet
   facet normal 1.000000e+000 0.000000e+000 0.000000e+000
      outer loop
         vertex 2.579563e+001 -2.500000e-001 1.753206e+002
         vertex 2.579563e+001 -2.250000e+000 1.753206e+002
         vertex 2.579563e+001 -2.500000e-001 1.619232e+002
      endloop
   endfacet
   facet normal 1.000000e+000 0.000000e+000 0.000000e+000
      outer loop
         vertex 2.579563e+001 -2.500000e-001 1.619232e+002
         vertex 2.579563e+001 -2.250000e+000 1.753206e+002
         vertex 2.579563e+001 -2.250000e+000 1.619232e+002
      endloop
   endfacet
   facet normal 8.660254e-001 0.000000e+000 -5.000000e-001
      outer loop
         vertex 2.579563e+001 -2.500000e-001 1.619232e+002
         vertex 2.579563e+001 -2.250000e+000 1.619232e+002
         vertex 1.909690e+001 -2.500000e-001 1.503207e+002
      endloop
   endfacet
   facet normal 8.660254e-001 0.000000e+000 -5.000000e-001
      outer loop
         vertex 1.909690e+001 -2.500000e-001 1.503207e+002
         vertex 2.579563e+001 -2.250000e+000 1.619232e+002
         vertex 1.909690e+001 -2.250000e+000 1.503207e+002
      endloop
   endfacet
   facet normal 5.000000e-001 0.000000e+000 -8.660254e-001
      outer loop
         vertex 1.909690e+001 -2.500000e-001 1.503207e+002
         vertex 1.909690e+001 -2.250000e+000 1.503207e+002
         vertex 7.494360e+000 -2.500000e-001 1.436219e+002
      endloop
   endfacet
   facet normal 5.000000e-001 0.000000e+000 -8.660254e-001
      outer loop
         vertex 7.494360e+000 -2.500000e-001 1.436219e+002
         vertex 1.909690e+001 -2.250000e+000 1.503207e+002
         vertex 7.494360e+000 -2.250000e+000 1.436219e+002
      endloop
   endfacet
   facet normal -2.071704e-015 0.000000e+000 -1.000000e+000
      outer loop
         vertex 7.494360e+000 -2.500000e-001 1.436219e+002
         vertex 7.494360e+000 -2.250000e+000 1.436219e+002
         vertex -5.903099e+000 -2.500000e-001 1.436219e+002
      endloop
   endfacet
   facet normal -2.071704e-015 0.000000e+000 -1.000000e+000
      outer loop
         vertex -5.903099e+000 -2.500000e-001 1.436219e+002
         vertex 7.494360e+000 -2.250000e+000 1.436219e+002
         vertex -5.903099e+000 -2.250000e+000 1.436219e+002
      endloop
   endfacet
   facet normal -5.000000e-001 0.000000e+000 -8.660254e-001
      outer loop
         vertex -5.903099e+000 -2.500000e-001 1.436219e+002
         vertex -5.903099e+000 -2.250000e+000 1.436219e+002
         vertex -1.750564e+001 -2.500000e-001 1.503207e+002
      endloop
   endfacet
   facet normal -5.000000e-001 0.000000e+000 -8.660254e-001
      outer loop
         vertex -1.750564e+001 -2.500000e-001 1.503207e+002
         vertex -5.903099e+000 -2.250000e+000 1.436219e+002
         vertex -1.750564e+001 -2.250000e+000 1.503207e+002
      endloop
   endfacet
   facet normal 2.345697e-001 4.226183e-001 8.754261e-001
      outer loop
         vertex -2.000000e+000 2.875000e+001 1.015214e+002
         vertex -2.000000e+000 -2.250000e+000 1.164868e+002
         vertex 5.600000e+001 2.875000e+001 8.598030e+001
      endloop
   endfacet
   facet normal 2.345697e-001 4.226183e-001 8.754261e-001
      outer loop
         vertex 5.600000e+001 2.875000e+001 8.598030e+001
         vertex -2.000000e+000 -2.250000e+000 1.164868e+002
         vertex 5.600000e+001 -2.250000e+000 1.009458e+002
      endloop
   endfacet
   facet normal 0.000000e+000 1.000000e+000 0.000000e+000
      outer loop
         vertex -1.750564e+001 -2.250000e+000 1.503207e+002
         vertex -5.903099e+000 -2.250000e+000 1.436219e+002
         vertex -2.000000e+000 -2.250000e+000 1.234641e+002
      endloop
   endfacet
   facet normal 0.000000e+000 1.000000e+000 0.000000e+000
      outer loop
         vertex -2.000000e+000 -2.250000e+000 1.234641e+002
         vertex -5.903099e+000 -2.250000e+000 1.436219e+002
         vertex 7.494360e+000 -2.250000e+000 1.436219e+002
      endloop
   endfacet
   facet normal 0.000000e+000 1.000000e+000 0.000000e+000
      outer loop
         vertex -2.000000e+000 -2.250000e+000 1.234641e+002
         vertex 7.494360e+000 -2.250000e+000 1.436219e+002
         vertex 5.600000e+001 -2.250000e+000 1.230051e+002
      endloop
   endfacet
   facet normal 0.000000e+000 1.000000e+000 0.000000e+000
      outer loop
         vertex 5.600000e+001 -2.250000e+000 1.230051e+002
         vertex 7.494360e+000 -2.250000e+000 1.436219e+002
         vertex 1.909690e+001 -2.250000e+000 1.503207e+002
      endloop
   endfacet
   facet normal 0.000000e+000 1.000000e+000 0.000000e+000
      outer loop
         vertex 5.600000e+001 -2.250000e+000 1.230051e+002
         vertex 1.909690e+001 -2.250000e+000 1.503207e+002
         vertex 2.579563e+001 -2.250000e+000 1.619232e+002
      endloop
   endfacet
   facet normal 0.000000e+000 1.000000e+000 0.000000e+000
      outer loop
         vertex 5.600000e+001 -2.250000e+000 1.009458e+002
         vertex -2.000000e+000 -2.250000e+000 1.164868e+002
         vertex 5.600000e+001 -2.250000e+000 1.230051e+002
      endloop
   endfacet
   facet normal 0.000000e+000 1.000000e+000 0.000000e+000
      outer loop
         vertex 5.600000e+001 -2.250000e+000 1.230051e+002
         vertex -2.000000e+000 -2.250000e+000 1.164868e+002
         vertex -2.000000e+000 -2.250000e+000 1.234641e+002
      endloop
   endfacet
   facet normal 0.000000e+000 1.000000e+000 0.000000e+000
      outer loop
         vertex 2.579563e+001 -2.250000e+000 1.619232e+002
         vertex 2.579563e+001 -2.250000e+000 1.753206e+002
         vertex 5.600000e+001 -2.250000e+000 1.230051e+002
      endloop
   endfacet
   facet normal 0.000000e+000 1.000000e+000 0.000000e+000
      outer loop
         vertex 1.250000e+001 -2.500000e-001 1.666506e+002
         vertex 2.579563e+001 -2.500000e-001 1.619232e+002
         vertex 9.150636e+000 -2.500000e-001 1.608494e+002
      endloop
   endfacet
   facet normal 0.000000e+000 1.000000e+000 0.000000e+000
      outer loop
         vertex 9.150636e+000 -2.500000e-001 1.608494e+002
         vertex 2.579563e+001 -2.500000e-001 1.619232e+002
         vertex 1.909690e+001 -2.500000e-001 1.503207e+002
      endloop
   endfacet
   facet normal 0.000000e+000 1.000000e+000 0.000000e+000
      outer loop
         vertex 9.150636e+000 -2.500000e-001 1.608494e+002
         vertex 1.909690e+001 -2.500000e-001 1.503207e+002
         vertex 3.349365e+000 -2.500000e-001 1.575000e+002
      endloop
   endfacet
   facet normal 0.000000e+000 1.000000e+000 0.000000e+000
      outer loop
         vertex 3.349365e+000 -2.500000e-001 1.575000e+002
         vertex 1.909690e+001 -2.500000e-001 1.503207e+002
         vertex 7.494360e+000 -2.500000e-001 1.436219e+002
      endloop
   endfacet
   facet normal 0.000000e+000 1.000000e+000 0.000000e+000
      outer loop
         vertex 3.349365e+000 -2.500000e-001 1.575000e+002
         vertex 7.494360e+000 -2.500000e-001 1.436219e+002
         vertex -3.349365e+000 -2.500000e-001 1.575000e+002
      endloop
   endfacet
   facet normal 0.000000e+000 1.000000e+000 0.000000e+000
      outer loop
         vertex -3.349365e+000 -2.500000e-001 1.575000e+002
         vertex 7.494360e+000 -2.500000e-001 1.436219e+002
         vertex -5.903099e+000 -2.500000e-001 1.436219e+002
      endloop
   endfacet
   facet normal 0.000000e+000 1.000000e+000 0.000000e+000
      outer loop
         vertex -3.349365e+000 -2.500000e-001 1.575000e+002
         vertex -5.903099e+000 -2.500000e-001 1.436219e+002
         vertex -9.150636e+000 -2.500000e-001 1.608494e+002
      endloop
   endfacet
   facet normal 0.000000e+000 1.000000e+000 0.000000e+000
      outer loop
         vertex -9.150636e+000 -2.500000e-001 1.608494e+002
         vertex -5.903099e+000 -2.500000e-001 1.436219e+002
         vertex -1.750564e+001 -2.500000e-001 1.503207e+002
      endloop
   endfacet
   facet normal 0.000000e+000 1.000000e+000 0.000000e+000
      outer loop
         vertex -9.150636e+000 -2.500000e-001 1.608494e+002
         vertex -1.750564e+001 -2.500000e-001 1.503207e+002
         vertex -1.250000e+001 -2.500000e-001 1.666506e+002
      endloop
   endfacet
   facet normal 0.000000e+000 1.000000e+000 0.000000e+000
      outer loop
         vertex -1.250000e+001 -2.500000e-001 1.666506e+002
         vertex -1.750564e+001 -2.500000e-001 1.503207e+002
         vertex -2.500000e+001 -2.500000e-001 1.633013e+002
      endloop
   endfacet
   facet normal 0.000000e+000 1.000000e+000 0.000000e+000
      outer loop
         vertex -1.250000e+001 -2.500000e-001 1.666506e+002
         vertex -2.500000e+001 -2.500000e-001 1.633013e+002
         vertex -1.250000e+001 -2.500000e-001 1.733494e+002
      endloop
   endfacet
   facet normal 0.000000e+000 1.000000e+000 0.000000e+000
      outer loop
         vertex -1.250000e+001 -2.500000e-001 1.733494e+002
         vertex -2.500000e+001 -2.500000e-001 1.633013e+002
         vertex -2.500000e+001 -2.500000e-001 1.766987e+002
      endloop
   endfacet
   facet normal 0.000000e+000 1.000000e+000 0.000000e+000
      outer loop
         vertex -1.250000e+001 -2.500000e-001 1.733494e+002
         vertex -2.500000e+001 -2.500000e-001 1.766987e+002
         vertex -9.150636e+000 -2.500000e-001 1.791506e+002
      endloop
   endfacet
   facet normal 0.000000e+000 1.000000e+000 0.000000e+000
      outer loop
         vertex -9.150636e+000 -2.500000e-001 1.791506e+002
         vertex -2.500000e+001 -2.500000e-001 1.766987e+002
         vertex -1.830127e+001 -2.500000e-001 1.883013e+002
      endloop
   endfacet
   facet normal 0.000000e+000 1.000000e+000 0.000000e+000
      outer loop
         vertex -9.150636e+000 -2.500000e-001 1.791506e+002
         vertex -1.830127e+001 -2.500000e-001 1.883013e+002
         vertex -3.349365e+000 -2.500000e-001 1.825000e+002
      endloop
   endfacet
   facet normal 0.000000e+000 1.000000e+000 0.000000e+000
      outer loop
         vertex -3.349365e+000 -2.500000e-001 1.825000e+002
         vertex -1.830127e+001 -2.500000e-001 1.883013e+002
         vertex -6.698730e+000 -2.500000e-001 1.950000e+002
      endloop
   endfacet
   facet normal 0.000000e+000 1.000000e+000 0.000000e+000
      outer loop
         vertex -3.349365e+000 -2.500000e-001 1.825000e+002
         vertex -6.698730e+000 -2.500000e-001 1.950000e+002
         vertex 3.349365e+000 -2.500000e-001 1.825000e+002
      endloop
   endfacet
   facet normal 0.000000e+000 1.000000e+000 0.000000e+000
      outer loop
         vertex 3.349365e+000 -2.500000e-001 1.825000e+002
         vertex -6.698730e+000 -2.500000e-001 1.950000e+002
         vertex 6.698730e+000 -2.500000e-001 1.950000e+002
      endloop
   endfacet
   facet normal 0.000000e+000 1.000000e+000 0.000000e+000
      outer loop
         vertex 3.349365e+000 -2.500000e-001 1.825000e+002
         vertex 6.698730e+000 -2.500000e-001 1.950000e+002
         vertex 9.150636e+000 -2.500000e-001 1.791506e+002
      endloop
   endfacet
   facet normal 0.000000e+000 1.000000e+000 0.000000e+000
      outer loop
         vertex 9.150636e+000 -2.500000e-001 1.791506e+002
         vertex 6.698730e+000 -2.500000e-001 1.950000e+002
         vertex 1.830127e+001 -2.500000e-001 1.883013e+002
      endloop
   endfacet
   facet normal 0.000000e+000 1.000000e+000 0.000000e+000
      outer loop
         vertex 9.150636e+000 -2.500000e-001 1.791506e+002
         vertex 1.830127e+001 -2.500000e-001 1.883013e+002
         vertex 1.250000e+001 -2.500000e-001 1.733494e+002
      endloop
   endfacet
   facet normal 0.000000e+000 1.000000e+000 0.000000e+000
      outer loop
         vertex 1.250000e+001 -2.500000e-001 1.733494e+002
         vertex 1.830127e+001 -2.500000e-001 1.883013e+002
         vertex 2.579563e+001 -2.500000e-001 1.753206e+002
      endloop
   endfacet
   facet normal 0.000000e+000 1.000000e+000 0.000000e+000
      outer loop
         vertex 1.250000e+001 -2.500000e-001 1.733494e+002
         vertex 2.579563e+001 -2.500000e-001 1.753206e+002
         vertex 1.250000e+001 -2.500000e-001 1.666506e+002
      endloop
   endfacet
   facet normal 0.000000e+000 1.000000e+000 0.000000e+000
      outer loop
         vertex 1.250000e+001 -2.500000e-001 1.666506e+002
         vertex 2.579563e+001 -2.500000e-001 1.753206e+002
         vertex 2.579563e+001 -2.500000e-001 1.619232e+002
      endloop
   endfacet
   facet normal 5.000000e-001 0.000000e+000 -8.660254e-001
      outer loop
         vertex 9.150636e+000 -2.500000e-001 1.608494e+002
         vertex 3.349365e+000 -2.500000e-001 1.575000e+002
         vertex 9.150636e+000 2.875000e+001 1.608494e+002
      endloop
   endfacet
   facet normal 5.000000e-001 0.000000e+000 -8.660254e-001
      outer loop
         vertex 9.150636e+000 2.875000e+001 1.608494e+002
         vertex 3.349365e+000 -2.500000e-001 1.575000e+002
         vertex 3.349365e+000 2.875000e+001 1.575000e+002
      endloop
   endfacet
   facet normal 8.660254e-001 0.000000e+000 -5.000000e-001
      outer loop
         vertex 1.250000e+001 -2.500000e-001 1.666506e+002
         vertex 9.150636e+000 -2.500000e-001 1.608494e+002
         vertex 1.250000e+001 2.875000e+001 1.666506e+002
      endloop
   endfacet
   facet normal 8.660254e-001 0.000000e+000 -5.000000e-001
      outer loop
         vertex 1.250000e+001 2.875000e+001 1.666506e+002
         vertex 9.150636e+000 -2.500000e-001 1.608494e+002
         vertex 9.150636e+000 2.875000e+001 1.608494e+002
      endloop
   endfacet
   facet normal 1.000000e+000 0.000000e+000 5.179260e-016
      outer loop
         vertex 1.250000e+001 -2.500000e-001 1.733494e+002
         vertex 1.250000e+001 -2.500000e-001 1.666506e+002
         vertex 1.250000e+001 2.875000e+001 1.733494e+002
      endloop
   endfacet
   facet normal 1.000000e+000 0.000000e+000 5.179260e-016
      outer loop
         vertex 1.250000e+001 2.875000e+001 1.733494e+002
         vertex 1.250000e+001 -2.500000e-001 1.666506e+002
         vertex 1.250000e+001 2.875000e+001 1.666506e+002
      endloop
   endfacet
   facet normal 8.660254e-001 0.000000e+000 5.000000e-001
      outer loop
         vertex 9.150636e+000 -2.500000e-001 1.791506e+002
         vertex 1.250000e+001 -2.500000e-001 1.733494e+002
         vertex 9.150636e+000 2.875000e+001 1.791506e+002
      endloop
   endfacet
   facet normal 8.660254e-001 0.000000e+000 5.000000e-001
      outer loop
         vertex 9.150636e+000 2.875000e+001 1.791506e+002
         vertex 1.250000e+001 -2.500000e-001 1.733494e+002
         vertex 1.250000e+001 2.875000e+001 1.733494e+002
      endloop
   endfacet
   facet normal 5.000000e-001 0.000000e+000 8.660254e-001
      outer loop
         vertex 3.349365e+000 -2.500000e-001 1.825000e+002
         vertex 9.150636e+000 -2.500000e-001 1.791506e+002
         vertex 3.349365e+000 2.875000e+001 1.825000e+002
      endloop
   endfacet
   facet normal 5.000000e-001 0.000000e+000 8.660254e-001
      outer loop
         vertex 3.349365e+000 2.875000e+001 1.825000e+002
         vertex 9.150636e+000 -2.500000e-001 1.791506e+002
         vertex 9.150636e+000 2.875000e+001 1.791506e+002
      endloop
   endfacet
   facet normal 0.000000e+000 0.000000e+000 1.000000e+000
      outer loop
         vertex -3.349365e+000 -2.500000e-001 1.825000e+002
         vertex 3.349365e+000 -2.500000e-001 1.825000e+002
         vertex -3.349365e+000 2.875000e+001 1.825000e+002
      endloop
   endfacet
   facet normal 0.000000e+000 0.000000e+000 1.000000e+000
      outer loop
         vertex -3.349365e+000 2.875000e+001 1.825000e+002
         vertex 3.349365e+000 -2.500000e-001 1.825000e+002
         vertex 3.349365e+000 2.875000e+001 1.825000e+002
      endloop
   endfacet
   facet normal -5.000000e-001 0.000000e+000 8.660254e-001
      outer loop
         vertex -9.150636e+000 -2.500000e-001 1.791506e+002
         vertex -3.349365e+000 -2.500000e-001 1.825000e+002
         vertex -9.150636e+000 2.875000e+001 1.791506e+002
      endloop
   endfacet
   facet normal -5.000000e-001 0.000000e+000 8.660254e-001
      outer loop
         vertex -9.150636e+000 2.875000e+001 1.791506e+002
         vertex -3.349365e+000 -2.500000e-001 1.825000e+002
         vertex -3.349365e+000 2.875000e+001 1.825000e+002
      endloop
   endfacet
   facet normal -8.660254e-001 0.000000e+000 5.000000e-001
      outer loop
         vertex -1.250000e+001 -2.500000e-001 1.733494e+002
         vertex -9.150636e+000 -2.500000e-001 1.791506e+002
         vertex -1.250000e+001 2.875000e+001 1.733494e+002
      endloop
   endfacet
   facet normal -8.660254e-001 0.000000e+000 5.000000e-001
      outer loop
         vertex -1.250000e+001 2.875000e+001 1.733494e+002
         vertex -9.150636e+000 -2.500000e-001 1.791506e+002
         vertex -9.150636e+000 2.875000e+001 1.791506e+002
      endloop
   endfacet
   facet normal -1.000000e+000 0.000000e+000 -2.589630e-016
      outer loop
         vertex -1.250000e+001 -2.500000e-001 1.666506e+002
         vertex -1.250000e+001 -2.500000e-001 1.733494e+002
         vertex -1.250000e+001 2.875000e+001 1.666506e+002
      endloop
   endfacet
   facet normal -1.000000e+000 0.000000e+000 -2.589630e-016
      outer loop
         vertex -1.250000e+001 2.875000e+001 1.666506e+002
         vertex -1.250000e+001 -2.500000e-001 1.733494e+002
         vertex -1.250000e+001 2.875000e+001 1.733494e+002
      endloop
   endfacet
   facet normal -8.660254e-001 0.000000e+000 -5.000000e-001
      outer loop
         vertex -9.150636e+000 -2.500000e-001 1.608494e+002
         vertex -1.250000e+001 -2.500000e-001 1.666506e+002
         vertex -9.150636e+000 2.875000e+001 1.608494e+002
      endloop
   endfacet
   facet normal -8.660254e-001 0.000000e+000 -5.000000e-001
      outer loop
         vertex -9.150636e+000 2.875000e+001 1.608494e+002
         vertex -1.250000e+001 -2.500000e-001 1.666506e+002
         vertex -1.250000e+001 2.875000e+001 1.666506e+002
      endloop
   endfacet
   facet normal -5.000000e-001 0.000000e+000 -8.660254e-001
      outer loop
         vertex -3.349365e+000 -2.500000e-001 1.575000e+002
         vertex -9.150636e+000 -2.500000e-001 1.608494e+002
         vertex -3.349365e+000 2.875000e+001 1.575000e+002
      endloop
   endfacet
   facet normal -5.000000e-001 0.000000e+000 -8.660254e-001
      outer loop
         vertex -3.349365e+000 2.875000e+001 1.575000e+002
         vertex -9.150636e+000 -2.500000e-001 1.608494e+002
         vertex -9.150636e+000 2.875000e+001 1.608494e+002
      endloop
   endfacet
   facet normal 0.000000e+000 0.000000e+000 -1.000000e+000
      outer loop
         vertex 3.349365e+000 -2.500000e-001 1.575000e+002
         vertex -3.349365e+000 -2.500000e-001 1.575000e+002
         vertex 3.349365e+000 2.875000e+001 1.575000e+002
      endloop
   endfacet
   facet normal 0.000000e+000 0.000000e+000 -1.000000e+000
      outer loop
         vertex 3.349365e+000 2.875000e+001 1.575000e+002
         vertex -3.349365e+000 -2.500000e-001 1.575000e+002
         vertex -3.349365e+000 2.875000e+001 1.575000e+002
      endloop
   endfacet
   facet normal 0.000000e+000 1.000000e+000 0.000000e+000
      outer loop
         vertex 1.250000e+001 2.875000e+001 1.733494e+002
         vertex 1.250000e+001 2.875000e+001 1.666506e+002
         vertex 3.349365e+000 2.875000e+001 1.825000e+002
      endloop
   endfacet
   facet normal 0.000000e+000 1.000000e+000 0.000000e+000
      outer loop
         vertex 3.349365e+000 2.875000e+001 1.825000e+002
         vertex 1.250000e+001 2.875000e+001 1.666506e+002
         vertex 3.349365e+000 2.875000e+001 1.575000e+002
      endloop
   endfacet
   facet normal 0.000000e+000 1.000000e+000 0.000000e+000
      outer loop
         vertex 3.349365e+000 2.875000e+001 1.825000e+002
         vertex 3.349365e+000 2.875000e+001 1.575000e+002
         vertex -3.349365e+000 2.875000e+001 1.825000e+002
      endloop
   endfacet
   facet normal 0.000000e+000 1.000000e+000 0.000000e+000
      outer loop
         vertex -3.349365e+000 2.875000e+001 1.825000e+002
         vertex 3.349365e+000 2.875000e+001 1.575000e+002
         vertex -1.250000e+001 2.875000e+001 1.733494e+002
      endloop
   endfacet
   facet normal 0.000000e+000 1.000000e+000 0.000000e+000
      outer loop
         vertex -3.349365e+000 2.875000e+001 1.825000e+002
         vertex -1.250000e+001 2.875000e+001 1.733494e+002
         vertex -9.150636e+000 2.875000e+001 1.791506e+002
      endloop
   endfacet
   facet normal 0.000000e+000 1.000000e+000 0.000000e+000
      outer loop
         vertex -1.250000e+001 2.875000e+001 1.733494e+002
         vertex 3.349365e+000 2.875000e+001 1.575000e+002
         vertex -1.250000e+001 2.875000e+001 1.666506e+002
      endloop
   endfacet
   facet normal 0.000000e+000 1.000000e+000 0.000000e+000
      outer loop
         vertex -1.250000e+001 2.875000e+001 1.666506e+002
         vertex 3.349365e+000 2.875000e+001 1.575000e+002
         vertex -3.349365e+000 2.875000e+001 1.575000e+002
      endloop
   endfacet
   facet normal 0.000000e+000 1.000000e+000 0.000000e+000
      outer loop
         vertex -1.250000e+001 2.875000e+001 1.666506e+002
         vertex -3.349365e+000 2.875000e+001 1.575000e+002
         vertex -9.150636e+000 2.875000e+001 1.608494e+002
      endloop
   endfacet
   facet normal 0.000000e+000 1.000000e+000 0.000000e+000
      outer loop
         vertex 3.349365e+000 2.875000e+001 1.825000e+002
         vertex 9.150636e+000 2.875000e+001 1.791506e+002
         vertex 1.250000e+001 2.875000e+001 1.733494e+002
      endloop
   endfacet
   facet normal 0.000000e+000 1.000000e+000 0.000000e+000
      outer loop
         vertex 1.250000e+001 2.875000e+001 1.666506e+002
         vertex 9.150636e+000 2.875000e+001 1.608494e+002
         vertex 3.349365e+000 2.875000e+001 1.575000e+002
      endloop
   endfacet
   facet normal 0.000000e+000 -1.000000e+000 0.000000e+000
      outer loop
         vertex -5.250000e+001 -8.750000e+000 -1.406733e+001
         vertex -5.600000e+001 -8.750000e+000 -1.500515e+001
         vertex -3.843267e+001 -8.750000e+000 -3.843267e+001
      endloop
   endfacet
   facet normal 0.000000e+000 -1.000000e+000 0.000000e+000
      outer loop
         vertex -3.843267e+001 -8.750000e+000 -3.843267e+001
         vertex -5.600000e+001 -8.750000e+000 -1.500515e+001
         vertex -4.099485e+001 -8.750000e+000 -4.099485e+001
      endloop
   endfacet
   facet normal 0.000000e+000 -1.000000e+000 0.000000e+000
      outer loop
         vertex -3.843267e+001 -8.750000e+000 -3.843267e+001
         vertex -4.099485e+001 -8.750000e+000 -4.099485e+001
         vertex -1.406733e+001 -8.750000e+000 -5.250000e+001
      endloop
   endfacet
   facet normal 0.000000e+000 -1.000000e+000 0.000000e+000
      outer loop
         vertex -1.406733e+001 -8.750000e+000 -5.250000e+001
         vertex -4.099485e+001 -8.750000e+000 -4.099485e+001
         vertex -1.500515e+001 -8.750000e+000 -5.600000e+001
      endloop
   endfacet
   facet normal 0.000000e+000 -1.000000e+000 0.000000e+000
      outer loop
         vertex -1.406733e+001 -8.750000e+000 -5.250000e+001
         vertex -1.500515e+001 -8.750000e+000 -5.600000e+001
         vertex 1.406733e+001 -8.750000e+000 -5.250000e+001
      endloop
   endfacet
   facet normal 0.000000e+000 -1.000000e+000 0.000000e+000
      outer loop
         vertex 1.406733e+001 -8.750000e+000 -5.250000e+001
         vertex -1.500515e+001 -8.750000e+000 -5.600000e+001
         vertex 1.500515e+001 -8.750000e+000 -5.600000e+001
      endloop
   endfacet
   facet normal 0.000000e+000 -1.000000e+000 0.000000e+000
      outer loop
         vertex 1.406733e+001 -8.750000e+000 -5.250000e+001
         vertex 1.500515e+001 -8.750000e+000 -5.600000e+001
         vertex 3.843267e+001 -8.750000e+000 -3.843267e+001
      endloop
   endfacet
   facet normal 0.000000e+000 -1.000000e+000 0.000000e+000
      outer loop
         vertex 3.843267e+001 -8.750000e+000 -3.843267e+001
         vertex 1.500515e+001 -8.750000e+000 -5.600000e+001
         vertex 4.099485e+001 -8.750000e+000 -4.099485e+001
      endloop
   endfacet
   facet normal 0.000000e+000 -1.000000e+000 0.000000e+000
      outer loop
         vertex 3.843267e+001 -8.750000e+000 -3.843267e+001
         vertex 4.099485e+001 -8.750000e+000 -4.099485e+001
         vertex 5.250000e+001 -8.750000e+000 -1.406733e+001
      endloop
   endfacet
   facet normal 0.000000e+000 -1.000000e+000 0.000000e+000
      outer loop
         vertex 5.250000e+001 -8.750000e+000 -1.406733e+001
         vertex 4.099485e+001 -8.750000e+000 -4.099485e+001
         vertex 5.600000e+001 -8.750000e+000 -1.500515e+001
      endloop
   endfacet
   facet normal 0.000000e+000 -1.000000e+000 0.000000e+000
      outer loop
         vertex 5.250000e+001 -8.750000e+000 -1.406733e+001
         vertex 5.600000e+001 -8.750000e+000 -1.500515e+001
         vertex 5.250000e+001 -8.750000e+000 1.406733e+001
      endloop
   endfacet
   facet normal 0.000000e+000 -1.000000e+000 0.000000e+000
      outer loop
         vertex 5.250000e+001 -8.750000e+000 1.406733e+001
         vertex 5.600000e+001 -8.750000e+000 -1.500515e+001
         vertex 5.600000e+001 -8.750000e+000 1.500515e+001
      endloop
   endfacet
   facet normal 0.000000e+000 -1.000000e+000 0.000000e+000
      outer loop
         vertex 5.250000e+001 -8.750000e+000 1.406733e+001
         vertex 5.600000e+001 -8.750000e+000 1.500515e+001
         vertex 3.843267e+001 -8.750000e+000 3.843267e+001
      endloop
   endfacet
   facet normal 0.000000e+000 -1.000000e+000 0.000000e+000
      outer loop
         vertex 3.843267e+001 -8.750000e+000 3.843267e+001
         vertex 5.600000e+001 -8.750000e+000 1.500515e+001
         vertex 4.099485e+001 -8.750000e+000 4.099485e+001
      endloop
   endfacet
   facet normal 0.000000e+000 -1.000000e+000 0.000000e+000
      outer loop
         vertex 3.843267e+001 -8.750000e+000 3.843267e+001
         vertex 4.099485e+001 -8.750000e+000 4.099485e+001
         vertex 1.406733e+001 -8.750000e+000 5.250000e+001
      endloop
   endfacet
   facet normal 0.000000e+000 -1.000000e+000 0.000000e+000
      outer loop
         vertex 1.406733e+001 -8.750000e+000 5.250000e+001
         vertex 4.099485e+001 -8.750000e+000 4.099485e+001
         vertex 1.500515e+001 -8.750000e+000 5.600000e+001
      endloop
   endfacet
   facet normal 0.000000e+000 -1.000000e+000 0.000000e+000
      outer loop
         vertex 1.406733e+001 -8.750000e+000 5.250000e+001
         vertex 1.500515e+001 -8.750000e+000 5.600000e+001
         vertex -1.406733e+001 -8.750000e+000 5.250000e+001
      endloop
   endfacet
   facet normal 0.000000e+000 -1.000000e+000 0.000000e+000
      outer loop
         vertex -1.406733e+001 -8.750000e+000 5.250000e+001
         vertex 1.500515e+001 -8.750000e+000 5.600000e+001
         vertex -1.500515e+001 -8.750000e+000 5.600000e+001
      endloop
   endfacet
   facet normal 0.000000e+000 -1.000000e+000 0.000000e+000
      outer loop
         vertex -1.406733e+001 -8.750000e+000 5.250000e+001
         vertex -1.500515e+001 -8.750000e+000 5.600000e+001
         vertex -3.843267e+001 -8.750000e+000 3.843267e+001
      endloop
   endfacet
   facet normal 0.000000e+000 -1.000000e+000 0.000000e+000
      outer loop
         vertex -3.843267e+001 -8.750000e+000 3.843267e+001
         vertex -1.500515e+001 -8.750000e+000 5.600000e+001
         vertex -4.099485e+001 -8.750000e+000 4.099485e+001
      endloop
   endfacet
   facet normal 0.000000e+000 -1.000000e+000 0.000000e+000
      outer loop
         vertex -3.843267e+001 -8.750000e+000 3.843267e+001
         vertex -4.099485e+001 -8.750000e+000 4.099485e+001
         vertex -5.250000e+001 -8.750000e+000 1.406733e+001
      endloop
   endfacet
   facet normal 0.000000e+000 -1.000000e+000 0.000000e+000
      outer loop
         vertex -5.250000e+001 -8.750000e+000 1.406733e+001
         vertex -4.099485e+001 -8.750000e+000 4.099485e+001
         vertex -5.600000e+001 -8.750000e+000 1.500515e+001
      endloop
   endfacet
   facet normal 0.000000e+000 -1.000000e+000 0.000000e+000
      outer loop
         vertex -5.250000e+001 -8.750000e+000 1.406733e+001
         vertex -5.600000e+001 -8.750000e+000 1.500515e+001
         vertex -5.250000e+001 -8.750000e+000 -1.406733e+001
      endloop
   endfacet
   facet normal 0.000000e+000 -1.000000e+000 0.000000e+000
      outer loop
         vertex -5.250000e+001 -8.750000e+000 -1.406733e+001
         vertex -5.600000e+001 -8.750000e+000 1.500515e+001
         vertex -5.600000e+001 -8.750000e+000 -1.500515e+001
      endloop
   endfacet
   facet normal -5.000000e-001 0.000000e+000 -8.660254e-001
      outer loop
         vertex -3.843267e+001 -8.750000e+000 -3.843267e+001
         vertex -1.406733e+001 -8.750000e+000 -5.250000e+001
         vertex -3.843267e+001 -2.875000e+001 -3.843267e+001
      endloop
   endfacet
   facet normal -5.000000e-001 0.000000e+000 -8.660254e-001
      outer loop
         vertex -3.843267e+001 -2.875000e+001 -3.843267e+001
         vertex -1.406733e+001 -8.750000e+000 -5.250000e+001
         vertex -1.406733e+001 -2.875000e+001 -5.250000e+001
      endloop
   endfacet
   facet normal -8.660254e-001 0.000000e+000 -5.000000e-001
      outer loop
         vertex -5.250000e+001 -8.750000e+000 -1.406733e+001
         vertex -3.843267e+001 -8.750000e+000 -3.843267e+001
         vertex -5.250000e+001 -2.875000e+001 -1.406733e+001
      endloop
   endfacet
   facet normal -8.660254e-001 0.000000e+000 -5.000000e-001
      outer loop
         vertex -5.250000e+001 -2.875000e+001 -1.406733e+001
         vertex -3.843267e+001 -8.750000e+000 -3.843267e+001
         vertex -3.843267e+001 -2.875000e+001 -3.843267e+001
      endloop
   endfacet
   facet normal -1.000000e+000 0.000000e+000 4.932629e-016
      outer loop
         vertex -5.250000e+001 -8.750000e+000 1.406733e+001
         vertex -5.250000e+001 -8.750000e+000 -1.406733e+001
         vertex -5.250000e+001 -2.875000e+001 1.406733e+001
      endloop
   endfacet
   facet normal -1.000000e+000 0.000000e+000 4.932629e-016
      outer loop
         vertex -5.250000e+001 -2.875000e+001 1.406733e+001
         vertex -5.250000e+001 -8.750000e+000 -1.406733e+001
         vertex -5.250000e+001 -2.875000e+001 -1.406733e+001
      endloop
   endfacet
   facet normal -8.660254e-001 0.000000e+000 5.000000e-001
      outer loop
         vertex -3.843267e+001 -8.750000e+000 3.843267e+001
         vertex -5.250000e+001 -8.750000e+000 1.406733e+001
         vertex -3.843267e+001 -2.875000e+001 3.843267e+001
      endloop
   endfacet
   facet normal -8.660254e-001 0.000000e+000 5.000000e-001
      outer loop
         vertex -3.843267e+001 -2.875000e+001 3.843267e+001
         vertex -5.250000e+001 -8.750000e+000 1.406733e+001
         vertex -5.250000e+001 -2.875000e+001 1.406733e+001
      endloop
   endfacet
   facet normal -5.000000e-001 0.000000e+000 8.660254e-001
      outer loop
         vertex -1.406733e+001 -8.750000e+000 5.250000e+001
         vertex -3.843267e+001 -8.750000e+000 3.843267e+001
         vertex -1.406733e+001 -2.875000e+001 5.250000e+001
      endloop
   endfacet
   facet normal -5.000000e-001 0.000000e+000 8.660254e-001
      outer loop
         vertex -1.406733e+001 -2.875000e+001 5.250000e+001
         vertex -3.843267e+001 -8.750000e+000 3.843267e+001
         vertex -3.843267e+001 -2.875000e+001 3.843267e+001
      endloop
   endfacet
   facet normal 0.000000e+000 0.000000e+000 1.000000e+000
      outer loop
         vertex 1.406733e+001 -8.750000e+000 5.250000e+001
         vertex -1.406733e+001 -8.750000e+000 5.250000e+001
         vertex 1.406733e+001 -2.875000e+001 5.250000e+001
      endloop
   endfacet
   facet normal 0.000000e+000 0.000000e+000 1.000000e+000
      outer loop
         vertex 1.406733e+001 -2.875000e+001 5.250000e+001
         vertex -1.406733e+001 -8.750000e+000 5.250000e+001
         vertex -1.406733e+001 -2.875000e+001 5.250000e+001
      endloop
   endfacet
   facet normal 5.000000e-001 0.000000e+000 8.660254e-001
      outer loop
         vertex 3.843267e+001 -8.750000e+000 3.843267e+001
         vertex 1.406733e+001 -8.750000e+000 5.250000e+001
         vertex 3.843267e+001 -2.875000e+001 3.843267e+001
      endloop
   endfacet
   facet normal 5.000000e-001 0.000000e+000 8.660254e-001
      outer loop
         vertex 3.843267e+001 -2.875000e+001 3.843267e+001
         vertex 1.406733e+001 -8.750000e+000 5.250000e+001
         vertex 1.406733e+001 -2.875000e+001 5.250000e+001
      endloop
   endfacet
   facet normal 8.660254e-001 0.000000e+000 5.000000e-001
      outer loop
         vertex 5.250000e+001 -8.750000e+000 1.406733e+001
         vertex 3.843267e+001 -8.750000e+000 3.843267e+001
         vertex 5.250000e+001 -2.875000e+001 1.406733e+001
      endloop
   endfacet
   facet normal 8.660254e-001 0.000000e+000 5.000000e-001
      outer loop
         vertex 5.250000e+001 -2.875000e+001 1.406733e+001
         vertex 3.843267e+001 -8.750000e+000 3.843267e+001
         vertex 3.843267e+001 -2.875000e+001 3.843267e+001
      endloop
   endfacet
   facet normal 1.000000e+000 0.000000e+000 -2.466315e-016
      outer loop
         vertex 5.250000e+001 -8.750000e+000 -1.406733e+001
         vertex 5.250000e+001 -8.750000e+000 1.406733e+001
         vertex 5.250000e+001 -2.875000e+001 -1.406733e+001
      endloop
   endfacet
   facet normal 1.000000e+000 0.000000e+000 -2.466315e-016
      outer loop
         vertex 5.250000e+001 -2.875000e+001 -1.406733e+001
         vertex 5.250000e+001 -8.750000e+000 1.406733e+001
         vertex 5.250000e+001 -2.875000e+001 1.406733e+001
      endloop
   endfacet
   facet normal 8.660254e-001 0.000000e+000 -5.000000e-001
      outer loop
         vertex 3.843267e+001 -8.750000e+000 -3.843267e+001
         vertex 5.250000e+001 -8.750000e+000 -1.406733e+001
         vertex 3.843267e+001 -2.875000e+001 -3.843267e+001
      endloop
   endfacet
   facet normal 8.660254e-001 0.000000e+000 -5.000000e-001
      outer loop
         vertex 3.843267e+001 -2.875000e+001 -3.843267e+001
         vertex 5.250000e+001 -8.750000e+000 -1.406733e+001
         vertex 5.250000e+001 -2.875000e+001 -1.406733e+001
      endloop
   endfacet
   facet normal 5.000000e-001 0.000000e+000 -8.660254e-001
      outer loop
         vertex 1.406733e+001 -8.750000e+000 -5.250000e+001
         vertex 3.843267e+001 -8.750000e+000 -3.843267e+001
         vertex 1.406733e+001 -2.875000e+001 -5.250000e+001
      endloop
   endfacet
   facet normal 5.000000e-001 0.000000e+000 -8.660254e-001
      outer loop
         vertex 1.406733e+001 -2.875000e+001 -5.250000e+001
         vertex 3.843267e+001 -8.750000e+000 -3.843267e+001
         vertex 3.843267e+001 -2.875000e+001 -3.843267e+001
      endloop
   endfacet
   facet normal -4.932630e-016 0.000000e+000 -1.000000e+000
      outer loop
         vertex -1.406733e+001 -8.750000e+000 -5.250000e+001
         vertex 1.406733e+001 -8.750000e+000 -5.250000e+001
         vertex -1.406733e+001 -2.875000e+001 -5.250000e+001
      endloop
   endfacet
   facet normal -4.932630e-016 0.000000e+000 -1.000000e+000
      outer loop
         vertex -1.406733e+001 -2.875000e+001 -5.250000e+001
         vertex 1.406733e+001 -8.750000e+000 -5.250000e+001
         vertex 1.406733e+001 -2.875000e+001 -5.250000e+001
      endloop
   endfacet
   facet normal 0.000000e+000 -1.000000e+000 0.000000e+000
      outer loop
         vertex 5.250000e+001 -2.875000e+001 -1.406733e+001
         vertex 5.250000e+001 -2.875000e+001 1.406733e+001
         vertex 3.843267e+001 -2.875000e+001 -3.843267e+001
      endloop
   endfacet
   facet normal 0.000000e+000 -1.000000e+000 0.000000e+000
      outer loop
         vertex 3.843267e+001 -2.875000e+001 -3.843267e+001
         vertex 5.250000e+001 -2.875000e+001 1.406733e+001
         vertex -5.250000e+001 -2.875000e+001 -1.406733e+001
      endloop
   endfacet
   facet normal 0.000000e+000 -1.000000e+000 0.000000e+000
      outer loop
         vertex 3.843267e+001 -2.875000e+001 -3.843267e+001
         vertex -5.250000e+001 -2.875000e+001 -1.406733e+001
         vertex 1.406733e+001 -2.875000e+001 -5.250000e+001
      endloop
   endfacet
   facet normal 0.000000e+000 -1.000000e+000 0.000000e+000
      outer loop
         vertex 1.406733e+001 -2.875000e+001 -5.250000e+001
         vertex -5.250000e+001 -2.875000e+001 -1.406733e+001
         vertex -1.406733e+001 -2.875000e+001 -5.250000e+001
      endloop
   endfacet
   facet normal 0.000000e+000 -1.000000e+000 0.000000e+000
      outer loop
         vertex -3.843267e+001 -2.875000e+001 3.843267e+001
         vertex -5.250000e+001 -2.875000e+001 1.406733e+001
         vertex -1.406733e+001 -2.875000e+001 5.250000e+001
      endloop
   endfacet
   facet normal 0.000000e+000 -1.000000e+000 0.000000e+000
      outer loop
         vertex -1.406733e+001 -2.875000e+001 5.250000e+001
         vertex -5.250000e+001 -2.875000e+001 1.406733e+001
         vertex -5.250000e+001 -2.875000e+001 -1.406733e+001
      endloop
   endfacet
   facet normal 0.000000e+000 -1.000000e+000 0.000000e+000
      outer loop
         vertex -1.406733e+001 -2.875000e+001 5.250000e+001
         vertex -5.250000e+001 -2.875000e+001 -1.406733e+001
         vertex 1.406733e+001 -2.875000e+001 5.250000e+001
      endloop
   endfacet
   facet normal 0.000000e+000 -1.000000e+000 0.000000e+000
      outer loop
         vertex 1.406733e+001 -2.875000e+001 5.250000e+001
         vertex -5.250000e+001 -2.875000e+001 -1.406733e+001
         vertex 5.250000e+001 -2.875000e+001 1.406733e+001
      endloop
   endfacet
   facet normal 0.000000e+000 -1.000000e+000 0.000000e+000
      outer loop
         vertex 1.406733e+001 -2.875000e+001 5.250000e+001
         vertex 5.250000e+001 -2.875000e+001 1.406733e+001
         vertex 3.843267e+001 -2.875000e+001 3.843267e+001
      endloop
   endfacet
   facet normal 0.000000e+000 -1.000000e+000 0.000000e+000
      outer loop
         vertex -5.250000e+001 -2.875000e+001 -1.406733e+001
         vertex -3.843267e+001 -2.875000e+001 -3.843267e+001
         vertex -1.406733e+001 -2.875000e+001 -5.250000e+001
      endloop
   endfacet
endsolid