solid IRB1400_-_M2000_REV2_01-3
   facet normal 0.000000e+000 -1.000000e+000 0.000000e+000
      outer loop
         vertex 2.796551e+001 -5.500000e+001 5.857509e+002
         vertex 2.219355e+001 -5.500000e+001 5.778065e+002
         vertex 8.500000e+001 -5.500000e+001 4.550000e+002
      endloop
   endfacet
   facet normal 0.000000e+000 -1.000000e+000 0.000000e+000
      outer loop
         vertex 8.500000e+001 -5.500000e+001 4.550000e+002
         vertex 2.219355e+001 -5.500000e+001 5.778065e+002
         vertex 1.424914e+001 -5.500000e+001 5.720345e+002
      endloop
   endfacet
   facet normal 0.000000e+000 -1.000000e+000 0.000000e+000
      outer loop
         vertex 8.500000e+001 -5.500000e+001 4.550000e+002
         vertex 1.424914e+001 -5.500000e+001 5.720345e+002
         vertex -1.600000e+001 -5.500000e+001 2.240000e+002
      endloop
   endfacet
   facet normal 0.000000e+000 -1.000000e+000 0.000000e+000
      outer loop
         vertex -1.600000e+001 -5.500000e+001 2.240000e+002
         vertex 1.424914e+001 -5.500000e+001 5.720345e+002
         vertex 4.909918e+000 -5.500000e+001 5.690000e+002
      endloop
   endfacet
   facet normal 0.000000e+000 -1.000000e+000 0.000000e+000
      outer loop
         vertex -1.600000e+001 -5.500000e+001 2.240000e+002
         vertex 4.909918e+000 -5.500000e+001 5.690000e+002
         vertex -2.200000e+001 -5.500000e+001 2.240000e+002
      endloop
   endfacet
   facet normal 0.000000e+000 -1.000000e+000 0.000000e+000
      outer loop
         vertex -2.200000e+001 -5.500000e+001 2.240000e+002
         vertex 4.909918e+000 -5.500000e+001 5.690000e+002
         vertex -4.909918e+000 -5.500000e+001 5.690000e+002
      endloop
   endfacet
   facet normal 0.000000e+000 -1.000000e+000 0.000000e+000
      outer loop
         vertex -2.200000e+001 -5.500000e+001 2.240000e+002
         vertex -4.909918e+000 -5.500000e+001 5.690000e+002
         vertex -1.424914e+001 -5.500000e+001 5.720345e+002
      endloop
   endfacet
   facet normal 0.000000e+000 -1.000000e+000 0.000000e+000
      outer loop
         vertex -1.600000e+001 -5.500000e+001 2.240000e+002
         vertex -1.600000e+001 -5.500000e+001 1.120000e+002
         vertex 8.500000e+001 -5.500000e+001 4.550000e+002
      endloop
   endfacet
   facet normal 0.000000e+000 -1.000000e+000 0.000000e+000
      outer loop
         vertex 8.500000e+001 -5.500000e+001 4.550000e+002
         vertex -1.600000e+001 -5.500000e+001 1.120000e+002
         vertex 1.773906e+001 -5.500000e+001 1.120000e+002
      endloop
   endfacet
   facet normal 0.000000e+000 -1.000000e+000 0.000000e+000
      outer loop
         vertex 8.500000e+001 -5.500000e+001 4.550000e+002
         vertex 1.773906e+001 -5.500000e+001 1.120000e+002
         vertex 5.148075e+001 -5.500000e+001 1.010367e+002
      endloop
   endfacet
   facet normal 0.000000e+000 -1.000000e+000 0.000000e+000
      outer loop
         vertex 3.100000e+001 -5.500000e+001 6.049099e+002
         vertex 3.100000e+001 -5.500000e+001 5.950901e+002
         vertex 5.100000e+001 -5.500000e+001 5.810000e+002
      endloop
   endfacet
   facet normal 0.000000e+000 -1.000000e+000 0.000000e+000
      outer loop
         vertex 5.100000e+001 -5.500000e+001 5.810000e+002
         vertex 3.100000e+001 -5.500000e+001 5.950901e+002
         vertex 2.796551e+001 -5.500000e+001 5.857509e+002
      endloop
   endfacet
   facet normal 0.000000e+000 -1.000000e+000 0.000000e+000
      outer loop
         vertex 5.100000e+001 -5.500000e+001 5.810000e+002
         vertex 2.796551e+001 -5.500000e+001 5.857509e+002
         vertex 8.500000e+001 -5.500000e+001 4.550000e+002
      endloop
   endfacet
   facet normal 0.000000e+000 -1.000000e+000 0.000000e+000
      outer loop
         vertex 8.018315e+001 -5.500000e+001 8.018315e+001
         vertex 8.500000e+001 -5.500000e+001 4.550000e+002
         vertex 5.148075e+001 -5.500000e+001 1.010367e+002
      endloop
   endfacet
   facet normal 0.000000e+000 -1.000000e+000 0.000000e+000
      outer loop
         vertex 5.100000e+001 -5.500000e+001 5.810000e+002
         vertex 2.806433e+001 -5.500000e+001 6.139449e+002
         vertex 3.100000e+001 -5.500000e+001 6.049099e+002
      endloop
   endfacet
   facet normal 0.000000e+000 -1.000000e+000 0.000000e+000
      outer loop
         vertex -1.424914e+001 -5.500000e+001 5.720345e+002
         vertex -2.200000e+001 -5.500000e+001 5.776658e+002
         vertex -2.200000e+001 -5.500000e+001 2.240000e+002
      endloop
   endfacet
   facet normal 0.000000e+000 -1.000000e+000 0.000000e+000
      outer loop
         vertex 8.018315e+001 -5.500000e+001 8.018315e+001
         vertex 8.500000e+001 -5.500000e+001 7.355331e+001
         vertex 8.500000e+001 -5.500000e+001 4.550000e+002
      endloop
   endfacet
   facet normal 8.207017e-001 0.000000e+000 5.713570e-001
      outer loop
         vertex 5.100000e+001 -5.500000e+001 5.810000e+002
         vertex 5.100000e+001 5.500000e+001 5.810000e+002
         vertex 2.806433e+001 -5.500000e+001 6.139449e+002
      endloop
   endfacet
   facet normal 8.207017e-001 0.000000e+000 5.713570e-001
      outer loop
         vertex 2.806433e+001 -5.500000e+001 6.139449e+002
         vertex 5.100000e+001 5.500000e+001 5.810000e+002
         vertex 2.806433e+001 5.500000e+001 6.139449e+002
      endloop
   endfacet
   facet normal 0.000000e+000 1.000000e+000 0.000000e+000
      outer loop
         vertex 1.424914e+001 5.500000e+001 5.720345e+002
         vertex 8.500000e+001 5.500000e+001 4.550000e+002
         vertex 4.909918e+000 5.500000e+001 5.690000e+002
      endloop
   endfacet
   facet normal 0.000000e+000 1.000000e+000 0.000000e+000
      outer loop
         vertex 4.909918e+000 5.500000e+001 5.690000e+002
         vertex 8.500000e+001 5.500000e+001 4.550000e+002
         vertex 1.773906e+001 5.500000e+001 1.120000e+002
      endloop
   endfacet
   facet normal 0.000000e+000 1.000000e+000 0.000000e+000
      outer loop
         vertex 4.909918e+000 5.500000e+001 5.690000e+002
         vertex 1.773906e+001 5.500000e+001 1.120000e+002
         vertex -4.909918e+000 5.500000e+001 5.690000e+002
      endloop
   endfacet
   facet normal 0.000000e+000 1.000000e+000 0.000000e+000
      outer loop
         vertex -4.909918e+000 5.500000e+001 5.690000e+002
         vertex 1.773906e+001 5.500000e+001 1.120000e+002
         vertex -1.773906e+001 5.500000e+001 1.120000e+002
      endloop
   endfacet
   facet normal 0.000000e+000 1.000000e+000 0.000000e+000
      outer loop
         vertex -4.909918e+000 5.500000e+001 5.690000e+002
         vertex -1.773906e+001 5.500000e+001 1.120000e+002
         vertex -2.200000e+001 5.500000e+001 1.106155e+002
      endloop
   endfacet
   facet normal 0.000000e+000 1.000000e+000 0.000000e+000
      outer loop
         vertex 2.796551e+001 5.500000e+001 5.857509e+002
         vertex 5.100000e+001 5.500000e+001 5.810000e+002
         vertex 2.219355e+001 5.500000e+001 5.778065e+002
      endloop
   endfacet
   facet normal 0.000000e+000 1.000000e+000 0.000000e+000
      outer loop
         vertex 2.219355e+001 5.500000e+001 5.778065e+002
         vertex 5.100000e+001 5.500000e+001 5.810000e+002
         vertex 8.500000e+001 5.500000e+001 4.550000e+002
      endloop
   endfacet
   facet normal 0.000000e+000 1.000000e+000 0.000000e+000
      outer loop
         vertex 2.219355e+001 5.500000e+001 5.778065e+002
         vertex 8.500000e+001 5.500000e+001 4.550000e+002
         vertex 1.424914e+001 5.500000e+001 5.720345e+002
      endloop
   endfacet
   facet normal 0.000000e+000 1.000000e+000 0.000000e+000
      outer loop
         vertex 8.500000e+001 5.500000e+001 7.355331e+001
         vertex 8.018315e+001 5.500000e+001 8.018315e+001
         vertex 8.500000e+001 5.500000e+001 4.550000e+002
      endloop
   endfacet
   facet normal 0.000000e+000 1.000000e+000 0.000000e+000
      outer loop
         vertex 8.500000e+001 5.500000e+001 4.550000e+002
         vertex 8.018315e+001 5.500000e+001 8.018315e+001
         vertex 5.148075e+001 5.500000e+001 1.010367e+002
      endloop
   endfacet
   facet normal 0.000000e+000 1.000000e+000 0.000000e+000
      outer loop
         vertex 8.500000e+001 5.500000e+001 4.550000e+002
         vertex 5.148075e+001 5.500000e+001 1.010367e+002
         vertex 1.773906e+001 5.500000e+001 1.120000e+002
      endloop
   endfacet
   facet normal 0.000000e+000 1.000000e+000 0.000000e+000
      outer loop
         vertex 2.796551e+001 5.500000e+001 5.857509e+002
         vertex 3.100000e+001 5.500000e+001 5.950901e+002
         vertex 5.100000e+001 5.500000e+001 5.810000e+002
      endloop
   endfacet
   facet normal 0.000000e+000 1.000000e+000 0.000000e+000
      outer loop
         vertex 5.100000e+001 5.500000e+001 5.810000e+002
         vertex 3.100000e+001 5.500000e+001 5.950901e+002
         vertex 3.100000e+001 5.500000e+001 6.049099e+002
      endloop
   endfacet
   facet normal 0.000000e+000 1.000000e+000 0.000000e+000
      outer loop
         vertex 5.100000e+001 5.500000e+001 5.810000e+002
         vertex 3.100000e+001 5.500000e+001 6.049099e+002
         vertex 2.806433e+001 5.500000e+001 6.139449e+002
      endloop
   endfacet
   facet normal 0.000000e+000 1.000000e+000 0.000000e+000
      outer loop
         vertex -2.200000e+001 5.500000e+001 5.776658e+002
         vertex -1.424914e+001 5.500000e+001 5.720345e+002
         vertex -2.200000e+001 5.500000e+001 1.106155e+002
      endloop
   endfacet
   facet normal 0.000000e+000 1.000000e+000 0.000000e+000
      outer loop
         vertex -2.200000e+001 5.500000e+001 1.106155e+002
         vertex -1.424914e+001 5.500000e+001 5.720345e+002
         vertex -4.909918e+000 5.500000e+001 5.690000e+002
      endloop
   endfacet
   facet normal 1.000000e+000 0.000000e+000 -9.150189e-017
      outer loop
         vertex 8.500000e+001 5.500000e+001 7.355331e+001
         vertex 8.500000e+001 5.500000e+001 4.550000e+002
         vertex 8.500000e+001 4.500000e+001 7.355331e+001
      endloop
   endfacet
   facet normal 1.000000e+000 0.000000e+000 -9.150189e-017
      outer loop
         vertex 8.500000e+001 4.500000e+001 7.355331e+001
         vertex 8.500000e+001 5.500000e+001 4.550000e+002
         vertex 8.500000e+001 -4.500000e+001 7.355331e+001
      endloop
   endfacet
   facet normal 1.000000e+000 0.000000e+000 -9.150189e-017
      outer loop
         vertex 8.500000e+001 4.500000e+001 7.355331e+001
         vertex 8.500000e+001 -4.500000e+001 7.355331e+001
         vertex 8.500000e+001 4.500000e+001 0.000000e+000
      endloop
   endfacet
   facet normal 1.000000e+000 0.000000e+000 -9.150189e-017
      outer loop
         vertex 8.500000e+001 4.500000e+001 0.000000e+000
         vertex 8.500000e+001 -4.500000e+001 7.355331e+001
         vertex 8.500000e+001 -4.500000e+001 -1.864793e-031
      endloop
   endfacet
   facet normal 1.000000e+000 0.000000e+000 -9.150189e-017
      outer loop
         vertex 8.500000e+001 -5.500000e+001 4.550000e+002
         vertex 8.500000e+001 -5.500000e+001 7.355331e+001
         vertex 8.500000e+001 5.500000e+001 4.550000e+002
      endloop
   endfacet
   facet normal 1.000000e+000 0.000000e+000 -9.150189e-017
      outer loop
         vertex 8.500000e+001 5.500000e+001 4.550000e+002
         vertex 8.500000e+001 -5.500000e+001 7.355331e+001
         vertex 8.500000e+001 -4.500000e+001 7.355331e+001
      endloop
   endfacet
   facet normal -1.296990e-016 0.000000e+000 -1.000000e+000
      outer loop
         vertex -2.200000e+001 4.500000e+001 1.387779e-014
         vertex 8.500000e+001 4.500000e+001 0.000000e+000
         vertex -2.200000e+001 -4.500000e+001 1.387779e-014
      endloop
   endfacet
   facet normal -1.296990e-016 0.000000e+000 -1.000000e+000
      outer loop
         vertex -2.200000e+001 -4.500000e+001 1.387779e-014
         vertex 8.500000e+001 4.500000e+001 0.000000e+000
         vertex 8.500000e+001 -4.500000e+001 0.000000e+000
      endloop
   endfacet
   facet normal -1.000000e+000 0.000000e+000 1.081076e-016
      outer loop
         vertex -2.200000e+001 -4.500000e+001 1.387779e-014
         vertex -2.200000e+001 -4.500000e+001 8.748337e+001
         vertex -2.200000e+001 4.500000e+001 1.387779e-014
      endloop
   endfacet
   facet normal -1.000000e+000 0.000000e+000 1.081076e-016
      outer loop
         vertex -2.200000e+001 4.500000e+001 1.387779e-014
         vertex -2.200000e+001 -4.500000e+001 8.748337e+001
         vertex -2.200000e+001 -4.000000e+000 8.748337e+001
      endloop
   endfacet
   facet normal -1.000000e+000 0.000000e+000 1.081076e-016
      outer loop
         vertex -2.200000e+001 4.500000e+001 1.387779e-014
         vertex -2.200000e+001 -4.000000e+000 8.748337e+001
         vertex -2.200000e+001 4.500000e+001 1.106155e+002
      endloop
   endfacet
   facet normal -1.000000e+000 0.000000e+000 1.081076e-016
      outer loop
         vertex -2.200000e+001 4.500000e+001 1.106155e+002
         vertex -2.200000e+001 -4.000000e+000 8.748337e+001
         vertex -2.200000e+001 -4.000000e+000 2.240000e+002
      endloop
   endfacet
   facet normal -1.000000e+000 0.000000e+000 1.081076e-016
      outer loop
         vertex -2.200000e+001 4.500000e+001 1.106155e+002
         vertex -2.200000e+001 -4.000000e+000 2.240000e+002
         vertex -2.200000e+001 5.500000e+001 1.106155e+002
      endloop
   endfacet
   facet normal -1.000000e+000 0.000000e+000 1.081076e-016
      outer loop
         vertex -2.200000e+001 5.500000e+001 1.106155e+002
         vertex -2.200000e+001 -4.000000e+000 2.240000e+002
         vertex -2.200000e+001 5.500000e+001 5.776658e+002
      endloop
   endfacet
   facet normal -1.000000e+000 0.000000e+000 1.081076e-016
      outer loop
         vertex -2.200000e+001 -5.500000e+001 2.240000e+002
         vertex -2.200000e+001 -5.500000e+001 5.776658e+002
         vertex -2.200000e+001 -4.000000e+000 2.240000e+002
      endloop
   endfacet
   facet normal -1.000000e+000 0.000000e+000 1.081076e-016
      outer loop
         vertex -2.200000e+001 -4.000000e+000 2.240000e+002
         vertex -2.200000e+001 -5.500000e+001 5.776658e+002
         vertex -2.200000e+001 5.500000e+001 5.776658e+002
      endloop
   endfacet
   facet normal -5.877852e-001 0.000000e+000 -8.090170e-001
      outer loop
         vertex -1.424914e+001 -5.500000e+001 5.720345e+002
         vertex -1.424914e+001 -5.600000e+001 5.720345e+002
         vertex -2.200000e+001 -5.500000e+001 5.776658e+002
      endloop
   endfacet
   facet normal -5.877852e-001 0.000000e+000 -8.090170e-001
      outer loop
         vertex -2.200000e+001 -5.500000e+001 5.776658e+002
         vertex -1.424914e+001 -5.600000e+001 5.720345e+002
         vertex -2.219355e+001 -5.600000e+001 5.778065e+002
      endloop
   endfacet
   facet normal -5.877852e-001 0.000000e+000 -8.090170e-001
      outer loop
         vertex -2.200000e+001 -5.500000e+001 5.776658e+002
         vertex -2.219355e+001 -5.600000e+001 5.778065e+002
         vertex -2.200000e+001 5.500000e+001 5.776658e+002
      endloop
   endfacet
   facet normal -5.877852e-001 0.000000e+000 -8.090170e-001
      outer loop
         vertex -2.200000e+001 5.500000e+001 5.776658e+002
         vertex -2.219355e+001 -5.600000e+001 5.778065e+002
         vertex -2.219355e+001 5.600000e+001 5.778065e+002
      endloop
   endfacet
   facet normal -5.877852e-001 0.000000e+000 -8.090170e-001
      outer loop
         vertex -2.200000e+001 5.500000e+001 5.776658e+002
         vertex -2.219355e+001 5.600000e+001 5.778065e+002
         vertex -1.424914e+001 5.500000e+001 5.720345e+002
      endloop
   endfacet
   facet normal -5.877852e-001 0.000000e+000 -8.090170e-001
      outer loop
         vertex -1.424914e+001 5.500000e+001 5.720345e+002
         vertex -2.219355e+001 5.600000e+001 5.778065e+002
         vertex -1.424914e+001 5.600000e+001 5.720345e+002
      endloop
   endfacet
   facet normal -8.090170e-001 0.000000e+000 -5.877852e-001
      outer loop
         vertex -2.796551e+001 -5.600000e+001 5.857509e+002
         vertex -2.796551e+001 5.600000e+001 5.857509e+002
         vertex -2.219355e+001 -5.600000e+001 5.778065e+002
      endloop
   endfacet
   facet normal -8.090170e-001 0.000000e+000 -5.877852e-001
      outer loop
         vertex -2.219355e+001 -5.600000e+001 5.778065e+002
         vertex -2.796551e+001 5.600000e+001 5.857509e+002
         vertex -2.219355e+001 5.600000e+001 5.778065e+002
      endloop
   endfacet
   facet normal -9.510565e-001 0.000000e+000 -3.090170e-001
      outer loop
         vertex -3.100000e+001 -5.600000e+001 5.950901e+002
         vertex -3.100000e+001 5.600000e+001 5.950901e+002
         vertex -2.796551e+001 -5.600000e+001 5.857509e+002
      endloop
   endfacet
   facet normal -9.510565e-001 0.000000e+000 -3.090170e-001
      outer loop
         vertex -2.796551e+001 -5.600000e+001 5.857509e+002
         vertex -3.100000e+001 5.600000e+001 5.950901e+002
         vertex -2.796551e+001 5.600000e+001 5.857509e+002
      endloop
   endfacet
   facet normal -1.000000e+000 0.000000e+000 3.179791e-015
      outer loop
         vertex -3.100000e+001 -5.600000e+001 6.049099e+002
         vertex -3.100000e+001 5.600000e+001 6.049099e+002
         vertex -3.100000e+001 -5.600000e+001 5.950901e+002
      endloop
   endfacet
   facet normal -1.000000e+000 0.000000e+000 3.179791e-015
      outer loop
         vertex -3.100000e+001 -5.600000e+001 5.950901e+002
         vertex -3.100000e+001 5.600000e+001 6.049099e+002
         vertex -3.100000e+001 5.600000e+001 5.950901e+002
      endloop
   endfacet
   facet normal -9.510565e-001 0.000000e+000 3.090170e-001
      outer loop
         vertex -2.796551e+001 -5.600000e+001 6.142491e+002
         vertex -2.796551e+001 5.600000e+001 6.142491e+002
         vertex -3.100000e+001 -5.600000e+001 6.049099e+002
      endloop
   endfacet
   facet normal -9.510565e-001 0.000000e+000 3.090170e-001
      outer loop
         vertex -3.100000e+001 -5.600000e+001 6.049099e+002
         vertex -2.796551e+001 5.600000e+001 6.142491e+002
         vertex -3.100000e+001 5.600000e+001 6.049099e+002
      endloop
   endfacet
   facet normal -8.090170e-001 0.000000e+000 5.877852e-001
      outer loop
         vertex -2.219355e+001 -5.600000e+001 6.221936e+002
         vertex -2.219355e+001 5.600000e+001 6.221936e+002
         vertex -2.796551e+001 -5.600000e+001 6.142491e+002
      endloop
   endfacet
   facet normal -8.090170e-001 0.000000e+000 5.877852e-001
      outer loop
         vertex -2.796551e+001 -5.600000e+001 6.142491e+002
         vertex -2.219355e+001 5.600000e+001 6.221936e+002
         vertex -2.796551e+001 5.600000e+001 6.142491e+002
      endloop
   endfacet
   facet normal -5.877852e-001 0.000000e+000 8.090170e-001
      outer loop
         vertex -1.424914e+001 -5.600000e+001 6.279655e+002
         vertex -1.424914e+001 5.600000e+001 6.279655e+002
         vertex -2.219355e+001 -5.600000e+001 6.221936e+002
      endloop
   endfacet
   facet normal -5.877852e-001 0.000000e+000 8.090170e-001
      outer loop
         vertex -2.219355e+001 -5.600000e+001 6.221936e+002
         vertex -1.424914e+001 5.600000e+001 6.279655e+002
         vertex -2.219355e+001 5.600000e+001 6.221936e+002
      endloop
   endfacet
   facet normal -3.090170e-001 0.000000e+000 9.510565e-001
      outer loop
         vertex -4.909918e+000 -5.600000e+001 6.310000e+002
         vertex -4.909918e+000 5.600000e+001 6.310000e+002
         vertex -1.424914e+001 -5.600000e+001 6.279655e+002
      endloop
   endfacet
   facet normal -3.090170e-001 0.000000e+000 9.510565e-001
      outer loop
         vertex -1.424914e+001 -5.600000e+001 6.279655e+002
         vertex -4.909918e+000 5.600000e+001 6.310000e+002
         vertex -1.424914e+001 5.600000e+001 6.279655e+002
      endloop
   endfacet
   facet normal 0.000000e+000 0.000000e+000 1.000000e+000
      outer loop
         vertex 4.909918e+000 -5.600000e+001 6.310000e+002
         vertex 4.909918e+000 5.600000e+001 6.310000e+002
         vertex -4.909918e+000 -5.600000e+001 6.310000e+002
      endloop
   endfacet
   facet normal 0.000000e+000 0.000000e+000 1.000000e+000
      outer loop
         vertex -4.909918e+000 -5.600000e+001 6.310000e+002
         vertex 4.909918e+000 5.600000e+001 6.310000e+002
         vertex -4.909918e+000 5.600000e+001 6.310000e+002
      endloop
   endfacet
   facet normal 3.090170e-001 0.000000e+000 9.510565e-001
      outer loop
         vertex 1.424914e+001 -5.600000e+001 6.279655e+002
         vertex 1.424914e+001 5.600000e+001 6.279655e+002
         vertex 4.909918e+000 -5.600000e+001 6.310000e+002
      endloop
   endfacet
   facet normal 3.090170e-001 0.000000e+000 9.510565e-001
      outer loop
         vertex 4.909918e+000 -5.600000e+001 6.310000e+002
         vertex 1.424914e+001 5.600000e+001 6.279655e+002
         vertex 4.909918e+000 5.600000e+001 6.310000e+002
      endloop
   endfacet
   facet normal 5.877852e-001 0.000000e+000 8.090170e-001
      outer loop
         vertex 2.219355e+001 -5.600000e+001 6.221936e+002
         vertex 2.219355e+001 5.600000e+001 6.221936e+002
         vertex 1.424914e+001 -5.600000e+001 6.279655e+002
      endloop
   endfacet
   facet normal 5.877852e-001 0.000000e+000 8.090170e-001
      outer loop
         vertex 1.424914e+001 -5.600000e+001 6.279655e+002
         vertex 2.219355e+001 5.600000e+001 6.221936e+002
         vertex 1.424914e+001 5.600000e+001 6.279655e+002
      endloop
   endfacet
   facet normal 8.090170e-001 0.000000e+000 5.877852e-001
      outer loop
         vertex 2.796551e+001 -5.600000e+001 6.142491e+002
         vertex 2.796551e+001 5.600000e+001 6.142491e+002
         vertex 2.219355e+001 -5.600000e+001 6.221936e+002
      endloop
   endfacet
   facet normal 8.090170e-001 0.000000e+000 5.877852e-001
      outer loop
         vertex 2.219355e+001 -5.600000e+001 6.221936e+002
         vertex 2.796551e+001 5.600000e+001 6.142491e+002
         vertex 2.219355e+001 5.600000e+001 6.221936e+002
      endloop
   endfacet
   facet normal 9.654676e-001 0.000000e+000 2.605230e-001
      outer loop
         vertex 8.500000e+001 5.500000e+001 4.550000e+002
         vertex 5.100000e+001 5.500000e+001 5.810000e+002
         vertex 8.500000e+001 -5.500000e+001 4.550000e+002
      endloop
   endfacet
   facet normal 9.654676e-001 0.000000e+000 2.605230e-001
      outer loop
         vertex 8.500000e+001 -5.500000e+001 4.550000e+002
         vertex 5.100000e+001 5.500000e+001 5.810000e+002
         vertex 5.100000e+001 -5.500000e+001 5.810000e+002
      endloop
   endfacet
   facet normal 0.000000e+000 -1.000000e+000 0.000000e+000
      outer loop
         vertex -1.010367e+002 4.500000e+001 5.148075e+001
         vertex -1.120000e+002 4.500000e+001 1.773906e+001
         vertex -8.018315e+001 4.500000e+001 8.018315e+001
      endloop
   endfacet
   facet normal 0.000000e+000 -1.000000e+000 0.000000e+000
      outer loop
         vertex -8.018315e+001 4.500000e+001 8.018315e+001
         vertex -1.120000e+002 4.500000e+001 1.773906e+001
         vertex -2.200000e+001 4.500000e+001 1.387779e-014
      endloop
   endfacet
   facet normal 0.000000e+000 -1.000000e+000 0.000000e+000
      outer loop
         vertex -8.018315e+001 4.500000e+001 8.018315e+001
         vertex -2.200000e+001 4.500000e+001 1.387779e-014
         vertex -5.148075e+001 4.500000e+001 1.010367e+002
      endloop
   endfacet
   facet normal 0.000000e+000 -1.000000e+000 0.000000e+000
      outer loop
         vertex -5.148075e+001 4.500000e+001 1.010367e+002
         vertex -2.200000e+001 4.500000e+001 1.387779e-014
         vertex -2.200000e+001 4.500000e+001 1.106155e+002
      endloop
   endfacet
   facet normal 0.000000e+000 -1.000000e+000 0.000000e+000
      outer loop
         vertex 1.120000e+002 4.500000e+001 1.773906e+001
         vertex 1.010367e+002 4.500000e+001 5.148075e+001
         vertex 1.120000e+002 4.500000e+001 -1.773906e+001
      endloop
   endfacet
   facet normal 0.000000e+000 -1.000000e+000 0.000000e+000
      outer loop
         vertex 1.120000e+002 4.500000e+001 -1.773906e+001
         vertex 1.010367e+002 4.500000e+001 5.148075e+001
         vertex 8.500000e+001 4.500000e+001 0.000000e+000
      endloop
   endfacet
   facet normal 0.000000e+000 -1.000000e+000 0.000000e+000
      outer loop
         vertex 1.120000e+002 4.500000e+001 -1.773906e+001
         vertex 8.500000e+001 4.500000e+001 0.000000e+000
         vertex 1.010367e+002 4.500000e+001 -5.148075e+001
      endloop
   endfacet
   facet normal 0.000000e+000 -1.000000e+000 0.000000e+000
      outer loop
         vertex 1.010367e+002 4.500000e+001 -5.148075e+001
         vertex 8.500000e+001 4.500000e+001 0.000000e+000
         vertex -2.200000e+001 4.500000e+001 1.387779e-014
      endloop
   endfacet
   facet normal 0.000000e+000 -1.000000e+000 0.000000e+000
      outer loop
         vertex 1.010367e+002 4.500000e+001 -5.148075e+001
         vertex -2.200000e+001 4.500000e+001 1.387779e-014
         vertex 8.018315e+001 4.500000e+001 -8.018315e+001
      endloop
   endfacet
   facet normal 0.000000e+000 -1.000000e+000 0.000000e+000
      outer loop
         vertex 8.018315e+001 4.500000e+001 -8.018315e+001
         vertex -2.200000e+001 4.500000e+001 1.387779e-014
         vertex 1.773906e+001 4.500000e+001 -1.120000e+002
      endloop
   endfacet
   facet normal 0.000000e+000 -1.000000e+000 0.000000e+000
      outer loop
         vertex 8.018315e+001 4.500000e+001 -8.018315e+001
         vertex 1.773906e+001 4.500000e+001 -1.120000e+002
         vertex 5.148075e+001 4.500000e+001 -1.010367e+002
      endloop
   endfacet
   facet normal 0.000000e+000 -1.000000e+000 0.000000e+000
      outer loop
         vertex -5.148075e+001 4.500000e+001 -1.010367e+002
         vertex -1.773906e+001 4.500000e+001 -1.120000e+002
         vertex -8.018315e+001 4.500000e+001 -8.018315e+001
      endloop
   endfacet
   facet normal 0.000000e+000 -1.000000e+000 0.000000e+000
      outer loop
         vertex -8.018315e+001 4.500000e+001 -8.018315e+001
         vertex -1.773906e+001 4.500000e+001 -1.120000e+002
         vertex -2.200000e+001 4.500000e+001 1.387779e-014
      endloop
   endfacet
   facet normal 0.000000e+000 -1.000000e+000 0.000000e+000
      outer loop
         vertex -8.018315e+001 4.500000e+001 -8.018315e+001
         vertex -2.200000e+001 4.500000e+001 1.387779e-014
         vertex -1.010367e+002 4.500000e+001 -5.148075e+001
      endloop
   endfacet
   facet normal 0.000000e+000 -1.000000e+000 0.000000e+000
      outer loop
         vertex -1.010367e+002 4.500000e+001 -5.148075e+001
         vertex -2.200000e+001 4.500000e+001 1.387779e-014
         vertex -1.120000e+002 4.500000e+001 1.773906e+001
      endloop
   endfacet
   facet normal 0.000000e+000 -1.000000e+000 0.000000e+000
      outer loop
         vertex -1.010367e+002 4.500000e+001 -5.148075e+001
         vertex -1.120000e+002 4.500000e+001 1.773906e+001
         vertex -1.120000e+002 4.500000e+001 -1.773906e+001
      endloop
   endfacet
   facet normal 0.000000e+000 -1.000000e+000 0.000000e+000
      outer loop
         vertex -1.773906e+001 4.500000e+001 -1.120000e+002
         vertex 1.773906e+001 4.500000e+001 -1.120000e+002
         vertex -2.200000e+001 4.500000e+001 1.387779e-014
      endloop
   endfacet
   facet normal 0.000000e+000 -1.000000e+000 0.000000e+000
      outer loop
         vertex 1.010367e+002 4.500000e+001 5.148075e+001
         vertex 8.500000e+001 4.500000e+001 7.355331e+001
         vertex 8.500000e+001 4.500000e+001 0.000000e+000
      endloop
   endfacet
   facet normal -3.090170e-001 0.000000e+000 9.510565e-001
      outer loop
         vertex -1.773906e+001 5.500000e+001 1.120000e+002
         vertex -1.773906e+001 5.750000e+001 1.120000e+002
         vertex -2.200000e+001 5.500000e+001 1.106155e+002
      endloop
   endfacet
   facet normal -3.090170e-001 0.000000e+000 9.510565e-001
      outer loop
         vertex -2.200000e+001 5.500000e+001 1.106155e+002
         vertex -1.773906e+001 5.750000e+001 1.120000e+002
         vertex -5.148075e+001 5.750000e+001 1.010367e+002
      endloop
   endfacet
   facet normal -3.090170e-001 0.000000e+000 9.510565e-001
      outer loop
         vertex -2.200000e+001 5.500000e+001 1.106155e+002
         vertex -5.148075e+001 5.750000e+001 1.010367e+002
         vertex -2.200000e+001 4.500000e+001 1.106155e+002
      endloop
   endfacet
   facet normal -3.090170e-001 0.000000e+000 9.510565e-001
      outer loop
         vertex -2.200000e+001 4.500000e+001 1.106155e+002
         vertex -5.148075e+001 5.750000e+001 1.010367e+002
         vertex -5.148075e+001 4.500000e+001 1.010367e+002
      endloop
   endfacet
   facet normal 8.090170e-001 0.000000e+000 5.877852e-001
      outer loop
         vertex 8.500000e+001 4.500000e+001 7.355331e+001
         vertex 1.010367e+002 4.500000e+001 5.148075e+001
         vertex 8.500000e+001 5.500000e+001 7.355331e+001
      endloop
   endfacet
   facet normal 8.090170e-001 0.000000e+000 5.877852e-001
      outer loop
         vertex 8.500000e+001 5.500000e+001 7.355331e+001
         vertex 1.010367e+002 4.500000e+001 5.148075e+001
         vertex 1.010367e+002 5.750000e+001 5.148075e+001
      endloop
   endfacet
   facet normal 8.090170e-001 0.000000e+000 5.877852e-001
      outer loop
         vertex 8.500000e+001 5.500000e+001 7.355331e+001
         vertex 1.010367e+002 5.750000e+001 5.148075e+001
         vertex 8.018315e+001 5.500000e+001 8.018315e+001
      endloop
   endfacet
   facet normal 8.090170e-001 0.000000e+000 5.877852e-001
      outer loop
         vertex 8.018315e+001 5.500000e+001 8.018315e+001
         vertex 1.010367e+002 5.750000e+001 5.148075e+001
         vertex 8.018315e+001 5.750000e+001 8.018315e+001
      endloop
   endfacet
   facet normal 8.090170e-001 0.000000e+000 -5.877852e-001
      outer loop
         vertex 8.018315e+001 4.500000e+001 -8.018315e+001
         vertex 8.018315e+001 5.750000e+001 -8.018315e+001
         vertex 1.010367e+002 4.500000e+001 -5.148075e+001
      endloop
   endfacet
   facet normal 8.090170e-001 0.000000e+000 -5.877852e-001
      outer loop
         vertex 1.010367e+002 4.500000e+001 -5.148075e+001
         vertex 8.018315e+001 5.750000e+001 -8.018315e+001
         vertex 1.010367e+002 5.750000e+001 -5.148075e+001
      endloop
   endfacet
   facet normal 5.877852e-001 0.000000e+000 -8.090170e-001
      outer loop
         vertex 5.148075e+001 4.500000e+001 -1.010367e+002
         vertex 5.148075e+001 5.750000e+001 -1.010367e+002
         vertex 8.018315e+001 4.500000e+001 -8.018315e+001
      endloop
   endfacet
   facet normal 5.877852e-001 0.000000e+000 -8.090170e-001
      outer loop
         vertex 8.018315e+001 4.500000e+001 -8.018315e+001
         vertex 5.148075e+001 5.750000e+001 -1.010367e+002
         vertex 8.018315e+001 5.750000e+001 -8.018315e+001
      endloop
   endfacet
   facet normal 3.090170e-001 0.000000e+000 -9.510565e-001
      outer loop
         vertex 1.773906e+001 4.500000e+001 -1.120000e+002
         vertex 1.773906e+001 5.750000e+001 -1.120000e+002
         vertex 5.148075e+001 4.500000e+001 -1.010367e+002
      endloop
   endfacet
   facet normal 3.090170e-001 0.000000e+000 -9.510565e-001
      outer loop
         vertex 5.148075e+001 4.500000e+001 -1.010367e+002
         vertex 1.773906e+001 5.750000e+001 -1.120000e+002
         vertex 5.148075e+001 5.750000e+001 -1.010367e+002
      endloop
   endfacet
   facet normal 0.000000e+000 0.000000e+000 -1.000000e+000
      outer loop
         vertex -1.773906e+001 4.500000e+001 -1.120000e+002
         vertex -1.773906e+001 5.750000e+001 -1.120000e+002
         vertex 1.773906e+001 4.500000e+001 -1.120000e+002
      endloop
   endfacet
   facet normal 0.000000e+000 0.000000e+000 -1.000000e+000
      outer loop
         vertex 1.773906e+001 4.500000e+001 -1.120000e+002
         vertex -1.773906e+001 5.750000e+001 -1.120000e+002
         vertex 1.773906e+001 5.750000e+001 -1.120000e+002
      endloop
   endfacet
   facet normal -3.090170e-001 0.000000e+000 -9.510565e-001
      outer loop
         vertex -5.148075e+001 4.500000e+001 -1.010367e+002
         vertex -5.148075e+001 5.750000e+001 -1.010367e+002
         vertex -1.773906e+001 4.500000e+001 -1.120000e+002
      endloop
   endfacet
   facet normal -3.090170e-001 0.000000e+000 -9.510565e-001
      outer loop
         vertex -1.773906e+001 4.500000e+001 -1.120000e+002
         vertex -5.148075e+001 5.750000e+001 -1.010367e+002
         vertex -1.773906e+001 5.750000e+001 -1.120000e+002
      endloop
   endfacet
   facet normal -5.877852e-001 0.000000e+000 -8.090170e-001
      outer loop
         vertex -8.018315e+001 4.500000e+001 -8.018315e+001
         vertex -8.018315e+001 5.750000e+001 -8.018315e+001
         vertex -5.148075e+001 4.500000e+001 -1.010367e+002
      endloop
   endfacet
   facet normal -5.877852e-001 0.000000e+000 -8.090170e-001
      outer loop
         vertex -5.148075e+001 4.500000e+001 -1.010367e+002
         vertex -8.018315e+001 5.750000e+001 -8.018315e+001
         vertex -5.148075e+001 5.750000e+001 -1.010367e+002
      endloop
   endfacet
   facet normal -8.090170e-001 0.000000e+000 -5.877852e-001
      outer loop
         vertex -1.010367e+002 4.500000e+001 -5.148075e+001
         vertex -1.010367e+002 5.750000e+001 -5.148075e+001
         vertex -8.018315e+001 4.500000e+001 -8.018315e+001
      endloop
   endfacet
   facet normal -8.090170e-001 0.000000e+000 -5.877852e-001
      outer loop
         vertex -8.018315e+001 4.500000e+001 -8.018315e+001
         vertex -1.010367e+002 5.750000e+001 -5.148075e+001
         vertex -8.018315e+001 5.750000e+001 -8.018315e+001
      endloop
   endfacet
   facet normal -9.510565e-001 0.000000e+000 -3.090170e-001
      outer loop
         vertex -1.120000e+002 4.500000e+001 -1.773906e+001
         vertex -1.120000e+002 5.750000e+001 -1.773906e+001
         vertex -1.010367e+002 4.500000e+001 -5.148075e+001
      endloop
   endfacet
   facet normal -9.510565e-001 0.000000e+000 -3.090170e-001
      outer loop
         vertex -1.010367e+002 4.500000e+001 -5.148075e+001
         vertex -1.120000e+002 5.750000e+001 -1.773906e+001
         vertex -1.010367e+002 5.750000e+001 -5.148075e+001
      endloop
   endfacet
   facet normal -1.000000e+000 0.000000e+000 -3.911647e-016
      outer loop
         vertex -1.120000e+002 4.500000e+001 1.773906e+001
         vertex -1.120000e+002 5.750000e+001 1.773906e+001
         vertex -1.120000e+002 4.500000e+001 -1.773906e+001
      endloop
   endfacet
   facet normal -1.000000e+000 0.000000e+000 -3.911647e-016
      outer loop
         vertex -1.120000e+002 4.500000e+001 -1.773906e+001
         vertex -1.120000e+002 5.750000e+001 1.773906e+001
         vertex -1.120000e+002 5.750000e+001 -1.773906e+001
      endloop
   endfacet
   facet normal -9.510565e-001 0.000000e+000 3.090170e-001
      outer loop
         vertex -1.010367e+002 4.500000e+001 5.148075e+001
         vertex -1.010367e+002 5.750000e+001 5.148075e+001
         vertex -1.120000e+002 4.500000e+001 1.773906e+001
      endloop
   endfacet
   facet normal -9.510565e-001 0.000000e+000 3.090170e-001
      outer loop
         vertex -1.120000e+002 4.500000e+001 1.773906e+001
         vertex -1.010367e+002 5.750000e+001 5.148075e+001
         vertex -1.120000e+002 5.750000e+001 1.773906e+001
      endloop
   endfacet
   facet normal -8.090170e-001 0.000000e+000 5.877852e-001
      outer loop
         vertex -8.018315e+001 4.500000e+001 8.018315e+001
         vertex -8.018315e+001 5.750000e+001 8.018315e+001
         vertex -1.010367e+002 4.500000e+001 5.148075e+001
      endloop
   endfacet
   facet normal -8.090170e-001 0.000000e+000 5.877852e-001
      outer loop
         vertex -1.010367e+002 4.500000e+001 5.148075e+001
         vertex -8.018315e+001 5.750000e+001 8.018315e+001
         vertex -1.010367e+002 5.750000e+001 5.148075e+001
      endloop
   endfacet
   facet normal -5.877852e-001 0.000000e+000 8.090170e-001
      outer loop
         vertex -5.148075e+001 4.500000e+001 1.010367e+002
         vertex -5.148075e+001 5.750000e+001 1.010367e+002
         vertex -8.018315e+001 4.500000e+001 8.018315e+001
      endloop
   endfacet
   facet normal -5.877852e-001 0.000000e+000 8.090170e-001
      outer loop
         vertex -8.018315e+001 4.500000e+001 8.018315e+001
         vertex -5.148075e+001 5.750000e+001 1.010367e+002
         vertex -8.018315e+001 5.750000e+001 8.018315e+001
      endloop
   endfacet
   facet normal 0.000000e+000 0.000000e+000 1.000000e+000
      outer loop
         vertex 1.773906e+001 5.500000e+001 1.120000e+002
         vertex 1.773906e+001 5.750000e+001 1.120000e+002
         vertex -1.773906e+001 5.500000e+001 1.120000e+002
      endloop
   endfacet
   facet normal 0.000000e+000 0.000000e+000 1.000000e+000
      outer loop
         vertex -1.773906e+001 5.500000e+001 1.120000e+002
         vertex 1.773906e+001 5.750000e+001 1.120000e+002
         vertex -1.773906e+001 5.750000e+001 1.120000e+002
      endloop
   endfacet
   facet normal 3.090170e-001 0.000000e+000 9.510565e-001
      outer loop
         vertex 5.148075e+001 5.500000e+001 1.010367e+002
         vertex 5.148075e+001 5.750000e+001 1.010367e+002
         vertex 1.773906e+001 5.500000e+001 1.120000e+002
      endloop
   endfacet
   facet normal 3.090170e-001 0.000000e+000 9.510565e-001
      outer loop
         vertex 1.773906e+001 5.500000e+001 1.120000e+002
         vertex 5.148075e+001 5.750000e+001 1.010367e+002
         vertex 1.773906e+001 5.750000e+001 1.120000e+002
      endloop
   endfacet
   facet normal 5.877852e-001 0.000000e+000 8.090170e-001
      outer loop
         vertex 8.018315e+001 5.500000e+001 8.018315e+001
         vertex 8.018315e+001 5.750000e+001 8.018315e+001
         vertex 5.148075e+001 5.500000e+001 1.010367e+002
      endloop
   endfacet
   facet normal 5.877852e-001 0.000000e+000 8.090170e-001
      outer loop
         vertex 5.148075e+001 5.500000e+001 1.010367e+002
         vertex 8.018315e+001 5.750000e+001 8.018315e+001
         vertex 5.148075e+001 5.750000e+001 1.010367e+002
      endloop
   endfacet
   facet normal 9.510565e-001 0.000000e+000 3.090170e-001
      outer loop
         vertex 1.120000e+002 4.500000e+001 1.773906e+001
         vertex 1.120000e+002 5.750000e+001 1.773906e+001
         vertex 1.010367e+002 4.500000e+001 5.148075e+001
      endloop
   endfacet
   facet normal 9.510565e-001 0.000000e+000 3.090170e-001
      outer loop
         vertex 1.010367e+002 4.500000e+001 5.148075e+001
         vertex 1.120000e+002 5.750000e+001 1.773906e+001
         vertex 1.010367e+002 5.750000e+001 5.148075e+001
      endloop
   endfacet
   facet normal 1.000000e+000 0.000000e+000 7.823294e-016
      outer loop
         vertex 1.120000e+002 4.500000e+001 -1.773906e+001
         vertex 1.120000e+002 5.750000e+001 -1.773906e+001
         vertex 1.120000e+002 4.500000e+001 1.773906e+001
      endloop
   endfacet
   facet normal 1.000000e+000 0.000000e+000 7.823294e-016
      outer loop
         vertex 1.120000e+002 4.500000e+001 1.773906e+001
         vertex 1.120000e+002 5.750000e+001 -1.773906e+001
         vertex 1.120000e+002 5.750000e+001 1.773906e+001
      endloop
   endfacet
   facet normal 9.510565e-001 0.000000e+000 -3.090170e-001
      outer loop
         vertex 1.010367e+002 4.500000e+001 -5.148075e+001
         vertex 1.010367e+002 5.750000e+001 -5.148075e+001
         vertex 1.120000e+002 4.500000e+001 -1.773906e+001
      endloop
   endfacet
   facet normal 9.510565e-001 0.000000e+000 -3.090170e-001
      outer loop
         vertex 1.120000e+002 4.500000e+001 -1.773906e+001
         vertex 1.010367e+002 5.750000e+001 -5.148075e+001
         vertex 1.120000e+002 5.750000e+001 -1.773906e+001
      endloop
   endfacet
   facet normal 0.000000e+000 1.000000e+000 0.000000e+000
      outer loop
         vertex -8.018315e+001 5.750000e+001 -8.018315e+001
         vertex -1.010367e+002 5.750000e+001 -5.148075e+001
         vertex -5.148075e+001 5.750000e+001 -1.010367e+002
      endloop
   endfacet
   facet normal 0.000000e+000 1.000000e+000 0.000000e+000
      outer loop
         vertex -5.148075e+001 5.750000e+001 -1.010367e+002
         vertex -1.010367e+002 5.750000e+001 -5.148075e+001
         vertex 1.010367e+002 5.750000e+001 5.148075e+001
      endloop
   endfacet
   facet normal 0.000000e+000 1.000000e+000 0.000000e+000
      outer loop
         vertex -5.148075e+001 5.750000e+001 -1.010367e+002
         vertex 1.010367e+002 5.750000e+001 5.148075e+001
         vertex -1.773906e+001 5.750000e+001 -1.120000e+002
      endloop
   endfacet
   facet normal 0.000000e+000 1.000000e+000 0.000000e+000
      outer loop
         vertex -1.773906e+001 5.750000e+001 -1.120000e+002
         vertex 1.010367e+002 5.750000e+001 5.148075e+001
         vertex 1.773906e+001 5.750000e+001 -1.120000e+002
      endloop
   endfacet
   facet normal 0.000000e+000 1.000000e+000 0.000000e+000
      outer loop
         vertex 5.148075e+001 5.750000e+001 -1.010367e+002
         vertex 1.773906e+001 5.750000e+001 -1.120000e+002
         vertex 8.018315e+001 5.750000e+001 -8.018315e+001
      endloop
   endfacet
   facet normal 0.000000e+000 1.000000e+000 0.000000e+000
      outer loop
         vertex 8.018315e+001 5.750000e+001 -8.018315e+001
         vertex 1.773906e+001 5.750000e+001 -1.120000e+002
         vertex 1.010367e+002 5.750000e+001 5.148075e+001
      endloop
   endfacet
   facet normal 0.000000e+000 1.000000e+000 0.000000e+000
      outer loop
         vertex 8.018315e+001 5.750000e+001 -8.018315e+001
         vertex 1.010367e+002 5.750000e+001 5.148075e+001
         vertex 1.010367e+002 5.750000e+001 -5.148075e+001
      endloop
   endfacet
   facet normal 0.000000e+000 1.000000e+000 0.000000e+000
      outer loop
         vertex 1.010367e+002 5.750000e+001 -5.148075e+001
         vertex 1.010367e+002 5.750000e+001 5.148075e+001
         vertex 1.120000e+002 5.750000e+001 -1.773906e+001
      endloop
   endfacet
   facet normal 0.000000e+000 1.000000e+000 0.000000e+000
      outer loop
         vertex 5.148075e+001 5.750000e+001 1.010367e+002
         vertex 8.018315e+001 5.750000e+001 8.018315e+001
         vertex 1.773906e+001 5.750000e+001 1.120000e+002
      endloop
   endfacet
   facet normal 0.000000e+000 1.000000e+000 0.000000e+000
      outer loop
         vertex 1.773906e+001 5.750000e+001 1.120000e+002
         vertex 8.018315e+001 5.750000e+001 8.018315e+001
         vertex 1.010367e+002 5.750000e+001 5.148075e+001
      endloop
   endfacet
   facet normal 0.000000e+000 1.000000e+000 0.000000e+000
      outer loop
         vertex 1.773906e+001 5.750000e+001 1.120000e+002
         vertex 1.010367e+002 5.750000e+001 5.148075e+001
         vertex -1.773906e+001 5.750000e+001 1.120000e+002
      endloop
   endfacet
   facet normal 0.000000e+000 1.000000e+000 0.000000e+000
      outer loop
         vertex -1.773906e+001 5.750000e+001 1.120000e+002
         vertex 1.010367e+002 5.750000e+001 5.148075e+001
         vertex -8.018315e+001 5.750000e+001 8.018315e+001
      endloop
   endfacet
   facet normal 0.000000e+000 1.000000e+000 0.000000e+000
      outer loop
         vertex -1.773906e+001 5.750000e+001 1.120000e+002
         vertex -8.018315e+001 5.750000e+001 8.018315e+001
         vertex -5.148075e+001 5.750000e+001 1.010367e+002
      endloop
   endfacet
   facet normal 0.000000e+000 1.000000e+000 0.000000e+000
      outer loop
         vertex -1.120000e+002 5.750000e+001 -1.773906e+001
         vertex -1.120000e+002 5.750000e+001 1.773906e+001
         vertex 1.010367e+002 5.750000e+001 5.148075e+001
      endloop
   endfacet
   facet normal 0.000000e+000 1.000000e+000 0.000000e+000
      outer loop
         vertex 1.010367e+002 5.750000e+001 5.148075e+001
         vertex -1.120000e+002 5.750000e+001 1.773906e+001
         vertex -1.010367e+002 5.750000e+001 5.148075e+001
      endloop
   endfacet
   facet normal 0.000000e+000 1.000000e+000 0.000000e+000
      outer loop
         vertex 1.010367e+002 5.750000e+001 5.148075e+001
         vertex -1.010367e+002 5.750000e+001 5.148075e+001
         vertex -8.018315e+001 5.750000e+001 8.018315e+001
      endloop
   endfacet
   facet normal 0.000000e+000 1.000000e+000 0.000000e+000
      outer loop
         vertex 1.010367e+002 5.750000e+001 5.148075e+001
         vertex 1.120000e+002 5.750000e+001 1.773906e+001
         vertex 1.120000e+002 5.750000e+001 -1.773906e+001
      endloop
   endfacet
   facet normal 0.000000e+000 1.000000e+000 0.000000e+000
      outer loop
         vertex 1.010367e+002 5.750000e+001 5.148075e+001
         vertex -1.010367e+002 5.750000e+001 -5.148075e+001
         vertex -1.120000e+002 5.750000e+001 -1.773906e+001
      endloop
   endfacet
   facet normal 8.090170e-001 0.000000e+000 5.877852e-001
      outer loop
         vertex 8.018315e+001 -5.500000e+001 8.018315e+001
         vertex 8.018315e+001 -5.900000e+001 8.018315e+001
         vertex 8.500000e+001 -5.500000e+001 7.355331e+001
      endloop
   endfacet
   facet normal 8.090170e-001 0.000000e+000 5.877852e-001
      outer loop
         vertex 8.500000e+001 -5.500000e+001 7.355331e+001
         vertex 8.018315e+001 -5.900000e+001 8.018315e+001
         vertex 1.010367e+002 -5.900000e+001 5.148075e+001
      endloop
   endfacet
   facet normal 8.090170e-001 0.000000e+000 5.877852e-001
      outer loop
         vertex 8.500000e+001 -5.500000e+001 7.355331e+001
         vertex 1.010367e+002 -5.900000e+001 5.148075e+001
         vertex 8.500000e+001 -4.500000e+001 7.355331e+001
      endloop
   endfacet
   facet normal 8.090170e-001 0.000000e+000 5.877852e-001
      outer loop
         vertex 8.500000e+001 -4.500000e+001 7.355331e+001
         vertex 1.010367e+002 -5.900000e+001 5.148075e+001
         vertex 1.010367e+002 -4.500000e+001 5.148075e+001
      endloop
   endfacet
   facet normal 0.000000e+000 1.000000e+000 0.000000e+000
      outer loop
         vertex -6.443289e+001 -4.500000e+001 6.443289e+001
         vertex -4.136846e+001 -4.500000e+001 8.119018e+001
         vertex -8.119018e+001 -4.500000e+001 4.136846e+001
      endloop
   endfacet
   facet normal 0.000000e+000 1.000000e+000 0.000000e+000
      outer loop
         vertex -8.119018e+001 -4.500000e+001 4.136846e+001
         vertex -4.136846e+001 -4.500000e+001 8.119018e+001
         vertex -2.200000e+001 -4.500000e+001 1.387779e-014
      endloop
   endfacet
   facet normal 0.000000e+000 1.000000e+000 0.000000e+000
      outer loop
         vertex -8.119018e+001 -4.500000e+001 4.136846e+001
         vertex -2.200000e+001 -4.500000e+001 1.387779e-014
         vertex -9.000000e+001 -4.500000e+001 1.425460e+001
      endloop
   endfacet
   facet normal 0.000000e+000 1.000000e+000 0.000000e+000
      outer loop
         vertex -9.000000e+001 -4.500000e+001 1.425460e+001
         vertex -2.200000e+001 -4.500000e+001 1.387779e-014
         vertex -9.000000e+001 -4.500000e+001 -1.425460e+001
      endloop
   endfacet
   facet normal 0.000000e+000 1.000000e+000 0.000000e+000
      outer loop
         vertex 6.667141e+001 -4.500000e+001 -9.000000e+001
         vertex -1.425460e+001 -4.500000e+001 -9.000000e+001
         vertex 8.018315e+001 -4.500000e+001 -8.018315e+001
      endloop
   endfacet
   facet normal 0.000000e+000 1.000000e+000 0.000000e+000
      outer loop
         vertex 8.018315e+001 -4.500000e+001 -8.018315e+001
         vertex -1.425460e+001 -4.500000e+001 -9.000000e+001
         vertex -4.136846e+001 -4.500000e+001 -8.119018e+001
      endloop
   endfacet
   facet normal 0.000000e+000 1.000000e+000 0.000000e+000
      outer loop
         vertex 8.018315e+001 -4.500000e+001 -8.018315e+001
         vertex -4.136846e+001 -4.500000e+001 -8.119018e+001
         vertex 1.010367e+002 -4.500000e+001 -5.148075e+001
      endloop
   endfacet
   facet normal 0.000000e+000 1.000000e+000 0.000000e+000
      outer loop
         vertex 1.010367e+002 -4.500000e+001 -5.148075e+001
         vertex -4.136846e+001 -4.500000e+001 -8.119018e+001
         vertex -6.443289e+001 -4.500000e+001 -6.443289e+001
      endloop
   endfacet
   facet normal 0.000000e+000 1.000000e+000 0.000000e+000
      outer loop
         vertex 1.010367e+002 -4.500000e+001 -5.148075e+001
         vertex -6.443289e+001 -4.500000e+001 -6.443289e+001
         vertex -2.200000e+001 -4.500000e+001 1.387779e-014
      endloop
   endfacet
   facet normal 0.000000e+000 1.000000e+000 0.000000e+000
      outer loop
         vertex -2.200000e+001 -4.500000e+001 1.387779e-014
         vertex -6.443289e+001 -4.500000e+001 -6.443289e+001
         vertex -8.119018e+001 -4.500000e+001 -4.136846e+001
      endloop
   endfacet
   facet normal 0.000000e+000 1.000000e+000 0.000000e+000
      outer loop
         vertex -2.200000e+001 -4.500000e+001 1.387779e-014
         vertex -8.119018e+001 -4.500000e+001 -4.136846e+001
         vertex -9.000000e+001 -4.500000e+001 -1.425460e+001
      endloop
   endfacet
   facet normal 0.000000e+000 1.000000e+000 0.000000e+000
      outer loop
         vertex 8.500000e+001 -4.500000e+001 7.355331e+001
         vertex 1.010367e+002 -4.500000e+001 5.148075e+001
         vertex 8.500000e+001 -4.500000e+001 0.000000e+000
      endloop
   endfacet
   facet normal 0.000000e+000 1.000000e+000 0.000000e+000
      outer loop
         vertex 8.500000e+001 -4.500000e+001 0.000000e+000
         vertex 1.010367e+002 -4.500000e+001 5.148075e+001
         vertex 1.120000e+002 -4.500000e+001 -1.773906e+001
      endloop
   endfacet
   facet normal 0.000000e+000 1.000000e+000 0.000000e+000
      outer loop
         vertex 8.500000e+001 -4.500000e+001 0.000000e+000
         vertex 1.120000e+002 -4.500000e+001 -1.773906e+001
         vertex -2.200000e+001 -4.500000e+001 1.387779e-014
      endloop
   endfacet
   facet normal 0.000000e+000 1.000000e+000 0.000000e+000
      outer loop
         vertex -2.200000e+001 -4.500000e+001 1.387779e-014
         vertex 1.120000e+002 -4.500000e+001 -1.773906e+001
         vertex 1.010367e+002 -4.500000e+001 -5.148075e+001
      endloop
   endfacet
   facet normal 0.000000e+000 1.000000e+000 0.000000e+000
      outer loop
         vertex -4.136846e+001 -4.500000e+001 8.119018e+001
         vertex -2.200000e+001 -4.500000e+001 8.748337e+001
         vertex -2.200000e+001 -4.500000e+001 1.387779e-014
      endloop
   endfacet
   facet normal 0.000000e+000 1.000000e+000 0.000000e+000
      outer loop
         vertex 1.010367e+002 -4.500000e+001 5.148075e+001
         vertex 1.120000e+002 -4.500000e+001 1.773906e+001
         vertex 1.120000e+002 -4.500000e+001 -1.773906e+001
      endloop
   endfacet
   facet normal 5.877852e-001 0.000000e+000 8.090170e-001
      outer loop
         vertex 5.148075e+001 -5.500000e+001 1.010367e+002
         vertex 5.148075e+001 -5.900000e+001 1.010367e+002
         vertex 8.018315e+001 -5.500000e+001 8.018315e+001
      endloop
   endfacet
   facet normal 5.877852e-001 0.000000e+000 8.090170e-001
      outer loop
         vertex 8.018315e+001 -5.500000e+001 8.018315e+001
         vertex 5.148075e+001 -5.900000e+001 1.010367e+002
         vertex 8.018315e+001 -5.900000e+001 8.018315e+001
      endloop
   endfacet
   facet normal 0.000000e+000 0.000000e+000 1.000000e+000
      outer loop
         vertex -1.600000e+001 -5.900000e+001 1.120000e+002
         vertex 1.773906e+001 -5.900000e+001 1.120000e+002
         vertex -1.600000e+001 -5.500000e+001 1.120000e+002
      endloop
   endfacet
   facet normal 0.000000e+000 0.000000e+000 1.000000e+000
      outer loop
         vertex -1.600000e+001 -5.500000e+001 1.120000e+002
         vertex 1.773906e+001 -5.900000e+001 1.120000e+002
         vertex 1.773906e+001 -5.500000e+001 1.120000e+002
      endloop
   endfacet
   facet normal 3.090170e-001 0.000000e+000 9.510565e-001
      outer loop
         vertex 1.773906e+001 -5.500000e+001 1.120000e+002
         vertex 1.773906e+001 -5.900000e+001 1.120000e+002
         vertex 5.148075e+001 -5.500000e+001 1.010367e+002
      endloop
   endfacet
   facet normal 3.090170e-001 0.000000e+000 9.510565e-001
      outer loop
         vertex 5.148075e+001 -5.500000e+001 1.010367e+002
         vertex 1.773906e+001 -5.900000e+001 1.120000e+002
         vertex 5.148075e+001 -5.900000e+001 1.010367e+002
      endloop
   endfacet
   facet normal 8.090170e-001 0.000000e+000 -5.877852e-001
      outer loop
         vertex 1.010367e+002 -4.500000e+001 -5.148075e+001
         vertex 1.010367e+002 -5.900000e+001 -5.148075e+001
         vertex 8.018315e+001 -4.500000e+001 -8.018315e+001
      endloop
   endfacet
   facet normal 8.090170e-001 0.000000e+000 -5.877852e-001
      outer loop
         vertex 8.018315e+001 -4.500000e+001 -8.018315e+001
         vertex 1.010367e+002 -5.900000e+001 -5.148075e+001
         vertex 8.018315e+001 -5.900000e+001 -8.018315e+001
      endloop
   endfacet
   facet normal 9.510565e-001 0.000000e+000 -3.090170e-001
      outer loop
         vertex 1.120000e+002 -4.500000e+001 -1.773906e+001
         vertex 1.120000e+002 -5.900000e+001 -1.773906e+001
         vertex 1.010367e+002 -4.500000e+001 -5.148075e+001
      endloop
   endfacet
   facet normal 9.510565e-001 0.000000e+000 -3.090170e-001
      outer loop
         vertex 1.010367e+002 -4.500000e+001 -5.148075e+001
         vertex 1.120000e+002 -5.900000e+001 -1.773906e+001
         vertex 1.010367e+002 -5.900000e+001 -5.148075e+001
      endloop
   endfacet
   facet normal 1.000000e+000 0.000000e+000 7.823294e-016
      outer loop
         vertex 1.120000e+002 -4.500000e+001 1.773906e+001
         vertex 1.120000e+002 -5.900000e+001 1.773906e+001
         vertex 1.120000e+002 -4.500000e+001 -1.773906e+001
      endloop
   endfacet
   facet normal 1.000000e+000 0.000000e+000 7.823294e-016
      outer loop
         vertex 1.120000e+002 -4.500000e+001 -1.773906e+001
         vertex 1.120000e+002 -5.900000e+001 1.773906e+001
         vertex 1.120000e+002 -5.900000e+001 -1.773906e+001
      endloop
   endfacet
   facet normal 9.510565e-001 0.000000e+000 3.090170e-001
      outer loop
         vertex 1.010367e+002 -4.500000e+001 5.148075e+001
         vertex 1.010367e+002 -5.900000e+001 5.148075e+001
         vertex 1.120000e+002 -4.500000e+001 1.773906e+001
      endloop
   endfacet
   facet normal 9.510565e-001 0.000000e+000 3.090170e-001
      outer loop
         vertex 1.120000e+002 -4.500000e+001 1.773906e+001
         vertex 1.010367e+002 -5.900000e+001 5.148075e+001
         vertex 1.120000e+002 -5.900000e+001 1.773906e+001
      endloop
   endfacet
   facet normal -3.090170e-001 0.000000e+000 9.510565e-001
      outer loop
         vertex -4.136846e+001 -4.500000e+001 8.119018e+001
         vertex -4.136846e+001 -5.900000e+001 8.119018e+001
         vertex -2.200000e+001 -4.500000e+001 8.748337e+001
      endloop
   endfacet
   facet normal -3.090170e-001 0.000000e+000 9.510565e-001
      outer loop
         vertex -2.200000e+001 -4.500000e+001 8.748337e+001
         vertex -4.136846e+001 -5.900000e+001 8.119018e+001
         vertex -1.600000e+001 -5.900000e+001 8.943288e+001
      endloop
   endfacet
   facet normal -3.090170e-001 0.000000e+000 9.510565e-001
      outer loop
         vertex -2.200000e+001 -4.500000e+001 8.748337e+001
         vertex -1.600000e+001 -5.900000e+001 8.943288e+001
         vertex -2.200000e+001 -4.000000e+000 8.748337e+001
      endloop
   endfacet
   facet normal -3.090170e-001 0.000000e+000 9.510565e-001
      outer loop
         vertex -2.200000e+001 -4.000000e+000 8.748337e+001
         vertex -1.600000e+001 -5.900000e+001 8.943288e+001
         vertex -1.600000e+001 -4.000000e+000 8.943288e+001
      endloop
   endfacet
   facet normal -5.877852e-001 0.000000e+000 8.090170e-001
      outer loop
         vertex -6.443289e+001 -4.500000e+001 6.443289e+001
         vertex -6.443289e+001 -5.900000e+001 6.443289e+001
         vertex -4.136846e+001 -4.500000e+001 8.119018e+001
      endloop
   endfacet
   facet normal -5.877852e-001 0.000000e+000 8.090170e-001
      outer loop
         vertex -4.136846e+001 -4.500000e+001 8.119018e+001
         vertex -6.443289e+001 -5.900000e+001 6.443289e+001
         vertex -4.136846e+001 -5.900000e+001 8.119018e+001
      endloop
   endfacet
   facet normal -8.090170e-001 0.000000e+000 5.877852e-001
      outer loop
         vertex -8.119018e+001 -4.500000e+001 4.136846e+001
         vertex -8.119018e+001 -5.900000e+001 4.136846e+001
         vertex -6.443289e+001 -4.500000e+001 6.443289e+001
      endloop
   endfacet
   facet normal -8.090170e-001 0.000000e+000 5.877852e-001
      outer loop
         vertex -6.443289e+001 -4.500000e+001 6.443289e+001
         vertex -8.119018e+001 -5.900000e+001 4.136846e+001
         vertex -6.443289e+001 -5.900000e+001 6.443289e+001
      endloop
   endfacet
   facet normal -9.510565e-001 0.000000e+000 3.090170e-001
      outer loop
         vertex -9.000000e+001 -4.500000e+001 1.425460e+001
         vertex -9.000000e+001 -5.900000e+001 1.425460e+001
         vertex -8.119018e+001 -4.500000e+001 4.136846e+001
      endloop
   endfacet
   facet normal -9.510565e-001 0.000000e+000 3.090170e-001
      outer loop
         vertex -8.119018e+001 -4.500000e+001 4.136846e+001
         vertex -9.000000e+001 -5.900000e+001 1.425460e+001
         vertex -8.119018e+001 -5.900000e+001 4.136846e+001
      endloop
   endfacet
   facet normal -1.000000e+000 0.000000e+000 -2.920697e-015
      outer loop
         vertex -9.000000e+001 -4.500000e+001 -1.425460e+001
         vertex -9.000000e+001 -5.900000e+001 -1.425460e+001
         vertex -9.000000e+001 -4.500000e+001 1.425460e+001
      endloop
   endfacet
   facet normal -1.000000e+000 0.000000e+000 -2.920697e-015
      outer loop
         vertex -9.000000e+001 -4.500000e+001 1.425460e+001
         vertex -9.000000e+001 -5.900000e+001 -1.425460e+001
         vertex -9.000000e+001 -5.900000e+001 1.425460e+001
      endloop
   endfacet
   facet normal -9.510565e-001 0.000000e+000 -3.090170e-001
      outer loop
         vertex -8.119018e+001 -4.500000e+001 -4.136846e+001
         vertex -8.119018e+001 -5.900000e+001 -4.136846e+001
         vertex -9.000000e+001 -4.500000e+001 -1.425460e+001
      endloop
   endfacet
   facet normal -9.510565e-001 0.000000e+000 -3.090170e-001
      outer loop
         vertex -9.000000e+001 -4.500000e+001 -1.425460e+001
         vertex -8.119018e+001 -5.900000e+001 -4.136846e+001
         vertex -9.000000e+001 -5.900000e+001 -1.425460e+001
      endloop
   endfacet
   facet normal -8.090170e-001 0.000000e+000 -5.877852e-001
      outer loop
         vertex -6.443289e+001 -4.500000e+001 -6.443289e+001
         vertex -6.443289e+001 -5.900000e+001 -6.443289e+001
         vertex -8.119018e+001 -4.500000e+001 -4.136846e+001
      endloop
   endfacet
   facet normal -8.090170e-001 0.000000e+000 -5.877852e-001
      outer loop
         vertex -8.119018e+001 -4.500000e+001 -4.136846e+001
         vertex -6.443289e+001 -5.900000e+001 -6.443289e+001
         vertex -8.119018e+001 -5.900000e+001 -4.136846e+001
      endloop
   endfacet
   facet normal -5.877852e-001 0.000000e+000 -8.090170e-001
      outer loop
         vertex -4.136846e+001 -4.500000e+001 -8.119018e+001
         vertex -4.136846e+001 -5.900000e+001 -8.119018e+001
         vertex -6.443289e+001 -4.500000e+001 -6.443289e+001
      endloop
   endfacet
   facet normal -5.877852e-001 0.000000e+000 -8.090170e-001
      outer loop
         vertex -6.443289e+001 -4.500000e+001 -6.443289e+001
         vertex -4.136846e+001 -5.900000e+001 -8.119018e+001
         vertex -6.443289e+001 -5.900000e+001 -6.443289e+001
      endloop
   endfacet
   facet normal -3.090170e-001 0.000000e+000 -9.510565e-001
      outer loop
         vertex -1.425460e+001 -4.500000e+001 -9.000000e+001
         vertex -1.425460e+001 -5.900000e+001 -9.000000e+001
         vertex -4.136846e+001 -4.500000e+001 -8.119018e+001
      endloop
   endfacet
   facet normal -3.090170e-001 0.000000e+000 -9.510565e-001
      outer loop
         vertex -4.136846e+001 -4.500000e+001 -8.119018e+001
         vertex -1.425460e+001 -5.900000e+001 -9.000000e+001
         vertex -4.136846e+001 -5.900000e+001 -8.119018e+001
      endloop
   endfacet
   facet normal 0.000000e+000 0.000000e+000 -1.000000e+000
      outer loop
         vertex 6.667141e+001 -4.500000e+001 -9.000000e+001
         vertex 6.667141e+001 -5.900000e+001 -9.000000e+001
         vertex -1.425460e+001 -4.500000e+001 -9.000000e+001
      endloop
   endfacet
   facet normal 0.000000e+000 0.000000e+000 -1.000000e+000
      outer loop
         vertex -1.425460e+001 -4.500000e+001 -9.000000e+001
         vertex 6.667141e+001 -5.900000e+001 -9.000000e+001
         vertex -1.425460e+001 -5.900000e+001 -9.000000e+001
      endloop
   endfacet
   facet normal 5.877852e-001 0.000000e+000 -8.090170e-001
      outer loop
         vertex 8.018315e+001 -4.500000e+001 -8.018315e+001
         vertex 8.018315e+001 -5.900000e+001 -8.018315e+001
         vertex 6.667141e+001 -4.500000e+001 -9.000000e+001
      endloop
   endfacet
   facet normal 5.877852e-001 0.000000e+000 -8.090170e-001
      outer loop
         vertex 6.667141e+001 -4.500000e+001 -9.000000e+001
         vertex 8.018315e+001 -5.900000e+001 -8.018315e+001
         vertex 6.667141e+001 -5.900000e+001 -9.000000e+001
      endloop
   endfacet
   facet normal 0.000000e+000 -1.000000e+000 0.000000e+000
      outer loop
         vertex -4.136846e+001 -5.900000e+001 -8.119018e+001
         vertex -1.425460e+001 -5.900000e+001 -9.000000e+001
         vertex -6.443289e+001 -5.900000e+001 -6.443289e+001
      endloop
   endfacet
   facet normal 0.000000e+000 -1.000000e+000 0.000000e+000
      outer loop
         vertex -6.443289e+001 -5.900000e+001 -6.443289e+001
         vertex -1.425460e+001 -5.900000e+001 -9.000000e+001
         vertex 6.667141e+001 -5.900000e+001 -9.000000e+001
      endloop
   endfacet
   facet normal 0.000000e+000 -1.000000e+000 0.000000e+000
      outer loop
         vertex -6.443289e+001 -5.900000e+001 -6.443289e+001
         vertex 6.667141e+001 -5.900000e+001 -9.000000e+001
         vertex -8.119018e+001 -5.900000e+001 -4.136846e+001
      endloop
   endfacet
   facet normal 0.000000e+000 -1.000000e+000 0.000000e+000
      outer loop
         vertex -8.119018e+001 -5.900000e+001 -4.136846e+001
         vertex 6.667141e+001 -5.900000e+001 -9.000000e+001
         vertex 8.018315e+001 -5.900000e+001 -8.018315e+001
      endloop
   endfacet
   facet normal 0.000000e+000 -1.000000e+000 0.000000e+000
      outer loop
         vertex -8.119018e+001 -5.900000e+001 -4.136846e+001
         vertex 8.018315e+001 -5.900000e+001 -8.018315e+001
         vertex -9.000000e+001 -5.900000e+001 -1.425460e+001
      endloop
   endfacet
   facet normal 0.000000e+000 -1.000000e+000 0.000000e+000
      outer loop
         vertex -9.000000e+001 -5.900000e+001 -1.425460e+001
         vertex 8.018315e+001 -5.900000e+001 -8.018315e+001
         vertex 1.010367e+002 -5.900000e+001 -5.148075e+001
      endloop
   endfacet
   facet normal 0.000000e+000 -1.000000e+000 0.000000e+000
      outer loop
         vertex -9.000000e+001 -5.900000e+001 -1.425460e+001
         vertex 1.010367e+002 -5.900000e+001 -5.148075e+001
         vertex -9.000000e+001 -5.900000e+001 1.425460e+001
      endloop
   endfacet
   facet normal 0.000000e+000 -1.000000e+000 0.000000e+000
      outer loop
         vertex -9.000000e+001 -5.900000e+001 1.425460e+001
         vertex 1.010367e+002 -5.900000e+001 -5.148075e+001
         vertex 1.120000e+002 -5.900000e+001 -1.773906e+001
      endloop
   endfacet
   facet normal 0.000000e+000 -1.000000e+000 0.000000e+000
      outer loop
         vertex -9.000000e+001 -5.900000e+001 1.425460e+001
         vertex 1.120000e+002 -5.900000e+001 -1.773906e+001
         vertex -8.119018e+001 -5.900000e+001 4.136846e+001
      endloop
   endfacet
   facet normal 0.000000e+000 -1.000000e+000 0.000000e+000
      outer loop
         vertex -8.119018e+001 -5.900000e+001 4.136846e+001
         vertex 1.120000e+002 -5.900000e+001 -1.773906e+001
         vertex -4.136846e+001 -5.900000e+001 8.119018e+001
      endloop
   endfacet
   facet normal 0.000000e+000 -1.000000e+000 0.000000e+000
      outer loop
         vertex -8.119018e+001 -5.900000e+001 4.136846e+001
         vertex -4.136846e+001 -5.900000e+001 8.119018e+001
         vertex -6.443289e+001 -5.900000e+001 6.443289e+001
      endloop
   endfacet
   facet normal 0.000000e+000 -1.000000e+000 0.000000e+000
      outer loop
         vertex -4.136846e+001 -5.900000e+001 8.119018e+001
         vertex 1.120000e+002 -5.900000e+001 -1.773906e+001
         vertex -1.600000e+001 -5.900000e+001 8.943288e+001
      endloop
   endfacet
   facet normal 0.000000e+000 -1.000000e+000 0.000000e+000
      outer loop
         vertex -1.600000e+001 -5.900000e+001 8.943288e+001
         vertex 1.120000e+002 -5.900000e+001 -1.773906e+001
         vertex 1.120000e+002 -5.900000e+001 1.773906e+001
      endloop
   endfacet
   facet normal 0.000000e+000 -1.000000e+000 0.000000e+000
      outer loop
         vertex -1.600000e+001 -5.900000e+001 8.943288e+001
         vertex 1.120000e+002 -5.900000e+001 1.773906e+001
         vertex 1.010367e+002 -5.900000e+001 5.148075e+001
      endloop
   endfacet
   facet normal 0.000000e+000 -1.000000e+000 0.000000e+000
      outer loop
         vertex -1.600000e+001 -5.900000e+001 1.120000e+002
         vertex -1.600000e+001 -5.900000e+001 8.943288e+001
         vertex 1.773906e+001 -5.900000e+001 1.120000e+002
      endloop
   endfacet
   facet normal 0.000000e+000 -1.000000e+000 0.000000e+000
      outer loop
         vertex 1.773906e+001 -5.900000e+001 1.120000e+002
         vertex -1.600000e+001 -5.900000e+001 8.943288e+001
         vertex 1.010367e+002 -5.900000e+001 5.148075e+001
      endloop
   endfacet
   facet normal 0.000000e+000 -1.000000e+000 0.000000e+000
      outer loop
         vertex 1.773906e+001 -5.900000e+001 1.120000e+002
         vertex 1.010367e+002 -5.900000e+001 5.148075e+001
         vertex 5.148075e+001 -5.900000e+001 1.010367e+002
      endloop
   endfacet
   facet normal 0.000000e+000 -1.000000e+000 0.000000e+000
      outer loop
         vertex 5.148075e+001 -5.900000e+001 1.010367e+002
         vertex 1.010367e+002 -5.900000e+001 5.148075e+001
         vertex 8.018315e+001 -5.900000e+001 8.018315e+001
      endloop
   endfacet
   facet normal 5.877852e-001 0.000000e+000 -8.090170e-001
      outer loop
         vertex 2.219355e+001 -5.500000e+001 5.778065e+002
         vertex 2.219355e+001 -5.600000e+001 5.778065e+002
         vertex 1.424914e+001 -5.500000e+001 5.720345e+002
      endloop
   endfacet
   facet normal 5.877852e-001 0.000000e+000 -8.090170e-001
      outer loop
         vertex 1.424914e+001 -5.500000e+001 5.720345e+002
         vertex 2.219355e+001 -5.600000e+001 5.778065e+002
         vertex 1.424914e+001 -5.600000e+001 5.720345e+002
      endloop
   endfacet
   facet normal 8.090170e-001 0.000000e+000 -5.877852e-001
      outer loop
         vertex 2.796551e+001 -5.500000e+001 5.857509e+002
         vertex 2.796551e+001 -5.600000e+001 5.857509e+002
         vertex 2.219355e+001 -5.500000e+001 5.778065e+002
      endloop
   endfacet
   facet normal 8.090170e-001 0.000000e+000 -5.877852e-001
      outer loop
         vertex 2.219355e+001 -5.500000e+001 5.778065e+002
         vertex 2.796551e+001 -5.600000e+001 5.857509e+002
         vertex 2.219355e+001 -5.600000e+001 5.778065e+002
      endloop
   endfacet
   facet normal 9.510565e-001 0.000000e+000 -3.090170e-001
      outer loop
         vertex 3.100000e+001 -5.500000e+001 5.950901e+002
         vertex 3.100000e+001 -5.600000e+001 5.950901e+002
         vertex 2.796551e+001 -5.500000e+001 5.857509e+002
      endloop
   endfacet
   facet normal 9.510565e-001 0.000000e+000 -3.090170e-001
      outer loop
         vertex 2.796551e+001 -5.500000e+001 5.857509e+002
         vertex 3.100000e+001 -5.600000e+001 5.950901e+002
         vertex 2.796551e+001 -5.600000e+001 5.857509e+002
      endloop
   endfacet
   facet normal 1.000000e+000 0.000000e+000 0.000000e+000
      outer loop
         vertex 3.100000e+001 -5.500000e+001 6.049099e+002
         vertex 3.100000e+001 -5.600000e+001 6.049099e+002
         vertex 3.100000e+001 -5.500000e+001 5.950901e+002
      endloop
   endfacet
   facet normal 1.000000e+000 0.000000e+000 0.000000e+000
      outer loop
         vertex 3.100000e+001 -5.500000e+001 5.950901e+002
         vertex 3.100000e+001 -5.600000e+001 6.049099e+002
         vertex 3.100000e+001 -5.600000e+001 5.950901e+002
      endloop
   endfacet
   facet normal 9.510565e-001 0.000000e+000 3.090170e-001
      outer loop
         vertex 3.100000e+001 5.500000e+001 6.049099e+002
         vertex 3.100000e+001 5.600000e+001 6.049099e+002
         vertex 2.806433e+001 5.500000e+001 6.139449e+002
      endloop
   endfacet
   facet normal 9.510565e-001 0.000000e+000 3.090170e-001
      outer loop
         vertex 2.806433e+001 5.500000e+001 6.139449e+002
         vertex 3.100000e+001 5.600000e+001 6.049099e+002
         vertex 2.796551e+001 5.600000e+001 6.142491e+002
      endloop
   endfacet
   facet normal 9.510565e-001 0.000000e+000 3.090170e-001
      outer loop
         vertex 2.806433e+001 5.500000e+001 6.139449e+002
         vertex 2.796551e+001 5.600000e+001 6.142491e+002
         vertex 2.806433e+001 -5.500000e+001 6.139449e+002
      endloop
   endfacet
   facet normal 9.510565e-001 0.000000e+000 3.090170e-001
      outer loop
         vertex 2.806433e+001 -5.500000e+001 6.139449e+002
         vertex 2.796551e+001 5.600000e+001 6.142491e+002
         vertex 2.796551e+001 -5.600000e+001 6.142491e+002
      endloop
   endfacet
   facet normal 9.510565e-001 0.000000e+000 3.090170e-001
      outer loop
         vertex 2.806433e+001 -5.500000e+001 6.139449e+002
         vertex 2.796551e+001 -5.600000e+001 6.142491e+002
         vertex 3.100000e+001 -5.500000e+001 6.049099e+002
      endloop
   endfacet
   facet normal 9.510565e-001 0.000000e+000 3.090170e-001
      outer loop
         vertex 3.100000e+001 -5.500000e+001 6.049099e+002
         vertex 2.796551e+001 -5.600000e+001 6.142491e+002
         vertex 3.100000e+001 -5.600000e+001 6.049099e+002
      endloop
   endfacet
   facet normal -3.090170e-001 0.000000e+000 -9.510565e-001
      outer loop
         vertex -4.909918e+000 -5.500000e+001 5.690000e+002
         vertex -4.909918e+000 -5.600000e+001 5.690000e+002
         vertex -1.424914e+001 -5.500000e+001 5.720345e+002
      endloop
   endfacet
   facet normal -3.090170e-001 0.000000e+000 -9.510565e-001
      outer loop
         vertex -1.424914e+001 -5.500000e+001 5.720345e+002
         vertex -4.909918e+000 -5.600000e+001 5.690000e+002
         vertex -1.424914e+001 -5.600000e+001 5.720345e+002
      endloop
   endfacet
   facet normal 0.000000e+000 0.000000e+000 -1.000000e+000
      outer loop
         vertex 4.909918e+000 -5.500000e+001 5.690000e+002
         vertex 4.909918e+000 -5.600000e+001 5.690000e+002
         vertex -4.909918e+000 -5.500000e+001 5.690000e+002
      endloop
   endfacet
   facet normal 0.000000e+000 0.000000e+000 -1.000000e+000
      outer loop
         vertex -4.909918e+000 -5.500000e+001 5.690000e+002
         vertex 4.909918e+000 -5.600000e+001 5.690000e+002
         vertex -4.909918e+000 -5.600000e+001 5.690000e+002
      endloop
   endfacet
   facet normal 3.090170e-001 0.000000e+000 -9.510565e-001
      outer loop
         vertex 1.424914e+001 -5.500000e+001 5.720345e+002
         vertex 1.424914e+001 -5.600000e+001 5.720345e+002
         vertex 4.909918e+000 -5.500000e+001 5.690000e+002
      endloop
   endfacet
   facet normal 3.090170e-001 0.000000e+000 -9.510565e-001
      outer loop
         vertex 4.909918e+000 -5.500000e+001 5.690000e+002
         vertex 1.424914e+001 -5.600000e+001 5.720345e+002
         vertex 4.909918e+000 -5.600000e+001 5.690000e+002
      endloop
   endfacet
   facet normal 5.877852e-001 0.000000e+000 -8.090170e-001
      outer loop
         vertex 1.424914e+001 5.600000e+001 5.720345e+002
         vertex 2.219355e+001 5.600000e+001 5.778065e+002
         vertex 1.424914e+001 5.500000e+001 5.720345e+002
      endloop
   endfacet
   facet normal 5.877852e-001 0.000000e+000 -8.090170e-001
      outer loop
         vertex 1.424914e+001 5.500000e+001 5.720345e+002
         vertex 2.219355e+001 5.600000e+001 5.778065e+002
         vertex 2.219355e+001 5.500000e+001 5.778065e+002
      endloop
   endfacet
   facet normal 8.090170e-001 0.000000e+000 -5.877852e-001
      outer loop
         vertex 2.219355e+001 5.600000e+001 5.778065e+002
         vertex 2.796551e+001 5.600000e+001 5.857509e+002
         vertex 2.219355e+001 5.500000e+001 5.778065e+002
      endloop
   endfacet
   facet normal 8.090170e-001 0.000000e+000 -5.877852e-001
      outer loop
         vertex 2.219355e+001 5.500000e+001 5.778065e+002
         vertex 2.796551e+001 5.600000e+001 5.857509e+002
         vertex 2.796551e+001 5.500000e+001 5.857509e+002
      endloop
   endfacet
   facet normal 9.510565e-001 0.000000e+000 -3.090170e-001
      outer loop
         vertex 2.796551e+001 5.600000e+001 5.857509e+002
         vertex 3.100000e+001 5.600000e+001 5.950901e+002
         vertex 2.796551e+001 5.500000e+001 5.857509e+002
      endloop
   endfacet
   facet normal 9.510565e-001 0.000000e+000 -3.090170e-001
      outer loop
         vertex 2.796551e+001 5.500000e+001 5.857509e+002
         vertex 3.100000e+001 5.600000e+001 5.950901e+002
         vertex 3.100000e+001 5.500000e+001 5.950901e+002
      endloop
   endfacet
   facet normal 1.000000e+000 0.000000e+000 0.000000e+000
      outer loop
         vertex 3.100000e+001 5.600000e+001 5.950901e+002
         vertex 3.100000e+001 5.600000e+001 6.049099e+002
         vertex 3.100000e+001 5.500000e+001 5.950901e+002
      endloop
   endfacet
   facet normal 1.000000e+000 0.000000e+000 0.000000e+000
      outer loop
         vertex 3.100000e+001 5.500000e+001 5.950901e+002
         vertex 3.100000e+001 5.600000e+001 6.049099e+002
         vertex 3.100000e+001 5.500000e+001 6.049099e+002
      endloop
   endfacet
   facet normal -3.090170e-001 0.000000e+000 -9.510565e-001
      outer loop
         vertex -1.424914e+001 5.600000e+001 5.720345e+002
         vertex -4.909918e+000 5.600000e+001 5.690000e+002
         vertex -1.424914e+001 5.500000e+001 5.720345e+002
      endloop
   endfacet
   facet normal -3.090170e-001 0.000000e+000 -9.510565e-001
      outer loop
         vertex -1.424914e+001 5.500000e+001 5.720345e+002
         vertex -4.909918e+000 5.600000e+001 5.690000e+002
         vertex -4.909918e+000 5.500000e+001 5.690000e+002
      endloop
   endfacet
   facet normal 0.000000e+000 0.000000e+000 -1.000000e+000
      outer loop
         vertex -4.909918e+000 5.600000e+001 5.690000e+002
         vertex 4.909918e+000 5.600000e+001 5.690000e+002
         vertex -4.909918e+000 5.500000e+001 5.690000e+002
      endloop
   endfacet
   facet normal 0.000000e+000 0.000000e+000 -1.000000e+000
      outer loop
         vertex -4.909918e+000 5.500000e+001 5.690000e+002
         vertex 4.909918e+000 5.600000e+001 5.690000e+002
         vertex 4.909918e+000 5.500000e+001 5.690000e+002
      endloop
   endfacet
   facet normal 3.090170e-001 0.000000e+000 -9.510565e-001
      outer loop
         vertex 4.909918e+000 5.600000e+001 5.690000e+002
         vertex 1.424914e+001 5.600000e+001 5.720345e+002
         vertex 4.909918e+000 5.500000e+001 5.690000e+002
      endloop
   endfacet
   facet normal 3.090170e-001 0.000000e+000 -9.510565e-001
      outer loop
         vertex 4.909918e+000 5.500000e+001 5.690000e+002
         vertex 1.424914e+001 5.600000e+001 5.720345e+002
         vertex 1.424914e+001 5.500000e+001 5.720345e+002
      endloop
   endfacet
   facet normal 0.000000e+000 -1.000000e+000 0.000000e+000
      outer loop
         vertex 4.909918e+000 -5.600000e+001 6.310000e+002
         vertex -4.909918e+000 -5.600000e+001 6.310000e+002
         vertex -1.424914e+001 -5.600000e+001 5.720345e+002
      endloop
   endfacet
   facet normal 0.000000e+000 -1.000000e+000 0.000000e+000
      outer loop
         vertex -1.424914e+001 -5.600000e+001 5.720345e+002
         vertex -4.909918e+000 -5.600000e+001 6.310000e+002
         vertex -2.219355e+001 -5.600000e+001 6.221936e+002
      endloop
   endfacet
   facet normal 0.000000e+000 -1.000000e+000 0.000000e+000
      outer loop
         vertex -1.424914e+001 -5.600000e+001 5.720345e+002
         vertex -2.219355e+001 -5.600000e+001 6.221936e+002
         vertex -2.796551e+001 -5.600000e+001 5.857509e+002
      endloop
   endfacet
   facet normal 0.000000e+000 -1.000000e+000 0.000000e+000
      outer loop
         vertex -2.796551e+001 -5.600000e+001 5.857509e+002
         vertex -2.219355e+001 -5.600000e+001 6.221936e+002
         vertex -3.100000e+001 -5.600000e+001 6.049099e+002
      endloop
   endfacet
   facet normal 0.000000e+000 -1.000000e+000 0.000000e+000
      outer loop
         vertex -2.796551e+001 -5.600000e+001 5.857509e+002
         vertex -3.100000e+001 -5.600000e+001 6.049099e+002
         vertex -3.100000e+001 -5.600000e+001 5.950901e+002
      endloop
   endfacet
   facet normal 0.000000e+000 -1.000000e+000 0.000000e+000
      outer loop
         vertex -4.909918e+000 -5.600000e+001 5.690000e+002
         vertex 4.909918e+000 -5.600000e+001 5.690000e+002
         vertex 1.424914e+001 -5.600000e+001 6.279655e+002
      endloop
   endfacet
   facet normal 0.000000e+000 -1.000000e+000 0.000000e+000
      outer loop
         vertex 1.424914e+001 -5.600000e+001 6.279655e+002
         vertex 4.909918e+000 -5.600000e+001 5.690000e+002
         vertex 2.219355e+001 -5.600000e+001 5.778065e+002
      endloop
   endfacet
   facet normal 0.000000e+000 -1.000000e+000 0.000000e+000
      outer loop
         vertex 1.424914e+001 -5.600000e+001 6.279655e+002
         vertex 2.219355e+001 -5.600000e+001 5.778065e+002
         vertex 2.219355e+001 -5.600000e+001 6.221936e+002
      endloop
   endfacet
   facet normal 0.000000e+000 -1.000000e+000 0.000000e+000
      outer loop
         vertex 2.219355e+001 -5.600000e+001 6.221936e+002
         vertex 2.219355e+001 -5.600000e+001 5.778065e+002
         vertex 2.796551e+001 -5.600000e+001 5.857509e+002
      endloop
   endfacet
   facet normal 0.000000e+000 -1.000000e+000 0.000000e+000
      outer loop
         vertex 2.219355e+001 -5.600000e+001 6.221936e+002
         vertex 2.796551e+001 -5.600000e+001 5.857509e+002
         vertex 2.796551e+001 -5.600000e+001 6.142491e+002
      endloop
   endfacet
   facet normal 0.000000e+000 -1.000000e+000 0.000000e+000
      outer loop
         vertex 2.796551e+001 -5.600000e+001 6.142491e+002
         vertex 2.796551e+001 -5.600000e+001 5.857509e+002
         vertex 3.100000e+001 -5.600000e+001 5.950901e+002
      endloop
   endfacet
   facet normal 0.000000e+000 -1.000000e+000 0.000000e+000
      outer loop
         vertex 2.796551e+001 -5.600000e+001 6.142491e+002
         vertex 3.100000e+001 -5.600000e+001 5.950901e+002
         vertex 3.100000e+001 -5.600000e+001 6.049099e+002
      endloop
   endfacet
   facet normal 0.000000e+000 -1.000000e+000 0.000000e+000
      outer loop
         vertex 4.909918e+000 -5.600000e+001 6.310000e+002
         vertex -1.424914e+001 -5.600000e+001 5.720345e+002
         vertex 1.424914e+001 -5.600000e+001 6.279655e+002
      endloop
   endfacet
   facet normal 0.000000e+000 -1.000000e+000 0.000000e+000
      outer loop
         vertex 1.424914e+001 -5.600000e+001 6.279655e+002
         vertex -1.424914e+001 -5.600000e+001 5.720345e+002
         vertex -4.909918e+000 -5.600000e+001 5.690000e+002
      endloop
   endfacet
   facet normal 0.000000e+000 -1.000000e+000 0.000000e+000
      outer loop
         vertex -2.219355e+001 -5.600000e+001 6.221936e+002
         vertex -2.796551e+001 -5.600000e+001 6.142491e+002
         vertex -3.100000e+001 -5.600000e+001 6.049099e+002
      endloop
   endfacet
   facet normal 0.000000e+000 -1.000000e+000 0.000000e+000
      outer loop
         vertex 4.909918e+000 -5.600000e+001 5.690000e+002
         vertex 1.424914e+001 -5.600000e+001 5.720345e+002
         vertex 2.219355e+001 -5.600000e+001 5.778065e+002
      endloop
   endfacet
   facet normal 0.000000e+000 -1.000000e+000 0.000000e+000
      outer loop
         vertex -4.909918e+000 -5.600000e+001 6.310000e+002
         vertex -1.424914e+001 -5.600000e+001 6.279655e+002
         vertex -2.219355e+001 -5.600000e+001 6.221936e+002
      endloop
   endfacet
   facet normal 0.000000e+000 -1.000000e+000 0.000000e+000
      outer loop
         vertex -2.796551e+001 -5.600000e+001 5.857509e+002
         vertex -2.219355e+001 -5.600000e+001 5.778065e+002
         vertex -1.424914e+001 -5.600000e+001 5.720345e+002
      endloop
   endfacet
   facet normal 0.000000e+000 1.000000e+000 0.000000e+000
      outer loop
         vertex -4.909918e+000 5.600000e+001 5.690000e+002
         vertex -1.424914e+001 5.600000e+001 5.720345e+002
         vertex 4.909918e+000 5.600000e+001 5.690000e+002
      endloop
   endfacet
   facet normal 0.000000e+000 1.000000e+000 0.000000e+000
      outer loop
         vertex 4.909918e+000 5.600000e+001 5.690000e+002
         vertex -1.424914e+001 5.600000e+001 5.720345e+002
         vertex 2.219355e+001 5.600000e+001 6.221936e+002
      endloop
   endfacet
   facet normal 0.000000e+000 1.000000e+000 0.000000e+000
      outer loop
         vertex 4.909918e+000 5.600000e+001 5.690000e+002
         vertex 2.219355e+001 5.600000e+001 6.221936e+002
         vertex 1.424914e+001 5.600000e+001 5.720345e+002
      endloop
   endfacet
   facet normal 0.000000e+000 1.000000e+000 0.000000e+000
      outer loop
         vertex 1.424914e+001 5.600000e+001 5.720345e+002
         vertex 2.219355e+001 5.600000e+001 6.221936e+002
         vertex 2.219355e+001 5.600000e+001 5.778065e+002
      endloop
   endfacet
   facet normal 0.000000e+000 1.000000e+000 0.000000e+000
      outer loop
         vertex 2.219355e+001 5.600000e+001 5.778065e+002
         vertex 2.796551e+001 5.600000e+001 6.142491e+002
         vertex 2.796551e+001 5.600000e+001 5.857509e+002
      endloop
   endfacet
   facet normal 0.000000e+000 1.000000e+000 0.000000e+000
      outer loop
         vertex 2.796551e+001 5.600000e+001 5.857509e+002
         vertex 2.796551e+001 5.600000e+001 6.142491e+002
         vertex 3.100000e+001 5.600000e+001 6.049099e+002
      endloop
   endfacet
   facet normal 0.000000e+000 1.000000e+000 0.000000e+000
      outer loop
         vertex 2.796551e+001 5.600000e+001 5.857509e+002
         vertex 3.100000e+001 5.600000e+001 6.049099e+002
         vertex 3.100000e+001 5.600000e+001 5.950901e+002
      endloop
   endfacet
   facet normal 0.000000e+000 1.000000e+000 0.000000e+000
      outer loop
         vertex -3.100000e+001 5.600000e+001 5.950901e+002
         vertex -3.100000e+001 5.600000e+001 6.049099e+002
         vertex -2.796551e+001 5.600000e+001 5.857509e+002
      endloop
   endfacet
   facet normal 0.000000e+000 1.000000e+000 0.000000e+000
      outer loop
         vertex -2.796551e+001 5.600000e+001 5.857509e+002
         vertex -3.100000e+001 5.600000e+001 6.049099e+002
         vertex -2.219355e+001 5.600000e+001 6.221936e+002
      endloop
   endfacet
   facet normal 0.000000e+000 1.000000e+000 0.000000e+000
      outer loop
         vertex -2.796551e+001 5.600000e+001 5.857509e+002
         vertex -2.219355e+001 5.600000e+001 6.221936e+002
         vertex -2.219355e+001 5.600000e+001 5.778065e+002
      endloop
   endfacet
   facet normal 0.000000e+000 1.000000e+000 0.000000e+000
      outer loop
         vertex -2.219355e+001 5.600000e+001 5.778065e+002
         vertex -2.219355e+001 5.600000e+001 6.221936e+002
         vertex -1.424914e+001 5.600000e+001 5.720345e+002
      endloop
   endfacet
   facet normal 0.000000e+000 1.000000e+000 0.000000e+000
      outer loop
         vertex -1.424914e+001 5.600000e+001 6.279655e+002
         vertex -4.909918e+000 5.600000e+001 6.310000e+002
         vertex -2.219355e+001 5.600000e+001 6.221936e+002
      endloop
   endfacet
   facet normal 0.000000e+000 1.000000e+000 0.000000e+000
      outer loop
         vertex -2.219355e+001 5.600000e+001 6.221936e+002
         vertex -4.909918e+000 5.600000e+001 6.310000e+002
         vertex 4.909918e+000 5.600000e+001 6.310000e+002
      endloop
   endfacet
   facet normal 0.000000e+000 1.000000e+000 0.000000e+000
      outer loop
         vertex -2.219355e+001 5.600000e+001 6.221936e+002
         vertex 4.909918e+000 5.600000e+001 6.310000e+002
         vertex -1.424914e+001 5.600000e+001 5.720345e+002
      endloop
   endfacet
   facet normal 0.000000e+000 1.000000e+000 0.000000e+000
      outer loop
         vertex -1.424914e+001 5.600000e+001 5.720345e+002
         vertex 4.909918e+000 5.600000e+001 6.310000e+002
         vertex 1.424914e+001 5.600000e+001 6.279655e+002
      endloop
   endfacet
   facet normal 0.000000e+000 1.000000e+000 0.000000e+000
      outer loop
         vertex -1.424914e+001 5.600000e+001 5.720345e+002
         vertex 1.424914e+001 5.600000e+001 6.279655e+002
         vertex 2.219355e+001 5.600000e+001 6.221936e+002
      endloop
   endfacet
   facet normal 0.000000e+000 1.000000e+000 0.000000e+000
      outer loop
         vertex 2.219355e+001 5.600000e+001 5.778065e+002
         vertex 2.219355e+001 5.600000e+001 6.221936e+002
         vertex 2.796551e+001 5.600000e+001 6.142491e+002
      endloop
   endfacet
   facet normal 0.000000e+000 1.000000e+000 0.000000e+000
      outer loop
         vertex -3.100000e+001 5.600000e+001 6.049099e+002
         vertex -2.796551e+001 5.600000e+001 6.142491e+002
         vertex -2.219355e+001 5.600000e+001 6.221936e+002
      endloop
   endfacet
   facet normal 0.000000e+000 -1.000000e+000 0.000000e+000
      outer loop
         vertex -1.600000e+001 -4.000000e+000 2.240000e+002
         vertex -2.200000e+001 -4.000000e+000 2.240000e+002
         vertex -1.600000e+001 -4.000000e+000 8.943288e+001
      endloop
   endfacet
   facet normal 0.000000e+000 -1.000000e+000 0.000000e+000
      outer loop
         vertex -1.600000e+001 -4.000000e+000 8.943288e+001
         vertex -2.200000e+001 -4.000000e+000 2.240000e+002
         vertex -2.200000e+001 -4.000000e+000 8.748337e+001
      endloop
   endfacet
   facet normal 0.000000e+000 0.000000e+000 -1.000000e+000
      outer loop
         vertex -1.600000e+001 -4.000000e+000 2.240000e+002
         vertex -1.600000e+001 -5.500000e+001 2.240000e+002
         vertex -2.200000e+001 -4.000000e+000 2.240000e+002
      endloop
   endfacet
   facet normal 0.000000e+000 0.000000e+000 -1.000000e+000
      outer loop
         vertex -2.200000e+001 -4.000000e+000 2.240000e+002
         vertex -1.600000e+001 -5.500000e+001 2.240000e+002
         vertex -2.200000e+001 -5.500000e+001 2.240000e+002
      endloop
   endfacet
   facet normal -1.000000e+000 0.000000e+000 -7.734683e-017
      outer loop
         vertex -1.600000e+001 -5.500000e+001 2.240000e+002
         vertex -1.600000e+001 -4.000000e+000 2.240000e+002
         vertex -1.600000e+001 -5.500000e+001 1.120000e+002
      endloop
   endfacet
   facet normal -1.000000e+000 0.000000e+000 -7.734683e-017
      outer loop
         vertex -1.600000e+001 -5.500000e+001 1.120000e+002
         vertex -1.600000e+001 -4.000000e+000 2.240000e+002
         vertex -1.600000e+001 -4.000000e+000 8.943288e+001
      endloop
   endfacet
   facet normal -1.000000e+000 0.000000e+000 -7.734683e-017
      outer loop
         vertex -1.600000e+001 -5.500000e+001 1.120000e+002
         vertex -1.600000e+001 -4.000000e+000 8.943288e+001
         vertex -1.600000e+001 -5.900000e+001 1.120000e+002
      endloop
   endfacet
   facet normal -1.000000e+000 0.000000e+000 -7.734683e-017
      outer loop
         vertex -1.600000e+001 -5.900000e+001 1.120000e+002
         vertex -1.600000e+001 -4.000000e+000 8.943288e+001
         vertex -1.600000e+001 -5.900000e+001 8.943288e+001
      endloop
   endfacet
endsolid